<svg width="11" height="20" viewBox="0 0 11 20" fill="none" xmlns="http://www.w3.org/2000/svg">
<path d="M0.00802022 9.74864C0.0457544 9.35823 0.203381 8.98905 0.45927 8.69179L7.29927 0.711784C7.45856 0.513044 7.65618 0.348356 7.88038 0.227508C8.10458 0.106661 8.3508 0.0321202 8.60438 0.00831652C8.85797 -0.0154872 9.11374 0.011932 9.35652 0.0889446C9.5993 0.165957 9.82411 0.290991 10.0176 0.456615C10.2111 0.622239 10.3693 0.825074 10.4829 1.05306C10.5964 1.28105 10.663 1.52954 10.6786 1.78376C10.6942 2.03798 10.6585 2.29274 10.5737 2.53291C10.4889 2.77307 10.3567 2.99374 10.1849 3.18178L4.40177 9.92679L10.1849 16.6718C10.3567 16.8598 10.4889 17.0805 10.5737 17.3207C10.6585 17.5608 10.6942 17.8156 10.6786 18.0698C10.663 18.324 10.5964 18.5725 10.4829 18.8005C10.3693 19.0285 10.2111 19.2313 10.0176 19.397C9.82411 19.5626 9.5993 19.6876 9.35652 19.7646C9.11375 19.8416 8.85797 19.8691 8.60439 19.8453C8.3508 19.8215 8.10459 19.7469 7.88038 19.6261C7.65618 19.5052 7.45856 19.3405 7.29927 19.1418L0.45927 11.1618C0.293135 10.9685 0.167577 10.7438 0.0900552 10.5011C0.0125329 10.2583 -0.0153705 10.0024 0.00802022 9.74864Z" fill="#D6D6DA"/>
</svg>
