<svg width="24" height="24" viewBox="0 0 24 24" fill="none" xmlns="http://www.w3.org/2000/svg">
<path d="M11.585 5.26692C13.419 5.26692 15.143 6.07792 16.409 7.34692V7.35091C16.409 6.74191 16.819 6.28292 17.388 6.28292H17.533C18.424 6.28292 18.606 7.12492 18.606 7.39192L18.611 16.8669C18.548 17.4879 19.251 17.8079 19.64 17.4099C21.161 15.8459 22.982 9.37191 18.694 5.61992C14.698 2.12292 9.33704 2.69892 6.48504 4.66492C3.45404 6.75592 1.51404 11.3829 3.39904 15.7289C5.45304 20.4689 11.33 21.8809 14.823 20.4729C16.592 19.7579 17.409 22.1489 15.572 22.9299C12.796 24.1139 5.07004 23.9939 1.46204 17.7419C-0.976956 13.5209 -0.846956 6.09291 5.62004 2.24491C10.567 -0.698085 17.09 0.116915 21.022 4.22391C25.133 8.51791 24.894 16.5579 20.883 19.6849C19.067 21.1049 16.367 19.7219 16.385 17.6539L16.366 16.9759C15.101 18.2319 13.418 18.9639 11.584 18.9639C7.95904 18.9639 4.77104 15.7749 4.77104 12.1519C4.77104 8.49292 7.96004 5.26692 11.585 5.26692ZM16.146 11.8899C16.009 9.23692 14.04 7.64091 11.662 7.64091H11.572C8.82704 7.64091 7.30404 9.79992 7.30404 12.2509C7.30404 14.9979 9.14604 16.7319 11.56 16.7319C14.253 16.7319 16.024 14.7589 16.152 12.4259L16.146 11.8899Z" fill="#0489DB"/>
</svg>
