<svg width="42" height="52" viewBox="0 0 42 52" fill="none" xmlns="http://www.w3.org/2000/svg">
<path fill-rule="evenodd" clip-rule="evenodd" d="M31.7519 16.8481C36.3719 16.8481 40.1099 20.5921 40.1099 25.1681C40.1099 29.7441 36.3299 33.4881 31.7099 33.4881C27.0899 33.4881 23.3099 29.7441 23.3099 25.1681C23.3099 15.9745 30.8279 8.52812 40.1099 8.52812C40.1099 8.52812 34.6079 10.5665 31.7519 16.8481ZM19.1099 25.1681C19.1099 29.7441 15.3299 33.4881 10.7099 33.4881C6.08994 33.4881 2.30994 29.7441 2.30994 25.1681C2.30994 15.9745 9.82794 8.52812 19.1099 8.52812C19.1099 8.52812 13.6079 10.5665 10.7519 16.8481C15.3719 16.8481 19.1099 20.5921 19.1099 25.1681Z" fill="#727181"/>
</svg>
