<svg width="11" height="20" viewBox="0 0 11 20" fill="none" xmlns="http://www.w3.org/2000/svg">
<path d="M10.992 9.74864C10.9542 9.35823 10.7966 8.98905 10.5407 8.69179L3.70073 0.711784C3.54144 0.513044 3.34382 0.348356 3.11962 0.227508C2.89542 0.106661 2.6492 0.0321202 2.39562 0.00831652C2.14203 -0.0154872 1.88625 0.011932 1.64348 0.0889446C1.4007 0.165957 1.17589 0.290991 0.982397 0.456615C0.788902 0.622239 0.630664 0.825074 0.517116 1.05306C0.403567 1.28105 0.337016 1.52954 0.32141 1.78376C0.305804 2.03798 0.341458 2.29274 0.426267 2.53291C0.511075 2.77307 0.64332 2.99374 0.815103 3.18178L6.59823 9.92679L0.815103 16.6718C0.643319 16.8598 0.511074 17.0805 0.426266 17.3207C0.341458 17.5608 0.305803 17.8156 0.321409 18.0698C0.337015 18.324 0.403567 18.5725 0.517115 18.8005C0.630663 19.0285 0.788901 19.2313 0.982396 19.397C1.17589 19.5626 1.4007 19.6876 1.64348 19.7646C1.88625 19.8416 2.14203 19.8691 2.39561 19.8453C2.6492 19.8215 2.89541 19.7469 3.11962 19.6261C3.34382 19.5052 3.54144 19.3405 3.70073 19.1418L10.5407 11.1618C10.7069 10.9685 10.8324 10.7438 10.9099 10.5011C10.9875 10.2583 11.0154 10.0024 10.992 9.74864Z" fill="#2B2B2B"/>
</svg>
