<svg width="425" height="265" viewBox="0 0 425 265" fill="none" xmlns="http://www.w3.org/2000/svg">
<rect y="73.9995" width="310" height="7" rx="3.5" fill="url(#paint0_linear)"/>
<path d="M7.71094 54.9175C7.71094 55.9292 7.36458 56.7085 6.67187 57.2554C5.98372 57.7977 4.99707 58.0688 3.71191 58.0688H2.53613L2.53613 61.9995H1.37402L1.37402 52.0054H3.96484C6.46224 52.0054 7.71094 52.9761 7.71094 54.9175ZM2.53613 57.0708H3.58203C4.61198 57.0708 5.3571 56.9045 5.81738 56.5718C6.27767 56.2391 6.50781 55.7059 6.50781 54.9722C6.50781 54.3114 6.29134 53.8192 5.8584 53.4956C5.42546 53.172 4.75098 53.0103 3.83496 53.0103H2.53613L2.53613 57.0708ZM14.0924 61.9995L10.7018 53.1401H10.6471C10.7109 53.842 10.7428 54.6759 10.7428 55.6421V61.9995H9.66957V52.0054H11.4196L14.5846 60.2495H14.6393L17.8317 52.0054H19.568L19.568 61.9995H18.4059L18.4059 55.5601C18.4059 54.8218 18.4378 54.0197 18.5016 53.1538H18.4469L15.0289 61.9995H14.0924ZM23.1946 60.3726L23.2971 60.5298C23.1787 60.9855 23.0078 61.5142 22.7845 62.1157C22.5611 62.7218 22.3287 63.2847 22.0872 63.8042H21.2327C21.3557 63.3302 21.4902 62.7446 21.636 62.0474C21.7864 61.3501 21.8912 60.7918 21.9505 60.3726H23.1946ZM33.4009 61.9995L33.1754 60.9331H33.1207C32.747 61.4025 32.3733 61.7215 31.9996 61.8901C31.6304 62.0542 31.1679 62.1362 30.6119 62.1362C29.869 62.1362 29.2857 61.9448 28.8619 61.562C28.4426 61.1792 28.233 60.6346 28.233 59.9282C28.233 58.4152 29.4429 57.6222 31.8629 57.5493L33.1343 57.5083V57.0435C33.1343 56.4556 33.0067 56.0226 32.7515 55.7446C32.5009 55.4621 32.0976 55.3208 31.5416 55.3208C30.9172 55.3208 30.2108 55.5122 29.4224 55.895L29.0738 55.0269C29.4429 54.8263 29.8463 54.6691 30.2838 54.5552C30.7258 54.4412 31.1679 54.3843 31.6099 54.3843C32.5032 54.3843 33.164 54.5825 33.5923 54.979C34.0253 55.3755 34.2418 56.0112 34.2418 56.8862V61.9995H33.4009ZM30.8375 61.1997C31.5438 61.1997 32.0976 61.006 32.4986 60.6187C32.9042 60.2313 33.107 59.689 33.107 58.9917V58.3149L31.9722 58.3628C31.0699 58.3947 30.4182 58.536 30.0171 58.7866C29.6207 59.0327 29.4224 59.4178 29.4224 59.9419C29.4224 60.3521 29.5455 60.6642 29.7916 60.8784C30.0422 61.0926 30.3908 61.1997 30.8375 61.1997ZM37.5812 54.5073V57.645H41.7785V54.5073H42.9133V61.9995H41.7785V58.6226H37.5812V61.9995H36.4465V54.5073H37.5812ZM49.787 61.9995L49.5614 60.9331H49.5067C49.133 61.4025 48.7593 61.7215 48.3856 61.8901C48.0164 62.0542 47.5539 62.1362 46.9979 62.1362C46.2551 62.1362 45.6717 61.9448 45.2479 61.562C44.8286 61.1792 44.619 60.6346 44.619 59.9282C44.619 58.4152 45.8289 57.6222 48.2489 57.5493L49.5204 57.5083V57.0435C49.5204 56.4556 49.3927 56.0226 49.1375 55.7446C48.8869 55.4621 48.4836 55.3208 47.9276 55.3208C47.3032 55.3208 46.5968 55.5122 45.8084 55.895L45.4598 55.0269C45.8289 54.8263 46.2323 54.6691 46.6698 54.5552C47.1118 54.4412 47.5539 54.3843 47.9959 54.3843C48.8892 54.3843 49.55 54.5825 49.9784 54.979C50.4113 55.3755 50.6278 56.0112 50.6278 56.8862V61.9995H49.787ZM47.2235 61.1997C47.9299 61.1997 48.4836 61.006 48.8846 60.6187C49.2902 60.2313 49.493 59.689 49.493 58.9917V58.3149L48.3582 58.3628C47.4559 58.3947 46.8042 58.536 46.4032 58.7866C46.0067 59.0327 45.8084 59.4178 45.8084 59.9419C45.8084 60.3521 45.9315 60.6642 46.1776 60.8784C46.4282 61.0926 46.7769 61.1997 47.2235 61.1997ZM58.4175 61.9995H57.269V55.478H55.02C54.897 57.1004 54.7261 58.3879 54.5073 59.3403C54.2886 60.2928 54.0037 60.9901 53.6528 61.4321C53.3065 61.8742 52.8644 62.0952 52.3266 62.0952C52.0805 62.0952 51.8846 62.0679 51.7388 62.0132V61.1724C51.839 61.1997 51.9529 61.2134 52.0805 61.2134C52.6046 61.2134 53.0216 60.6597 53.3315 59.5522C53.6414 58.4448 53.8761 56.7632 54.0356 54.5073H58.4175V61.9995ZM61.757 54.5073V59.2583L61.7091 60.5024L61.6886 60.8921L65.7423 54.5073H67.1573V61.9995H66.0978V57.4194L66.1183 56.5171L66.1525 55.6284L62.1056 61.9995H60.6905V54.5073L61.757 54.5073ZM74.4753 55.478H72.0418V61.9995H70.907V55.478H68.5007V54.5073H74.4753V55.478ZM76.8852 54.5073V59.2583L76.8373 60.5024L76.8168 60.8921L80.8705 54.5073H82.2855V61.9995H81.226V57.4194L81.2465 56.5171L81.2807 55.6284L77.2338 61.9995H75.8187V54.5073H76.8852ZM88.92 54.5073H90.1641L86.9307 58.1235L90.4307 61.9995H89.1045L85.6866 58.2056V61.9995H84.5518V54.5073H85.6866V58.1509L88.92 54.5073ZM92.7516 54.5073V59.2583L92.7038 60.5024L92.6833 60.8921L96.737 54.5073H98.152V61.9995H97.0925V57.4194L97.113 56.5171L97.1471 55.6284L93.1003 61.9995H91.6852V54.5073H92.7516Z" fill="#727181"/>
<path d="M301.369 62H294.8V61.0225L297.432 58.377C298.234 57.5658 298.763 56.987 299.018 56.6406C299.273 56.2943 299.465 55.957 299.592 55.6289C299.72 55.3008 299.784 54.9476 299.784 54.5693C299.784 54.0361 299.622 53.6146 299.298 53.3047C298.975 52.9902 298.526 52.833 297.952 52.833C297.537 52.833 297.143 52.9014 296.769 53.0381C296.4 53.1748 295.987 53.4232 295.532 53.7832L294.93 53.0107C295.851 52.2451 296.853 51.8623 297.938 51.8623C298.877 51.8623 299.613 52.1038 300.146 52.5869C300.679 53.0654 300.946 53.7103 300.946 54.5215C300.946 55.1549 300.768 55.7816 300.412 56.4014C300.057 57.0212 299.392 57.805 298.416 58.7529L296.229 60.8926V60.9473H301.369V62ZM309.296 56.9893C309.296 58.7165 309.022 60.0062 308.476 60.8584C307.933 61.7106 307.102 62.1367 305.98 62.1367C304.905 62.1367 304.087 61.7015 303.526 60.8311C302.966 59.9561 302.686 58.6755 302.686 56.9893C302.686 55.2484 302.957 53.9564 303.499 53.1133C304.041 52.2702 304.868 51.8486 305.98 51.8486C307.065 51.8486 307.888 52.2884 308.448 53.168C309.013 54.0475 309.296 55.3213 309.296 56.9893ZM303.834 56.9893C303.834 58.443 304.005 59.5026 304.347 60.168C304.688 60.8288 305.233 61.1592 305.98 61.1592C306.737 61.1592 307.284 60.8242 307.621 60.1543C307.963 59.4798 308.134 58.4248 308.134 56.9893C308.134 55.5537 307.963 54.5033 307.621 53.8379C307.284 53.168 306.737 52.833 305.98 52.833C305.233 52.833 304.688 53.1634 304.347 53.8242C304.005 54.4805 303.834 55.5355 303.834 56.9893Z" fill="#727181"/>
<rect y="27.9995" width="425" height="7" rx="3.5" fill="url(#paint1_linear)"/>
<path d="M1.37402 6.00537L4.19727 6.00537C5.52344 6.00537 6.48275 6.20361 7.0752 6.6001C7.66764 6.99658 7.96387 7.62321 7.96387 8.47998C7.96387 9.07243 7.79753 9.56234 7.46484 9.94971C7.13672 10.3325 6.65592 10.5809 6.02246 10.6948V10.7632C7.54004 11.0229 8.29883 11.8205 8.29883 13.1558C8.29883 14.049 7.99577 14.7463 7.38965 15.2476C6.78809 15.7489 5.94499 15.9995 4.86035 15.9995H1.37402L1.37402 6.00537ZM2.53613 10.2847H4.4502C5.27051 10.2847 5.86068 10.1571 6.2207 9.90186C6.58073 9.64209 6.76074 9.20687 6.76074 8.59619C6.76074 8.03564 6.56022 7.63232 6.15918 7.38623C5.75814 7.13558 5.12012 7.01025 4.24512 7.01025L2.53613 7.01025L2.53613 10.2847ZM2.53613 11.269L2.53613 15.0083H4.62109C5.42773 15.0083 6.03385 14.8534 6.43945 14.5435C6.84961 14.229 7.05469 13.7391 7.05469 13.0737C7.05469 12.4539 6.84505 11.9982 6.42578 11.7065C6.01107 11.4149 5.3776 11.269 4.52539 11.269H2.53613ZM14.7487 15.9995L14.5231 14.9331H14.4684C14.0947 15.4025 13.721 15.7215 13.3473 15.8901C12.9782 16.0542 12.5156 16.1362 11.9596 16.1362C11.2168 16.1362 10.6334 15.9448 10.2096 15.562C9.79034 15.1792 9.5807 14.6346 9.5807 13.9282C9.5807 12.4152 10.7907 11.6222 13.2106 11.5493L14.4821 11.5083V11.0435C14.4821 10.4556 14.3545 10.0226 14.0993 9.74463C13.8486 9.46208 13.4453 9.3208 12.8893 9.3208C12.2649 9.3208 11.5586 9.51221 10.7702 9.89502L10.4215 9.02686C10.7907 8.82633 11.194 8.66911 11.6315 8.55518C12.0735 8.44124 12.5156 8.38428 12.9577 8.38428C13.8509 8.38428 14.5117 8.58252 14.9401 8.979C15.373 9.37549 15.5895 10.0112 15.5895 10.8862V15.9995H14.7487ZM12.1852 15.1997C12.8916 15.1997 13.4453 15.006 13.8463 14.6187C14.2519 14.2313 14.4547 13.689 14.4547 12.9917V12.3149L13.32 12.3628C12.4176 12.3947 11.7659 12.536 11.3649 12.7866C10.9684 13.0327 10.7702 13.4178 10.7702 13.9419C10.7702 14.3521 10.8932 14.6642 11.1393 14.8784C11.3899 15.0926 11.7386 15.1997 12.1852 15.1997ZM20.7884 16.1362C19.7037 16.1362 18.8629 15.8035 18.2659 15.1382C17.6734 14.4683 17.3772 13.5226 17.3772 12.3013C17.3772 11.048 17.678 10.0796 18.2796 9.396C18.8857 8.7124 19.747 8.37061 20.8636 8.37061C21.2236 8.37061 21.5836 8.40934 21.9436 8.48682C22.3037 8.56429 22.5862 8.65544 22.7913 8.76025L22.4427 9.72412C22.192 9.62386 21.9186 9.54183 21.6223 9.47803C21.3261 9.40967 21.0641 9.37549 20.8362 9.37549C19.3141 9.37549 18.553 10.3462 18.553 12.2876C18.553 13.2082 18.7376 13.9146 19.1067 14.4067C19.4804 14.8989 20.0318 15.145 20.761 15.145C21.3854 15.145 22.0257 15.0106 22.6819 14.7417V15.7466C22.1806 16.0063 21.5494 16.1362 20.7884 16.1362ZM25.4472 12.1646C25.6432 11.8866 25.9417 11.522 26.3427 11.0708L28.7626 8.50732H30.1093L27.0741 11.6997L30.3212 15.9995H28.9472L26.3017 12.4585L25.4472 13.1968V15.9995H24.3261L24.3261 5.36279L25.4472 5.36279V11.0024C25.4472 11.2531 25.429 11.6405 25.3925 12.1646H25.4472ZM34.7066 16.1362C33.5992 16.1362 32.7242 15.799 32.0816 15.1245C31.4436 14.45 31.1246 13.5135 31.1246 12.3149C31.1246 11.1073 31.4208 10.1479 32.0132 9.43701C32.6102 8.72607 33.4101 8.37061 34.4127 8.37061C35.3515 8.37061 36.0943 8.6805 36.6412 9.30029C37.188 9.91553 37.4615 10.729 37.4615 11.7407V12.4585H32.3004C32.3231 13.3381 32.5442 14.0057 32.9634 14.4614C33.3873 14.9172 33.982 15.145 34.7476 15.145C35.5543 15.145 36.3518 14.9764 37.1402 14.6392V15.6509C36.7392 15.8241 36.3586 15.9471 35.9986 16.02C35.6431 16.0975 35.2125 16.1362 34.7066 16.1362ZM34.399 9.3208C33.7974 9.3208 33.3166 9.51676 32.9566 9.90869C32.6011 10.3006 32.3915 10.8429 32.3277 11.5356H36.2447C36.2447 10.8201 36.0852 10.2733 35.7662 9.89502C35.4472 9.51221 34.9914 9.3208 34.399 9.3208ZM44.3898 15.9995V11.1528C44.3898 10.5422 44.2508 10.0864 43.9729 9.78564C43.6949 9.48486 43.2596 9.33447 42.6672 9.33447C41.8833 9.33447 41.3091 9.54639 40.9445 9.97021C40.5799 10.394 40.3977 11.0936 40.3977 12.0688V15.9995H39.2629V8.50732H40.1857L40.3703 9.53271H40.425C40.6574 9.16357 40.9833 8.87874 41.4025 8.67822C41.8218 8.47314 42.2889 8.37061 42.8039 8.37061C43.7062 8.37061 44.3853 8.58936 44.841 9.02686C45.2967 9.4598 45.5246 10.1548 45.5246 11.1118V15.9995H44.3898ZM52.8221 14.9946H52.7606C52.2365 15.7557 51.4526 16.1362 50.409 16.1362C49.4292 16.1362 48.6659 15.8013 48.119 15.1313C47.5767 14.4614 47.3055 13.509 47.3055 12.2739C47.3055 11.0389 47.5789 10.0796 48.1258 9.396C48.6727 8.7124 49.4338 8.37061 50.409 8.37061C51.4253 8.37061 52.2046 8.73975 52.7469 9.47803H52.8358L52.7879 8.93799L52.7606 8.41162V5.36279H53.8954V15.9995H52.9725L52.8221 14.9946ZM50.5526 15.186C51.3273 15.186 51.8879 14.9764 52.2342 14.5571C52.5851 14.1333 52.7606 13.452 52.7606 12.5132V12.2739C52.7606 11.2121 52.5829 10.4556 52.2274 10.0044C51.8765 9.54867 51.3136 9.3208 50.5389 9.3208C49.8735 9.3208 49.3631 9.58057 49.0077 10.1001C48.6567 10.6151 48.4813 11.3442 48.4813 12.2876C48.4813 13.2446 48.6567 13.967 49.0077 14.4546C49.3586 14.9422 49.8735 15.186 50.5526 15.186ZM61.2921 7.99463C61.2921 8.30908 61.3741 8.60986 61.5382 8.89697C61.7023 9.17952 61.9825 9.52132 62.379 9.92236C62.9669 9.58057 63.3748 9.26611 63.6027 8.979C63.8351 8.68734 63.9513 8.35238 63.9513 7.97412C63.9513 7.62321 63.8328 7.33838 63.5958 7.11963C63.3634 6.89632 63.0512 6.78467 62.6593 6.78467C62.2537 6.78467 61.9233 6.89404 61.6681 7.11279C61.4174 7.33154 61.2921 7.62549 61.2921 7.99463ZM62.3517 15.1177C63.45 15.1177 64.3614 14.7668 65.0861 14.0649L62.0988 11.1665C61.5929 11.4764 61.2351 11.7339 61.0255 11.939C60.8159 12.1395 60.6609 12.356 60.5607 12.5884C60.4604 12.8208 60.4103 13.0851 60.4103 13.3813C60.4103 13.9146 60.5857 14.3384 60.9366 14.6528C61.2921 14.9627 61.7638 15.1177 62.3517 15.1177ZM59.2345 13.4087C59.2345 12.8162 59.3917 12.2922 59.7062 11.8364C60.0252 11.3807 60.5948 10.9204 61.4152 10.4556C61.0278 10.0226 60.7635 9.6945 60.6222 9.47119C60.4855 9.24788 60.3761 9.01546 60.2941 8.77393C60.212 8.53239 60.171 8.28174 60.171 8.02197C60.171 7.33838 60.3943 6.80518 60.8409 6.42236C61.2876 6.03955 61.9096 5.84814 62.7071 5.84814C63.4454 5.84814 64.0265 6.03955 64.4503 6.42236C64.8741 6.80062 65.0861 7.32926 65.0861 8.0083C65.0861 8.49593 64.9311 8.9471 64.6212 9.36182C64.3113 9.77197 63.7986 10.189 63.0831 10.6128L65.8654 13.2856C66.1206 13.0031 66.3234 12.6727 66.4738 12.2944C66.6287 11.9116 66.7586 11.4946 66.8634 11.0435H68.0118C67.7019 12.3468 67.2348 13.3358 66.6105 14.0103L68.6544 15.9995H67.089L65.8243 14.7827C65.2866 15.2658 64.7397 15.6121 64.1837 15.8218C63.6277 16.0314 63.0079 16.1362 62.3243 16.1362C61.3445 16.1362 60.5835 15.8947 60.0411 15.4116C59.5034 14.9285 59.2345 14.2609 59.2345 13.4087ZM74.5814 15.9995H73.4193V6.00537L78.9906 6.00537V7.0376H74.5814V10.6948H78.724V11.7271H74.5814V15.9995ZM83.7588 8.37061C84.0915 8.37061 84.39 8.39795 84.6543 8.45264L84.4971 9.50537C84.1872 9.43701 83.9138 9.40283 83.6768 9.40283C83.0707 9.40283 82.5511 9.64893 82.1182 10.1411C81.6898 10.6333 81.4756 11.2463 81.4756 11.98V15.9995H80.3409V8.50732H81.2774L81.4073 9.89502H81.462C81.7399 9.40739 82.0749 9.03141 82.4668 8.76709C82.8588 8.50277 83.2894 8.37061 83.7588 8.37061ZM92.3825 12.2466C92.3825 13.4679 92.0749 14.4227 91.4596 15.1108C90.8444 15.7944 89.9945 16.1362 88.9098 16.1362C88.2399 16.1362 87.6452 15.979 87.1257 15.6646C86.6061 15.3501 86.2051 14.8989 85.9225 14.311C85.64 13.7231 85.4987 13.035 85.4987 12.2466C85.4987 11.0252 85.804 10.075 86.4147 9.396C87.0254 8.7124 87.8731 8.37061 88.9577 8.37061C90.0059 8.37061 90.8376 8.71924 91.4528 9.4165C92.0726 10.1138 92.3825 11.0571 92.3825 12.2466ZM86.6745 12.2466C86.6745 13.2036 86.8659 13.9328 87.2487 14.4341C87.6315 14.9354 88.1943 15.186 88.9372 15.186C89.68 15.186 90.2429 14.9377 90.6257 14.4409C91.013 13.9396 91.2067 13.2082 91.2067 12.2466C91.2067 11.2941 91.013 10.5718 90.6257 10.0796C90.2429 9.58285 89.6755 9.33447 88.9235 9.33447C88.1807 9.33447 87.6201 9.57829 87.2419 10.0659C86.8636 10.5535 86.6745 11.2804 86.6745 12.2466ZM99.3655 15.9995V11.1528C99.3655 10.5422 99.2265 10.0864 98.9486 9.78564C98.6706 9.48486 98.2353 9.33447 97.6429 9.33447C96.859 9.33447 96.2848 9.54639 95.9202 9.97021C95.5557 10.394 95.3734 11.0936 95.3734 12.0688V15.9995H94.2386V8.50732H95.1614L95.346 9.53271H95.4007C95.6331 9.16357 95.959 8.87874 96.3782 8.67822C96.7975 8.47314 97.2646 8.37061 97.7796 8.37061C98.682 8.37061 99.361 8.58936 99.8167 9.02686C100.272 9.4598 100.5 10.1548 100.5 11.1118V15.9995L99.3655 15.9995ZM105.118 15.1997C105.319 15.1997 105.512 15.186 105.699 15.1587C105.886 15.1268 106.034 15.0949 106.144 15.063V15.9312C106.02 15.9904 105.838 16.0382 105.597 16.0747C105.36 16.1157 105.145 16.1362 104.954 16.1362C103.505 16.1362 102.78 15.3729 102.78 13.8462V9.38916H101.707V8.84229L102.78 8.37061L103.259 6.771H103.915V8.50732L106.089 8.50732V9.38916L103.915 9.38916V13.7983C103.915 14.2495 104.022 14.5959 104.236 14.8374C104.45 15.0789 104.744 15.1997 105.118 15.1997ZM110.672 16.1362C109.565 16.1362 108.69 15.799 108.047 15.1245C107.409 14.45 107.09 13.5135 107.09 12.3149C107.09 11.1073 107.387 10.1479 107.979 9.43701C108.576 8.72607 109.376 8.37061 110.379 8.37061C111.317 8.37061 112.06 8.6805 112.607 9.30029C113.154 9.91553 113.427 10.729 113.427 11.7407V12.4585H108.266C108.289 13.3381 108.51 14.0057 108.929 14.4614C109.353 14.9172 109.948 15.145 110.713 15.145C111.52 15.145 112.318 14.9764 113.106 14.6392V15.6509C112.705 15.8241 112.324 15.9471 111.964 16.02C111.609 16.0975 111.178 16.1362 110.672 16.1362ZM110.365 9.3208C109.763 9.3208 109.282 9.51676 108.922 9.90869C108.567 10.3006 108.357 10.8429 108.294 11.5356H112.211C112.211 10.8201 112.051 10.2733 111.732 9.89502C111.413 9.51221 110.957 9.3208 110.365 9.3208ZM120.356 15.9995V11.1528C120.356 10.5422 120.217 10.0864 119.939 9.78564C119.661 9.48486 119.225 9.33447 118.633 9.33447C117.849 9.33447 117.275 9.54639 116.91 9.97021C116.546 10.394 116.364 11.0936 116.364 12.0688V15.9995H115.229V8.50732L116.152 8.50732L116.336 9.53271H116.391C116.623 9.16357 116.949 8.87874 117.368 8.67822C117.788 8.47314 118.255 8.37061 118.77 8.37061C119.672 8.37061 120.351 8.58936 120.807 9.02686C121.263 9.4598 121.49 10.1548 121.49 11.1118V15.9995H120.356ZM128.788 14.9946H128.726C128.202 15.7557 127.419 16.1362 126.375 16.1362C125.395 16.1362 124.632 15.8013 124.085 15.1313C123.543 14.4614 123.271 13.509 123.271 12.2739C123.271 11.0389 123.545 10.0796 124.092 9.396C124.639 8.7124 125.4 8.37061 126.375 8.37061C127.391 8.37061 128.17 8.73975 128.713 9.47803H128.802L128.754 8.93799L128.726 8.41162V5.36279L129.861 5.36279V15.9995H128.938L128.788 14.9946ZM126.518 15.186C127.293 15.186 127.854 14.9764 128.2 14.5571C128.551 14.1333 128.726 13.452 128.726 12.5132V12.2739C128.726 11.2121 128.549 10.4556 128.193 10.0044C127.842 9.54867 127.28 9.3208 126.505 9.3208C125.839 9.3208 125.329 9.58057 124.974 10.1001C124.623 10.6151 124.447 11.3442 124.447 12.2876C124.447 13.2446 124.623 13.967 124.974 14.4546C125.324 14.9422 125.839 15.186 126.518 15.186ZM143.779 10.9067C143.779 12.5565 143.331 13.8188 142.433 14.6938C141.54 15.5643 140.252 15.9995 138.57 15.9995H135.802V6.00537H138.864C140.418 6.00537 141.626 6.43604 142.487 7.29736C143.349 8.15869 143.779 9.36182 143.779 10.9067ZM142.549 10.9478C142.549 9.64437 142.221 8.66227 141.565 8.00146C140.913 7.34066 139.942 7.01025 138.652 7.01025H136.964V14.9946L138.379 14.9946C139.764 14.9946 140.806 14.6551 141.503 13.9761C142.2 13.2925 142.549 12.283 142.549 10.9478ZM148.869 16.1362C147.762 16.1362 146.887 15.799 146.244 15.1245C145.606 14.45 145.287 13.5135 145.287 12.3149C145.287 11.1073 145.583 10.1479 146.176 9.43701C146.773 8.72607 147.572 8.37061 148.575 8.37061C149.514 8.37061 150.257 8.6805 150.804 9.30029C151.35 9.91553 151.624 10.729 151.624 11.7407V12.4585L146.463 12.4585C146.485 13.3381 146.707 14.0057 147.126 14.4614C147.55 14.9172 148.144 15.145 148.91 15.145C149.717 15.145 150.514 14.9764 151.303 14.6392V15.6509C150.901 15.8241 150.521 15.9471 150.161 16.02C149.805 16.0975 149.375 16.1362 148.869 16.1362ZM148.561 9.3208C147.96 9.3208 147.479 9.51676 147.119 9.90869C146.763 10.3006 146.554 10.8429 146.49 11.5356L150.407 11.5356C150.407 10.8201 150.248 10.2733 149.929 9.89502C149.61 9.51221 149.154 9.3208 148.561 9.3208ZM155.066 15.9995L152.222 8.50732H153.439L155.052 12.9507C155.417 13.9897 155.631 14.6642 155.695 14.9741H155.749C155.8 14.7326 155.957 14.2336 156.221 13.4771C156.49 12.716 157.089 11.0594 158.019 8.50732H159.236L156.392 15.9995H155.066ZM163.464 16.1362C162.357 16.1362 161.482 15.799 160.839 15.1245C160.201 14.45 159.882 13.5135 159.882 12.3149C159.882 11.1073 160.178 10.1479 160.771 9.43701C161.368 8.72607 162.167 8.37061 163.17 8.37061C164.109 8.37061 164.852 8.6805 165.399 9.30029C165.945 9.91553 166.219 10.729 166.219 11.7407V12.4585H161.058C161.08 13.3381 161.302 14.0057 161.721 14.4614C162.145 14.9172 162.739 15.145 163.505 15.145C164.312 15.145 165.109 14.9764 165.898 14.6392V15.6509C165.496 15.8241 165.116 15.9471 164.756 16.02C164.4 16.0975 163.97 16.1362 163.464 16.1362ZM163.156 9.3208C162.555 9.3208 162.074 9.51676 161.714 9.90869C161.358 10.3006 161.149 10.8429 161.085 11.5356H165.002C165.002 10.8201 164.843 10.2733 164.524 9.89502C164.205 9.51221 163.749 9.3208 163.156 9.3208ZM169.155 15.9995H168.02V5.36279L169.155 5.36279V15.9995ZM177.888 12.2466C177.888 13.4679 177.58 14.4227 176.965 15.1108C176.35 15.7944 175.5 16.1362 174.415 16.1362C173.745 16.1362 173.151 15.979 172.631 15.6646C172.112 15.3501 171.711 14.8989 171.428 14.311C171.146 13.7231 171.004 13.035 171.004 12.2466C171.004 11.0252 171.31 10.075 171.92 9.396C172.531 8.7124 173.379 8.37061 174.463 8.37061C175.511 8.37061 176.343 8.71924 176.958 9.4165C177.578 10.1138 177.888 11.0571 177.888 12.2466ZM172.18 12.2466C172.18 13.2036 172.371 13.9328 172.754 14.4341C173.137 14.9354 173.7 15.186 174.443 15.186C175.186 15.186 175.748 14.9377 176.131 14.4409C176.519 13.9396 176.712 13.2082 176.712 12.2466C176.712 11.2941 176.519 10.5718 176.131 10.0796C175.748 9.58285 175.181 9.33447 174.429 9.33447C173.686 9.33447 173.126 9.57829 172.747 10.0659C172.369 10.5535 172.18 11.2804 172.18 12.2466ZM183.23 16.1362C182.743 16.1362 182.296 16.0474 181.891 15.8696C181.49 15.6873 181.152 15.4093 180.879 15.0356H180.797C180.852 15.4731 180.879 15.8879 180.879 16.2798V19.3628H179.744V8.50732H180.667L180.824 9.53271H180.879C181.171 9.12256 181.51 8.82633 181.897 8.64404C182.285 8.46175 182.729 8.37061 183.23 8.37061C184.224 8.37061 184.99 8.71012 185.527 9.38916C186.07 10.0682 186.341 11.0207 186.341 12.2466C186.341 13.4771 186.065 14.4341 185.514 15.1177C184.967 15.7967 184.206 16.1362 183.23 16.1362ZM183.066 9.33447C182.301 9.33447 181.747 9.54639 181.405 9.97021C181.063 10.394 180.888 11.0685 180.879 11.9937V12.2466C180.879 13.2993 181.054 14.0535 181.405 14.5093C181.756 14.9604 182.319 15.186 183.094 15.186C183.741 15.186 184.247 14.924 184.611 14.3999C184.98 13.8758 185.165 13.1535 185.165 12.2329C185.165 11.2987 184.98 10.5832 184.611 10.0864C184.247 9.58512 183.732 9.33447 183.066 9.33447ZM191.355 16.1362C190.248 16.1362 189.373 15.799 188.73 15.1245C188.092 14.45 187.773 13.5135 187.773 12.3149C187.773 11.1073 188.069 10.1479 188.662 9.43701C189.259 8.72607 190.059 8.37061 191.061 8.37061C192 8.37061 192.743 8.6805 193.29 9.30029C193.837 9.91553 194.11 10.729 194.11 11.7407V12.4585L188.949 12.4585C188.972 13.3381 189.193 14.0057 189.612 14.4614C190.036 14.9172 190.631 15.145 191.396 15.145C192.203 15.145 193 14.9764 193.789 14.6392V15.6509C193.388 15.8241 193.007 15.9471 192.647 16.02C192.292 16.0975 191.861 16.1362 191.355 16.1362ZM191.048 9.3208C190.446 9.3208 189.965 9.51676 189.605 9.90869C189.25 10.3006 189.04 10.8429 188.976 11.5356H192.893C192.893 10.8201 192.734 10.2733 192.415 9.89502C192.096 9.51221 191.64 9.3208 191.048 9.3208ZM199.329 8.37061C199.662 8.37061 199.961 8.39795 200.225 8.45264L200.068 9.50537C199.758 9.43701 199.484 9.40283 199.247 9.40283C198.641 9.40283 198.122 9.64893 197.689 10.1411C197.26 10.6333 197.046 11.2463 197.046 11.98V15.9995H195.911V8.50732H196.848L196.978 9.89502H197.033C197.31 9.40739 197.645 9.03141 198.037 8.76709C198.429 8.50277 198.86 8.37061 199.329 8.37061ZM206.319 13.9556C206.319 14.6528 206.059 15.1906 205.54 15.5688C205.02 15.9471 204.291 16.1362 203.352 16.1362C202.359 16.1362 201.584 15.979 201.028 15.6646V14.6118C201.388 14.7941 201.773 14.9377 202.184 15.0425C202.598 15.1473 202.997 15.1997 203.38 15.1997C203.972 15.1997 204.428 15.1063 204.747 14.9194C205.066 14.728 205.226 14.4386 205.226 14.0513C205.226 13.7596 205.098 13.5112 204.843 13.3062C204.592 13.0965 204.1 12.8504 203.366 12.5679C202.669 12.3081 202.172 12.0825 201.876 11.8911C201.584 11.6951 201.365 11.4741 201.22 11.228C201.078 10.9819 201.008 10.688 201.008 10.3462C201.008 9.73551 201.256 9.25472 201.753 8.90381C202.25 8.54834 202.931 8.37061 203.797 8.37061C204.603 8.37061 205.392 8.53467 206.162 8.86279L205.759 9.78564C205.007 9.47575 204.325 9.3208 203.715 9.3208C203.177 9.3208 202.771 9.40511 202.498 9.57373C202.225 9.74235 202.088 9.97477 202.088 10.271C202.088 10.4715 202.138 10.6424 202.238 10.7837C202.343 10.925 202.509 11.0594 202.737 11.187C202.965 11.3146 203.403 11.4992 204.05 11.7407C204.938 12.0643 205.538 12.3901 205.848 12.7183C206.162 13.0464 206.319 13.4588 206.319 13.9556Z" fill="#727181"/>
<path d="M416.134 8.35742C416.134 8.99544 415.954 9.51725 415.593 9.92285C415.238 10.3285 414.732 10.5996 414.076 10.7363V10.791C414.878 10.8913 415.473 11.1465 415.86 11.5566C416.247 11.9668 416.441 12.5046 416.441 13.1699C416.441 14.1224 416.111 14.8561 415.45 15.3711C414.789 15.8815 413.85 16.1367 412.634 16.1367C412.105 16.1367 411.62 16.0957 411.177 16.0137C410.74 15.9362 410.314 15.7972 409.899 15.5967V14.5166C410.332 14.7308 410.792 14.8949 411.28 15.0088C411.772 15.1182 412.237 15.1729 412.675 15.1729C414.402 15.1729 415.265 14.4961 415.265 13.1426C415.265 11.9303 414.313 11.3242 412.408 11.3242H411.424V10.3467H412.422C413.201 10.3467 413.818 10.1758 414.274 9.83398C414.73 9.48763 414.958 9.00911 414.958 8.39844C414.958 7.91081 414.789 7.52799 414.452 7.25C414.119 6.97201 413.666 6.83301 413.092 6.83301C412.654 6.83301 412.242 6.89225 411.854 7.01074C411.467 7.12923 411.025 7.34798 410.528 7.66699L409.954 6.90137C410.364 6.5778 410.836 6.32487 411.369 6.14258C411.907 5.95573 412.472 5.8623 413.064 5.8623C414.035 5.8623 414.789 6.08561 415.327 6.53223C415.865 6.97428 416.134 7.58268 416.134 8.35742ZM424.005 8.35742C424.005 8.99544 423.825 9.51725 423.465 9.92285C423.11 10.3285 422.604 10.5996 421.948 10.7363V10.791C422.75 10.8913 423.344 11.1465 423.732 11.5566C424.119 11.9668 424.313 12.5046 424.313 13.1699C424.313 14.1224 423.982 14.8561 423.322 15.3711C422.661 15.8815 421.722 16.1367 420.505 16.1367C419.977 16.1367 419.491 16.0957 419.049 16.0137C418.612 15.9362 418.186 15.7972 417.771 15.5967V14.5166C418.204 14.7308 418.664 14.8949 419.152 15.0088C419.644 15.1182 420.109 15.1729 420.546 15.1729C422.273 15.1729 423.137 14.4961 423.137 13.1426C423.137 11.9303 422.185 11.3242 420.28 11.3242H419.295V10.3467H420.293C421.073 10.3467 421.69 10.1758 422.146 9.83398C422.602 9.48763 422.829 9.00911 422.829 8.39844C422.829 7.91081 422.661 7.52799 422.324 7.25C421.991 6.97201 421.537 6.83301 420.963 6.83301C420.526 6.83301 420.113 6.89225 419.726 7.01074C419.339 7.12923 418.897 7.34798 418.4 7.66699L417.826 6.90137C418.236 6.5778 418.707 6.32487 419.241 6.14258C419.778 5.95573 420.343 5.8623 420.936 5.8623C421.907 5.8623 422.661 6.08561 423.199 6.53223C423.736 6.97428 424.005 7.58268 424.005 8.35742Z" fill="#727181"/>
<rect y="258" width="270" height="7" rx="3.5" fill="url(#paint2_linear)"/>
<path d="M9.25586 248.604H8.14844L8.14844 246H1.20312L1.20312 248.604H0.0957031L0.0957031 244.947H0.868164C1.56999 243.766 2.16927 242.331 2.66602 240.64C3.16732 238.949 3.44531 237.404 3.5 236.005H7.99121L7.99121 244.947H9.25586L9.25586 248.604ZM6.8291 244.947L6.8291 237.051H4.55273C4.4707 238.154 4.19499 239.48 3.72559 241.03C3.25618 242.575 2.70931 243.88 2.08496 244.947H6.8291ZM14.1198 246.136C13.6321 246.136 13.1855 246.047 12.7799 245.87C12.3789 245.687 12.0416 245.409 11.7682 245.036H11.6862C11.7409 245.473 11.7682 245.888 11.7682 246.28L11.7682 249.363H10.6334L10.6334 238.507H11.5563L11.7135 239.533H11.7682C12.0599 239.123 12.3994 238.826 12.7868 238.644C13.1741 238.462 13.6185 238.371 14.1198 238.371C15.1133 238.371 15.8789 238.71 16.4166 239.389C16.959 240.068 17.2301 241.021 17.2301 242.247C17.2301 243.477 16.9544 244.434 16.403 245.118C15.8561 245.797 15.095 246.136 14.1198 246.136ZM13.9557 239.334C13.1901 239.334 12.6364 239.546 12.2946 239.97C11.9528 240.394 11.7773 241.069 11.7682 241.994V242.247C11.7682 243.299 11.9437 244.054 12.2946 244.509C12.6455 244.96 13.2083 245.186 13.983 245.186C14.6302 245.186 15.136 244.924 15.5006 244.4C15.8698 243.876 16.0543 243.153 16.0543 242.233C16.0543 241.299 15.8698 240.583 15.5006 240.086C15.136 239.585 14.6211 239.334 13.9557 239.334ZM17.8899 238.507H19.1067L20.7473 242.78C21.1074 243.755 21.3307 244.459 21.4173 244.892H21.472C21.5312 244.66 21.6542 244.263 21.8411 243.703C22.0325 243.138 22.6523 241.406 23.7005 238.507H24.9173L21.6975 247.039C21.3785 247.882 21.0048 248.479 20.5764 248.83C20.1526 249.185 19.6308 249.363 19.011 249.363C18.6647 249.363 18.3229 249.324 17.9856 249.247V248.337C18.2363 248.392 18.5165 248.419 18.8264 248.419C19.6057 248.419 20.1617 247.982 20.4944 247.107L20.9114 246.041L17.8899 238.507ZM30.5058 239.478H27.1288L27.1288 246H25.9941L25.9941 238.507H30.5058V239.478ZM32.9224 238.507V243.258L32.8746 244.502L32.8541 244.892L36.9078 238.507H38.3228V246H37.2632V241.419L37.2838 240.517L37.3179 239.628L33.2711 246H31.856L31.856 238.507H32.9224ZM43.7541 246.136C42.6467 246.136 41.7717 245.799 41.1291 245.125C40.4911 244.45 40.1721 243.514 40.1721 242.315C40.1721 241.107 40.4683 240.148 41.0607 239.437C41.6577 238.726 42.4576 238.371 43.4602 238.371C44.399 238.371 45.1418 238.681 45.6887 239.3C46.2355 239.916 46.509 240.729 46.509 241.741V242.458H41.3479C41.3706 243.338 41.5917 244.006 42.0109 244.461C42.4348 244.917 43.0295 245.145 43.7951 245.145C44.6018 245.145 45.3993 244.976 46.1877 244.639V245.651C45.7867 245.824 45.4061 245.947 45.0461 246.02C44.6906 246.097 44.26 246.136 43.7541 246.136ZM43.4465 239.321C42.8449 239.321 42.3641 239.517 42.0041 239.909C41.6486 240.301 41.439 240.843 41.3752 241.536H45.2922C45.2922 240.82 45.1327 240.273 44.8137 239.895C44.4947 239.512 44.0389 239.321 43.4465 239.321ZM57.8843 240.387C57.8843 240.875 57.743 241.246 57.4604 241.501C57.1824 241.752 56.7905 241.921 56.2846 242.007V242.069C56.9227 242.155 57.3875 242.342 57.6792 242.629C57.9754 242.917 58.1235 243.313 58.1235 243.819C58.1235 244.516 57.866 245.054 57.3511 245.432C56.8406 245.81 56.0932 246 55.1089 246H51.8071V238.507H55.0952C56.9546 238.507 57.8843 239.134 57.8843 240.387ZM56.9888 243.744C56.9888 243.338 56.8338 243.044 56.5239 242.862C56.2186 242.675 55.7104 242.582 54.9995 242.582H52.9419V245.049H55.0268C56.3348 245.049 56.9888 244.614 56.9888 243.744ZM56.7768 240.497C56.7768 240.132 56.6356 239.875 56.353 239.724C56.075 239.569 55.6512 239.492 55.0815 239.492H52.9419V241.604H54.8628C55.5646 241.604 56.0591 241.517 56.3462 241.344C56.6333 241.171 56.7768 240.889 56.7768 240.497ZM64.2452 246L64.0196 244.933H63.965C63.5913 245.403 63.2176 245.722 62.8439 245.89C62.4747 246.054 62.0122 246.136 61.4562 246.136C60.7133 246.136 60.13 245.945 59.7062 245.562C59.2869 245.179 59.0773 244.635 59.0773 243.928C59.0773 242.415 60.2872 241.622 62.7071 241.549L63.9786 241.508V241.043C63.9786 240.456 63.851 240.023 63.5958 239.745C63.3452 239.462 62.9419 239.321 62.3859 239.321C61.7615 239.321 61.0551 239.512 60.2667 239.895L59.9181 239.027C60.2872 238.826 60.6905 238.669 61.128 238.555C61.5701 238.441 62.0122 238.384 62.4542 238.384C63.3474 238.384 64.0083 238.583 64.4366 238.979C64.8696 239.375 65.0861 240.011 65.0861 240.886V246H64.2452ZM61.6818 245.2C62.3881 245.2 62.9419 245.006 63.3429 244.619C63.7485 244.231 63.9513 243.689 63.9513 242.992V242.315L62.8165 242.363C61.9142 242.395 61.2625 242.536 60.8614 242.787C60.465 243.033 60.2667 243.418 60.2667 243.942C60.2667 244.352 60.3898 244.664 60.6359 244.878C60.8865 245.093 61.2351 245.2 61.6818 245.2ZM71.6589 238.507H72.9031L69.6697 242.124L73.1697 246H71.8435L68.4255 242.206V246H67.2908V238.507H68.4255V242.151L71.6589 238.507ZM79.0316 246L78.8061 244.933H78.7514C78.3777 245.403 78.004 245.722 77.6303 245.89C77.2611 246.054 76.7986 246.136 76.2426 246.136C75.4997 246.136 74.9164 245.945 74.4926 245.562C74.0733 245.179 73.8637 244.635 73.8637 243.928C73.8637 242.415 75.0736 241.622 77.4936 241.549L78.765 241.508V241.043C78.765 240.456 78.6374 240.023 78.3822 239.745C78.1316 239.462 77.7283 239.321 77.1723 239.321C76.5479 239.321 75.8415 239.512 75.0531 239.895L74.7045 239.027C75.0736 238.826 75.477 238.669 75.9145 238.555C76.3565 238.441 76.7986 238.384 77.2406 238.384C78.1339 238.384 78.7947 238.583 79.223 238.979C79.656 239.375 79.8725 240.011 79.8725 240.886V246H79.0316ZM76.4682 245.2C77.1745 245.2 77.7283 245.006 78.1293 244.619C78.5349 244.231 78.7377 243.689 78.7377 242.992V242.315L77.6029 242.363C76.7006 242.395 76.0489 242.536 75.6479 242.787C75.2514 243.033 75.0531 243.418 75.0531 243.942C75.0531 244.352 75.1762 244.664 75.4223 244.878C75.6729 245.093 76.0215 245.2 76.4682 245.2ZM83.212 238.507V241.645H87.4092V238.507H88.544V246H87.4092V242.623H83.212V246H82.0772V238.507H83.212ZM93.8044 246.136C92.7197 246.136 91.8789 245.804 91.2819 245.138C90.6895 244.468 90.3932 243.523 90.3932 242.301C90.3932 241.048 90.694 240.08 91.2956 239.396C91.9017 238.712 92.763 238.371 93.8796 238.371C94.2396 238.371 94.5996 238.409 94.9596 238.487C95.3197 238.564 95.6022 238.655 95.8073 238.76L95.4587 239.724C95.208 239.624 94.9346 239.542 94.6384 239.478C94.3421 239.41 94.0801 239.375 93.8522 239.375C92.3301 239.375 91.569 240.346 91.569 242.288C91.569 243.208 91.7536 243.915 92.1227 244.407C92.4964 244.899 93.0479 245.145 93.777 245.145C94.4014 245.145 95.0417 245.011 95.6979 244.742V245.747C95.1966 246.006 94.5654 246.136 93.8044 246.136ZM98.4085 238.507V243.258L98.3607 244.502L98.3402 244.892L102.394 238.507H103.809V246H102.749V241.419L102.77 240.517L102.804 239.628L98.7571 246H97.3421V238.507H98.4085ZM107.142 238.507V243.258L107.094 244.502L107.073 244.892L111.127 238.507H112.542V246H111.482V241.419L111.503 240.517L111.537 239.628L107.49 246H106.075V238.507H107.142Z" fill="#727181"/>
<path d="M259.004 246H257.897V238.877C257.897 238.285 257.915 237.724 257.952 237.195C257.856 237.291 257.749 237.391 257.63 237.496C257.512 237.601 256.969 238.045 256.003 238.829L255.402 238.05L258.047 236.006H259.004V246ZM263.937 246L268.079 237.052H262.631V236.006H269.282V236.915L265.194 246H263.937Z" fill="#727181"/>
<rect y="120" width="167" height="7" rx="3.5" fill="url(#paint3_linear)"/>
<path d="M7.01367 105.34C7.01367 106.22 6.69466 106.906 6.05664 107.398C5.41862 107.89 4.55273 108.136 3.45898 108.136C2.27409 108.136 1.36263 107.984 0.724609 107.678L0.724609 106.557C1.13477 106.73 1.58138 106.867 2.06445 106.967C2.54753 107.068 3.02604 107.118 3.5 107.118C4.27474 107.118 4.85807 106.972 5.25 106.68C5.64193 106.384 5.83789 105.974 5.83789 105.45C5.83789 105.103 5.76725 104.821 5.62598 104.602C5.48926 104.379 5.25684 104.174 4.92871 103.987C4.60514 103.8 4.11068 103.588 3.44531 103.351C2.51562 103.018 1.85026 102.624 1.44922 102.168C1.05273 101.713 0.854492 101.118 0.854492 100.384C0.854492 99.6141 1.14388 99.0011 1.72266 98.5454C2.30143 98.0897 3.06706 97.8618 4.01953 97.8618C5.01302 97.8618 5.92676 98.0441 6.76074 98.4087L6.39844 99.4204C5.57357 99.0741 4.77148 98.9009 3.99219 98.9009C3.37695 98.9009 2.89616 99.033 2.5498 99.2974C2.20345 99.5617 2.03027 99.9285 2.03027 100.398C2.03027 100.744 2.09408 101.029 2.22168 101.252C2.34928 101.471 2.56348 101.674 2.86426 101.861C3.1696 102.043 3.63444 102.246 4.25879 102.469C5.30697 102.843 6.02702 103.244 6.41895 103.672C6.81543 104.101 7.01367 104.657 7.01367 105.34ZM11.9118 108.136C10.8043 108.136 9.92934 107.799 9.28676 107.125C8.64874 106.45 8.32973 105.514 8.32973 104.315C8.32973 103.107 8.62595 102.148 9.2184 101.437C9.8154 100.726 10.6152 100.371 11.6178 100.371C12.5566 100.371 13.2995 100.681 13.8463 101.3C14.3932 101.916 14.6666 102.729 14.6666 103.741V104.458H9.50551C9.52829 105.338 9.74932 106.006 10.1686 106.461C10.5924 106.917 11.1871 107.145 11.9528 107.145C12.7594 107.145 13.5569 106.976 14.3454 106.639V107.651C13.9443 107.824 13.5638 107.947 13.2038 108.02C12.8483 108.097 12.4176 108.136 11.9118 108.136ZM11.6041 101.321C11.0026 101.321 10.5218 101.517 10.1618 101.909C9.80629 102.301 9.59665 102.843 9.53285 103.536H13.4498C13.4498 102.82 13.2903 102.273 12.9713 101.895C12.6523 101.512 12.1966 101.321 11.6041 101.321ZM21.595 108V103.153C21.595 102.542 21.456 102.086 21.178 101.786C20.9 101.485 20.4648 101.334 19.8723 101.334C19.0885 101.334 18.5143 101.546 18.1497 101.97C17.7851 102.394 17.6028 103.094 17.6028 104.069V108H16.468L16.468 100.507H17.3909L17.5755 101.533H17.6302C17.8626 101.164 18.1884 100.879 18.6077 100.678C19.027 100.473 19.4941 100.371 20.0091 100.371C20.9114 100.371 21.5904 100.589 22.0462 101.027C22.5019 101.46 22.7298 102.155 22.7298 103.112V108H21.595ZM26.0624 108H24.9277L24.9277 100.507H26.0624L26.0624 108ZM24.832 98.4771C24.832 98.2173 24.8958 98.0282 25.0234 97.9097C25.151 97.7866 25.3105 97.7251 25.5019 97.7251C25.6842 97.7251 25.8414 97.7866 25.9736 97.9097C26.1057 98.0327 26.1718 98.2218 26.1718 98.4771C26.1718 98.7323 26.1057 98.9237 25.9736 99.0513C25.8414 99.1743 25.6842 99.2358 25.5019 99.2358C25.3105 99.2358 25.151 99.1743 25.0234 99.0513C24.8958 98.9237 24.832 98.7323 24.832 98.4771ZM34.7955 104.247C34.7955 105.468 34.4879 106.423 33.8726 107.111C33.2574 107.794 32.4074 108.136 31.3228 108.136C30.6529 108.136 30.0582 107.979 29.5386 107.665C29.0191 107.35 28.6181 106.899 28.3355 106.311C28.053 105.723 27.9117 105.035 27.9117 104.247C27.9117 103.025 28.217 102.075 28.8277 101.396C29.4384 100.712 30.286 100.371 31.3707 100.371C32.4188 100.371 33.2505 100.719 33.8658 101.417C34.4856 102.114 34.7955 103.057 34.7955 104.247ZM29.0875 104.247C29.0875 105.204 29.2789 105.933 29.6617 106.434C30.0445 106.935 30.6073 107.186 31.3502 107.186C32.093 107.186 32.6558 106.938 33.0386 106.441C33.426 105.94 33.6197 105.208 33.6197 104.247C33.6197 103.294 33.426 102.572 33.0386 102.08C32.6558 101.583 32.0884 101.334 31.3365 101.334C30.5936 101.334 30.0331 101.578 29.6548 102.066C29.2766 102.554 29.0875 103.28 29.0875 104.247ZM40.0695 100.371C40.4022 100.371 40.7007 100.398 40.965 100.453L40.8078 101.505C40.4979 101.437 40.2245 101.403 39.9875 101.403C39.3814 101.403 38.8618 101.649 38.4289 102.141C38.0005 102.633 37.7863 103.246 37.7863 103.98V108H36.6516V100.507H37.5881L37.718 101.895H37.7727C38.0507 101.407 38.3856 101.031 38.7775 100.767C39.1695 100.503 39.6001 100.371 40.0695 100.371ZM54.5688 102.989C54.5688 104.269 54.3113 105.333 53.7964 106.181C53.2814 107.029 52.5545 107.603 51.6157 107.904L53.9946 110.378H52.3061L50.3579 108.123L49.9819 108.136C48.5099 108.136 47.3729 107.687 46.5708 106.79C45.7733 105.887 45.3745 104.616 45.3745 102.975C45.3745 101.348 45.7755 100.088 46.5776 99.1948C47.3797 98.297 48.519 97.8481 49.9956 97.8481C51.4311 97.8481 52.5522 98.3039 53.3589 99.2153C54.1655 100.127 54.5688 101.385 54.5688 102.989ZM46.605 102.989C46.605 104.342 46.8921 105.37 47.4663 106.072C48.0451 106.769 48.8836 107.118 49.9819 107.118C51.0893 107.118 51.9256 106.769 52.4907 106.072C53.0558 105.375 53.3384 104.347 53.3384 102.989C53.3384 101.644 53.0558 100.626 52.4907 99.9331C51.9302 99.2358 51.0985 98.8872 49.9956 98.8872C48.8882 98.8872 48.0451 99.2381 47.4663 99.9399C46.8921 100.637 46.605 101.653 46.605 102.989ZM62.9464 108L61.7023 104.821H57.6964L56.4659 108H55.2902L59.2413 97.9644H60.2189L64.1495 108H62.9464ZM61.34 103.775L60.1779 100.678C60.0275 100.286 59.8725 99.8055 59.713 99.2358C59.6127 99.6733 59.4692 100.154 59.2823 100.678L58.1066 103.775H61.34Z" fill="#727181"/>
<path d="M162.954 97.8618C163.866 97.8618 164.588 98.0737 165.121 98.4976C165.654 98.9214 165.921 99.507 165.921 100.254C165.921 100.747 165.768 101.195 165.463 101.601C165.158 102.007 164.67 102.376 164 102.708C164.811 103.096 165.388 103.504 165.729 103.932C166.071 104.356 166.242 104.848 166.242 105.409C166.242 106.238 165.953 106.901 165.374 107.398C164.795 107.89 164.002 108.136 162.995 108.136C161.929 108.136 161.108 107.904 160.534 107.439C159.96 106.97 159.673 106.306 159.673 105.45C159.673 104.306 160.37 103.415 161.765 102.777C161.136 102.421 160.685 102.039 160.411 101.628C160.138 101.214 160.001 100.751 160.001 100.241C160.001 99.5161 160.268 98.9396 160.801 98.5112C161.339 98.0783 162.056 97.8618 162.954 97.8618ZM160.794 105.477C160.794 106.024 160.983 106.45 161.361 106.755C161.744 107.061 162.28 107.213 162.968 107.213C163.647 107.213 164.175 107.054 164.554 106.735C164.932 106.416 165.121 105.978 165.121 105.422C165.121 104.98 164.943 104.588 164.588 104.247C164.232 103.9 163.613 103.565 162.729 103.242C162.049 103.533 161.557 103.857 161.252 104.212C160.947 104.563 160.794 104.985 160.794 105.477ZM162.94 98.7847C162.371 98.7847 161.924 98.9214 161.601 99.1948C161.277 99.4683 161.115 99.8328 161.115 100.289C161.115 100.708 161.25 101.068 161.519 101.369C161.787 101.669 162.284 101.97 163.009 102.271C163.66 101.998 164.121 101.704 164.39 101.389C164.663 101.075 164.8 100.708 164.8 100.289C164.8 99.8283 164.633 99.4637 164.301 99.1948C163.973 98.9214 163.519 98.7847 162.94 98.7847Z" fill="#727181"/>
<rect y="166" width="140" height="7" rx="3.5" fill="url(#paint4_linear)"/>
<path d="M9.35156 148.907C9.35156 150.556 8.90267 151.819 8.00488 152.694C7.11165 153.564 5.82422 154 4.14258 154H1.37402L1.37402 144.005H4.43652C5.99056 144.005 7.19824 144.436 8.05957 145.297C8.9209 146.159 9.35156 147.362 9.35156 148.907ZM8.12109 148.948C8.12109 147.644 7.79297 146.662 7.13672 146.001C6.48503 145.341 5.51432 145.01 4.22461 145.01H2.53613L2.53613 152.995H3.95117C5.33659 152.995 6.37793 152.655 7.0752 151.976C7.77246 151.292 8.12109 150.283 8.12109 148.948ZM14.4411 154.136C13.3336 154.136 12.4586 153.799 11.8161 153.125C11.178 152.45 10.859 151.514 10.859 150.315C10.859 149.107 11.1552 148.148 11.7477 147.437C12.3447 146.726 13.1445 146.371 14.1471 146.371C15.0859 146.371 15.8287 146.681 16.3756 147.3C16.9225 147.916 17.1959 148.729 17.1959 149.741V150.458H12.0348C12.0576 151.338 12.2786 152.006 12.6979 152.461C13.1217 152.917 13.7164 153.145 14.4821 153.145C15.2887 153.145 16.0862 152.976 16.8746 152.639V153.651C16.4736 153.824 16.0931 153.947 15.733 154.02C15.3776 154.097 14.9469 154.136 14.4411 154.136ZM14.1334 147.321C13.5319 147.321 13.0511 147.517 12.6911 147.909C12.3356 148.301 12.126 148.843 12.0621 149.536H15.9791C15.9791 148.82 15.8196 148.273 15.5006 147.895C15.1816 147.512 14.7259 147.321 14.1334 147.321ZM20.638 154L17.7942 146.507H19.011L20.6243 150.951C20.9889 151.99 21.2031 152.664 21.2669 152.974H21.3216C21.3717 152.733 21.5289 152.234 21.7932 151.477C22.0621 150.716 22.6614 149.059 23.5911 146.507H24.8079L21.9641 154H20.638ZM34.7167 148.989C34.7167 150.588 34.3111 151.846 33.4999 152.762C32.6933 153.678 31.5699 154.136 30.1298 154.136C28.6578 154.136 27.5208 153.687 26.7187 152.79C25.9211 151.887 25.5224 150.616 25.5224 148.975C25.5224 147.348 25.9234 146.088 26.7255 145.195C27.5276 144.297 28.6669 143.848 30.1435 143.848C31.579 143.848 32.7001 144.304 33.5068 145.215C34.3134 146.127 34.7167 147.385 34.7167 148.989ZM26.7529 148.989C26.7529 150.342 27.04 151.37 27.6142 152.072C28.193 152.769 29.0315 153.118 30.1298 153.118C31.2372 153.118 32.0735 152.769 32.6386 152.072C33.2037 151.375 33.4862 150.347 33.4862 148.989C33.4862 147.644 33.2037 146.626 32.6386 145.933C32.078 145.236 31.2463 144.887 30.1435 144.887C29.0361 144.887 28.193 145.238 27.6142 145.94C27.04 146.637 26.7529 147.653 26.7529 148.989ZM40.1275 154.136C39.6399 154.136 39.1933 154.047 38.7877 153.87C38.3866 153.687 38.0494 153.409 37.7759 153.036H37.6939C37.7486 153.473 37.7759 153.888 37.7759 154.28V157.363H36.6412V146.507H37.564L37.7212 147.533H37.7759C38.0676 147.123 38.4071 146.826 38.7945 146.644C39.1819 146.462 39.6262 146.371 40.1275 146.371C41.121 146.371 41.8866 146.71 42.4244 147.389C42.9667 148.068 43.2379 149.021 43.2379 150.247C43.2379 151.477 42.9621 152.434 42.4107 153.118C41.8638 153.797 41.1028 154.136 40.1275 154.136ZM39.9634 147.334C39.1978 147.334 38.6441 147.546 38.3023 147.97C37.9605 148.394 37.7851 149.069 37.7759 149.994V150.247C37.7759 151.299 37.9514 152.054 38.3023 152.509C38.6532 152.96 39.216 153.186 39.9908 153.186C40.6379 153.186 41.1438 152.924 41.5084 152.4C41.8775 151.876 42.0621 151.153 42.0621 150.233C42.0621 149.299 41.8775 148.583 41.5084 148.086C41.1438 147.585 40.6288 147.334 39.9634 147.334ZM49.9201 151.956C49.9201 152.653 49.6604 153.191 49.1408 153.569C48.6213 153.947 47.8921 154.136 46.9533 154.136C45.9598 154.136 45.1851 153.979 44.6291 153.665V152.612C44.9891 152.794 45.3742 152.938 45.7844 153.042C46.1991 153.147 46.5979 153.2 46.9807 153.2C47.5731 153.2 48.0288 153.106 48.3479 152.919C48.6669 152.728 48.8264 152.439 48.8264 152.051C48.8264 151.76 48.6988 151.511 48.4436 151.306C48.1929 151.097 47.7007 150.85 46.967 150.568C46.2697 150.308 45.773 150.083 45.4768 149.891C45.1851 149.695 44.9663 149.474 44.8205 149.228C44.6792 148.982 44.6086 148.688 44.6086 148.346C44.6086 147.736 44.857 147.255 45.3537 146.904C45.8505 146.548 46.5318 146.371 47.3977 146.371C48.2043 146.371 48.9927 146.535 49.7629 146.863L49.3596 147.786C48.6076 147.476 47.9263 147.321 47.3156 147.321C46.7779 147.321 46.3723 147.405 46.0988 147.574C45.8254 147.742 45.6887 147.975 45.6887 148.271C45.6887 148.472 45.7388 148.642 45.8391 148.784C45.9439 148.925 46.1102 149.059 46.3381 149.187C46.5659 149.315 47.0034 149.499 47.6506 149.741C48.5393 150.064 49.1385 150.39 49.4484 150.718C49.7629 151.046 49.9201 151.459 49.9201 151.956Z" fill="#727181"/>
<path d="M132.788 149.727C132.788 147.763 133.169 146.295 133.93 145.325C134.695 144.349 135.826 143.862 137.32 143.862C137.835 143.862 138.241 143.905 138.537 143.992V144.969C138.186 144.855 137.785 144.798 137.334 144.798C136.263 144.798 135.445 145.133 134.88 145.803C134.315 146.469 134.005 147.517 133.95 148.948H134.032C134.534 148.164 135.326 147.772 136.411 147.772C137.309 147.772 138.015 148.043 138.53 148.585C139.05 149.128 139.31 149.864 139.31 150.793C139.31 151.833 139.025 152.651 138.455 153.248C137.89 153.84 137.124 154.136 136.158 154.136C135.124 154.136 134.303 153.749 133.697 152.974C133.091 152.195 132.788 151.112 132.788 149.727ZM136.145 153.172C136.792 153.172 137.293 152.97 137.648 152.564C138.008 152.154 138.188 151.564 138.188 150.793C138.188 150.133 138.022 149.613 137.689 149.235C137.357 148.857 136.86 148.667 136.199 148.667C135.789 148.667 135.413 148.752 135.071 148.92C134.729 149.089 134.456 149.321 134.251 149.618C134.05 149.914 133.95 150.222 133.95 150.541C133.95 151.01 134.041 151.447 134.224 151.853C134.406 152.259 134.663 152.58 134.996 152.817C135.333 153.054 135.716 153.172 136.145 153.172Z" fill="#727181"/>
<rect y="212" width="140" height="7" rx="3.5" fill="url(#paint5_linear)"/>
<path d="M4.4502 200H3.28809L3.28809 191.038H0.123047L0.123047 190.005H7.61523V191.038H4.4502L4.4502 200ZM11.9801 200.136C10.8727 200.136 9.9977 199.799 9.35512 199.125C8.7171 198.45 8.39809 197.514 8.39809 196.315C8.39809 195.107 8.69431 194.148 9.28676 193.437C9.88376 192.726 10.6836 192.371 11.6862 192.371C12.625 192.371 13.3678 192.681 13.9147 193.3C14.4616 193.916 14.735 194.729 14.735 195.741V196.458H9.57387C9.59665 197.338 9.81768 198.006 10.237 198.461C10.6608 198.917 11.2555 199.145 12.0211 199.145C12.8278 199.145 13.6253 198.976 14.4137 198.639V199.651C14.0127 199.824 13.6321 199.947 13.2721 200.02C12.9166 200.097 12.486 200.136 11.9801 200.136ZM11.6725 193.321C11.0709 193.321 10.5901 193.517 10.2301 193.909C9.87465 194.301 9.66501 194.843 9.60121 195.536H13.5182C13.5182 194.82 13.3587 194.273 13.0397 193.895C12.7207 193.512 12.2649 193.321 11.6725 193.321ZM21.1438 200L20.9182 198.933H20.8636C20.4899 199.403 20.1162 199.722 19.7425 199.89C19.3733 200.054 18.9108 200.136 18.3548 200.136C17.6119 200.136 17.0286 199.945 16.6048 199.562C16.1855 199.179 15.9759 198.635 15.9759 197.928C15.9759 196.415 17.1858 195.622 19.6057 195.549L20.8772 195.508L20.8772 195.043C20.8772 194.456 20.7496 194.023 20.4944 193.745C20.2438 193.462 19.8404 193.321 19.2845 193.321C18.6601 193.321 17.9537 193.512 17.1653 193.895L16.8167 193.027C17.1858 192.826 17.5891 192.669 18.0266 192.555C18.4687 192.441 18.9108 192.384 19.3528 192.384C20.246 192.384 20.9068 192.583 21.3352 192.979C21.7682 193.375 21.9846 194.011 21.9846 194.886L21.9846 200H21.1438ZM18.5804 199.2C19.2867 199.2 19.8404 199.006 20.2415 198.619C20.6471 198.231 20.8499 197.689 20.8499 196.992V196.315L19.7151 196.363C18.8128 196.395 18.1611 196.536 17.76 196.787C17.3636 197.033 17.1653 197.418 17.1653 197.942C17.1653 198.352 17.2884 198.664 17.5345 198.878C17.7851 199.093 18.1337 199.2 18.5804 199.2ZM33.7392 200V195.125C33.7392 194.528 33.6116 194.082 33.3564 193.786C33.1012 193.485 32.7047 193.334 32.1669 193.334C31.4605 193.334 30.9387 193.537 30.6015 193.943C30.2642 194.348 30.0956 194.973 30.0956 195.816V200H28.9609V195.125C28.9609 194.528 28.8333 194.082 28.578 193.786C28.3228 193.485 27.9241 193.334 27.3818 193.334C26.6708 193.334 26.149 193.549 25.8163 193.977C25.4882 194.401 25.3241 195.098 25.3241 196.069V200H24.1894L24.1894 192.507H25.1122L25.2968 193.533H25.3515C25.5657 193.168 25.8665 192.883 26.2538 192.678C26.6458 192.473 27.0833 192.371 27.5663 192.371C28.7376 192.371 29.5032 192.794 29.8632 193.642H29.9179C30.1412 193.25 30.4648 192.94 30.8886 192.712C31.3124 192.485 31.7955 192.371 32.3378 192.371C33.1855 192.371 33.8189 192.589 34.2382 193.027C34.662 193.46 34.8739 194.155 34.8739 195.112V200H33.7392ZM40.7463 200V190.005H41.9084V198.947H46.3176V200H40.7463ZM50.8739 200.136C49.7664 200.136 48.8914 199.799 48.2489 199.125C47.6108 198.45 47.2918 197.514 47.2918 196.315C47.2918 195.107 47.5881 194.148 48.1805 193.437C48.7775 192.726 49.5773 192.371 50.5799 192.371C51.5187 192.371 52.2616 192.681 52.8084 193.3C53.3553 193.916 53.6287 194.729 53.6287 195.741V196.458H48.4676C48.4904 197.338 48.7114 198.006 49.1307 198.461C49.5545 198.917 50.1493 199.145 50.9149 199.145C51.7215 199.145 52.519 198.976 53.3075 198.639V199.651C52.9064 199.824 52.5259 199.947 52.1659 200.02C51.8104 200.097 51.3797 200.136 50.8739 200.136ZM50.5662 193.321C49.9647 193.321 49.4839 193.517 49.1239 193.909C48.7684 194.301 48.5588 194.843 48.495 195.536H52.412C52.412 194.82 52.2524 194.273 51.9334 193.895C51.6144 193.512 51.1587 193.321 50.5662 193.321ZM60.0376 200L59.812 198.933H59.7573C59.3836 199.403 59.0099 199.722 58.6362 199.89C58.2671 200.054 57.8045 200.136 57.2485 200.136C56.5057 200.136 55.9223 199.945 55.4985 199.562C55.0792 199.179 54.8696 198.635 54.8696 197.928C54.8696 196.415 56.0796 195.622 58.4995 195.549L59.771 195.508V195.043C59.771 194.456 59.6434 194.023 59.3882 193.745C59.1375 193.462 58.7342 193.321 58.1782 193.321C57.5539 193.321 56.8475 193.512 56.0591 193.895L55.7104 193.027C56.0796 192.826 56.4829 192.669 56.9204 192.555C57.3624 192.441 57.8045 192.384 58.2466 192.384C59.1398 192.384 59.8006 192.583 60.229 192.979C60.6619 193.375 60.8784 194.011 60.8784 194.886V200H60.0376ZM57.4741 199.2C58.1805 199.2 58.7342 199.006 59.1352 198.619C59.5408 198.231 59.7436 197.689 59.7436 196.992V196.315L58.6089 196.363C57.7065 196.395 57.0548 196.536 56.6538 196.787C56.2573 197.033 56.0591 197.418 56.0591 197.942C56.0591 198.352 56.1821 198.664 56.4282 198.878C56.6789 199.093 57.0275 199.2 57.4741 199.2ZM68.1827 198.995H68.1212C67.5971 199.756 66.8133 200.136 65.7696 200.136C64.7898 200.136 64.0265 199.801 63.4796 199.131C62.9373 198.461 62.6661 197.509 62.6661 196.274C62.6661 195.039 62.9396 194.08 63.4864 193.396C64.0333 192.712 64.7944 192.371 65.7696 192.371C66.7859 192.371 67.5652 192.74 68.1075 193.478H68.1964L68.1486 192.938L68.1212 192.412V189.363H69.256V200H68.3331L68.1827 198.995ZM65.9132 199.186C66.6879 199.186 67.2485 198.976 67.5948 198.557C67.9458 198.133 68.1212 197.452 68.1212 196.513V196.274C68.1212 195.212 67.9435 194.456 67.588 194.004C67.2371 193.549 66.6743 193.321 65.8995 193.321C65.2342 193.321 64.7238 193.581 64.3683 194.1C64.0174 194.615 63.8419 195.344 63.8419 196.288C63.8419 197.245 64.0174 197.967 64.3683 198.455C64.7192 198.942 65.2342 199.186 65.9132 199.186ZM72.7185 198.373L72.8211 198.53C72.7026 198.986 72.5317 199.514 72.3084 200.116C72.085 200.722 71.8526 201.285 71.6111 201.804H70.7566C70.8796 201.33 71.0141 200.745 71.1599 200.047C71.3103 199.35 71.4151 198.792 71.4744 198.373H72.7185ZM82.7676 190.901C81.6693 190.901 80.8011 191.268 80.1631 192.001C79.5297 192.731 79.2129 193.731 79.2129 195.002C79.2129 196.31 79.5183 197.322 80.1289 198.038C80.7442 198.749 81.6192 199.104 82.7539 199.104C83.4512 199.104 84.2465 198.979 85.1397 198.728V199.747C84.447 200.006 83.5925 200.136 82.5762 200.136C81.1042 200.136 79.9672 199.69 79.1651 198.796C78.3676 197.903 77.9688 196.634 77.9688 194.989C77.9688 193.959 78.1602 193.056 78.543 192.282C78.9304 191.507 79.4864 190.91 80.211 190.491C80.9401 190.071 81.7969 189.862 82.7813 189.862C83.8295 189.862 84.7455 190.053 85.5293 190.436L85.0371 191.434C84.2806 191.079 83.5241 190.901 82.7676 190.901ZM90.2565 200H89.0944V191.038H85.9294V190.005L93.4216 190.005V191.038L90.2565 191.038V200ZM103.467 194.989C103.467 196.588 103.062 197.846 102.25 198.762C101.444 199.678 100.32 200.136 98.8802 200.136C97.4082 200.136 96.2711 199.687 95.4691 198.79C94.6715 197.887 94.2728 196.616 94.2728 194.975C94.2728 193.348 94.6738 192.088 95.4759 191.195C96.278 190.297 97.4173 189.848 98.8939 189.848C100.329 189.848 101.451 190.304 102.257 191.215C103.064 192.127 103.467 193.385 103.467 194.989ZM95.5032 194.989C95.5032 196.342 95.7904 197.37 96.3646 198.072C96.9433 198.769 97.7819 199.118 98.8802 199.118C99.9876 199.118 100.824 198.769 101.389 198.072C101.954 197.375 102.237 196.347 102.237 194.989C102.237 193.644 101.954 192.626 101.389 191.933C100.828 191.236 99.9967 190.887 98.8939 190.887C97.7864 190.887 96.9433 191.238 96.3646 191.94C95.7904 192.637 95.5032 193.653 95.5032 194.989Z" fill="#727181"/>
<path d="M132.788 195.727C132.788 193.763 133.169 192.295 133.93 191.325C134.695 190.349 135.826 189.862 137.32 189.862C137.835 189.862 138.241 189.905 138.537 189.992V190.969C138.186 190.855 137.785 190.798 137.334 190.798C136.263 190.798 135.445 191.133 134.88 191.803C134.315 192.469 134.005 193.517 133.95 194.948H134.032C134.534 194.164 135.326 193.772 136.411 193.772C137.309 193.772 138.015 194.043 138.53 194.585C139.05 195.128 139.31 195.864 139.31 196.793C139.31 197.833 139.025 198.651 138.455 199.248C137.89 199.84 137.124 200.136 136.158 200.136C135.124 200.136 134.303 199.749 133.697 198.974C133.091 198.195 132.788 197.112 132.788 195.727ZM136.145 199.172C136.792 199.172 137.293 198.97 137.648 198.564C138.008 198.154 138.188 197.564 138.188 196.793C138.188 196.133 138.022 195.613 137.689 195.235C137.357 194.857 136.86 194.667 136.199 194.667C135.789 194.667 135.413 194.752 135.071 194.92C134.729 195.089 134.456 195.321 134.251 195.618C134.05 195.914 133.95 196.222 133.95 196.541C133.95 197.01 134.041 197.447 134.224 197.853C134.406 198.259 134.663 198.58 134.996 198.817C135.333 199.054 135.716 199.172 136.145 199.172Z" fill="#727181"/>
<defs>
<linearGradient id="paint0_linear" x1="-1.46808e-06" y1="77.3995" x2="370.479" y2="79.5432" gradientUnits="userSpaceOnUse">
<stop stop-color="#1999E8"/>
<stop offset="1" stop-color="#FF5058"/>
</linearGradient>
<linearGradient id="paint1_linear" x1="-2.01269e-06" y1="31.3995" x2="507.9" y2="35.4287" gradientUnits="userSpaceOnUse">
<stop stop-color="#1999E8"/>
<stop offset="1" stop-color="#FF5058"/>
</linearGradient>
<linearGradient id="paint2_linear" x1="-1.27865e-06" y1="261.4" x2="322.678" y2="263.026" gradientUnits="userSpaceOnUse">
<stop stop-color="#1999E8"/>
<stop offset="1" stop-color="#FF5058"/>
</linearGradient>
<linearGradient id="paint3_linear" x1="-7.90868e-07" y1="123.4" x2="199.585" y2="124.022" gradientUnits="userSpaceOnUse">
<stop stop-color="#1999E8"/>
<stop offset="1" stop-color="#FF5058"/>
</linearGradient>
<linearGradient id="paint4_linear" x1="-6.63003e-07" y1="169.4" x2="167.317" y2="169.837" gradientUnits="userSpaceOnUse">
<stop stop-color="#1999E8"/>
<stop offset="1" stop-color="#FF5058"/>
</linearGradient>
<linearGradient id="paint5_linear" x1="-6.63003e-07" y1="215.4" x2="167.317" y2="215.837" gradientUnits="userSpaceOnUse">
<stop stop-color="#1999E8"/>
<stop offset="1" stop-color="#FF5058"/>
</linearGradient>
</defs>
</svg>
