<svg width="39" height="26" viewBox="0 0 39 26" fill="none" xmlns="http://www.w3.org/2000/svg">
<path fill-rule="evenodd" clip-rule="evenodd" d="M29.7519 8.84812C34.3719 8.84812 38.1099 12.5921 38.1099 17.1681C38.1099 21.7441 34.3299 25.4881 29.7099 25.4881C25.0899 25.4881 21.3099 21.7441 21.3099 17.1681C21.3099 7.97452 28.8279 0.528122 38.1099 0.528122C38.1099 0.528122 32.6079 2.56652 29.7519 8.84812ZM17.1099 17.1681C17.1099 21.7441 13.3299 25.4881 8.70994 25.4881C4.08994 25.4881 0.309937 21.7441 0.309937 17.1681C0.309937 7.97452 7.82794 0.528122 17.1099 0.528122C17.1099 0.528122 11.6079 2.56652 8.75194 8.84812C13.3719 8.84812 17.1099 12.5921 17.1099 17.1681Z" fill="#D6D6DA"/>
</svg>
