<svg width="127" height="85" viewBox="0 0 127 85" fill="none" xmlns="http://www.w3.org/2000/svg">
<path fill-rule="evenodd" clip-rule="evenodd" d="M70.8097 1.01261C70.7609 1.06162 70.7209 1.1984 70.7209 1.31667C70.7209 1.47571 70.5749 1.55373 70.1606 1.61611C69.7181 1.68275 69.6003 1.75139 69.6003 1.94281C69.6003 2.15036 69.5108 2.18524 68.9778 2.18524C68.4013 2.18524 68.3553 2.20774 68.3553 2.48955C68.3553 2.72848 68.2818 2.80225 68.0129 2.83338C67.7677 2.86164 67.6592 2.95278 67.6306 3.1542C67.5963 3.39763 67.5166 3.43551 67.0392 3.43551C66.5339 3.43551 66.4877 3.46176 66.4877 3.74808C66.4877 4.03976 66.4462 4.06064 65.8651 4.06064C65.2841 4.06064 65.2426 4.08152 65.2426 4.37321C65.2426 4.6649 65.2011 4.68578 64.6201 4.68578C64.039 4.68578 63.9975 4.70666 63.9975 4.99835C63.9975 5.2484 63.9353 5.31091 63.6863 5.31091C63.4373 5.31091 63.375 5.37343 63.375 5.62348C63.375 5.91517 63.3335 5.93605 62.7525 5.93605C62.1714 5.93605 62.1299 5.95693 62.1299 6.24862C62.1299 6.54031 62.0885 6.56119 61.5074 6.56119C60.9263 6.56119 60.8849 6.58207 60.8849 6.87375C60.8849 7.16082 60.8392 7.18632 60.3246 7.18632C59.81 7.18632 59.7643 7.21183 59.7643 7.49889C59.7643 7.76282 59.7062 7.81146 59.3908 7.81146C59.1024 7.81146 59.0173 7.86747 59.0173 8.05726C59.0173 8.25768 58.9026 8.31819 58.3947 8.38583C57.8459 8.45897 57.7722 8.50398 57.7722 8.76529C57.7722 9.0326 57.718 9.06173 57.2206 9.06173C56.7433 9.06173 56.6636 9.09961 56.6292 9.34304C56.5942 9.58997 56.5056 9.62923 55.9046 9.66411C54.8157 9.7275 54.1615 9.59234 54.1615 9.30416C54.1615 9.11812 54.0746 9.06173 53.788 9.06173C53.4726 9.06173 53.4144 9.01309 53.4144 8.74916C53.4144 8.4621 53.3688 8.43659 52.8542 8.43659C52.3396 8.43659 52.2939 8.41109 52.2939 8.12402C52.2939 7.83234 52.2524 7.81146 51.6714 7.81146C51.0903 7.81146 51.0488 7.79058 51.0488 7.49889C51.0488 7.23496 50.9907 7.18632 50.6753 7.18632C50.3599 7.18632 50.3018 7.13769 50.3018 6.87375C50.3018 6.58669 50.2561 6.56119 49.7415 6.56119C49.2269 6.56119 49.1812 6.53568 49.1812 6.24862C49.1812 5.95693 49.1398 5.93605 48.5587 5.93605H47.9361V6.56119C47.9361 7.14469 47.9154 7.18632 47.6249 7.18632C47.3759 7.18632 47.3136 7.24884 47.3136 7.49889C47.3136 7.7852 47.3598 7.81146 47.8652 7.81146C48.3425 7.81146 48.4222 7.84934 48.4566 8.09277C48.4851 8.29419 48.5937 8.38533 48.8388 8.41359C49.074 8.44084 49.1812 8.52524 49.1812 8.68327C49.1812 8.86444 49.3133 8.93145 49.8037 8.99922C50.2985 9.06761 50.4263 9.13324 50.4263 9.31916C50.4263 9.50558 50.5529 9.57009 51.0488 9.6361C51.5976 9.70924 51.6714 9.75425 51.6714 10.0156C51.6714 10.2829 51.7255 10.312 52.2229 10.312C52.7003 10.312 52.78 10.3499 52.8143 10.5933C52.8428 10.7947 52.9514 10.8859 53.1966 10.9141C53.4318 10.9414 53.539 11.0258 53.539 11.1838C53.539 11.365 53.6711 11.432 54.1615 11.4998C54.6426 11.5661 54.784 11.6362 54.784 11.8077C54.784 12.069 55.4132 12.2112 56.0846 12.1018C56.3997 12.0504 56.5239 11.9611 56.5515 11.7658C56.5779 11.5805 56.6933 11.4878 56.9318 11.4602C57.1737 11.4322 57.2742 11.3497 57.2742 11.1789C57.2742 10.9758 57.3636 10.9371 57.8344 10.9371C58.3433 10.9371 58.3947 10.9095 58.3947 10.6363C58.3947 10.3701 58.4664 10.3255 59.0173 10.2495C59.5038 10.1823 59.6398 10.114 59.6398 9.93692C59.6398 9.75988 59.7758 9.69149 60.2623 9.62435C60.7617 9.55534 60.8849 9.4912 60.8849 9.30003C60.8849 9.12924 60.973 9.06173 61.1961 9.06173C61.4451 9.06173 61.5074 8.99922 61.5074 8.74916C61.5074 8.45747 61.5489 8.43659 62.1299 8.43659C62.711 8.43659 62.7525 8.41571 62.7525 8.12402C62.7525 7.83234 62.7939 7.81146 63.375 7.81146C63.9561 7.81146 63.9975 7.79058 63.9975 7.49889C63.9975 7.24884 64.0598 7.18632 64.3088 7.18632C64.5578 7.18632 64.6201 7.12381 64.6201 6.87375C64.6201 6.58207 64.6615 6.56119 65.2426 6.56119C65.8237 6.56119 65.8651 6.54031 65.8651 6.24862C65.8651 5.95693 65.9066 5.93605 66.4877 5.93605C67.0687 5.93605 67.1102 5.91517 67.1102 5.62348C67.1102 5.33642 67.1559 5.31091 67.6705 5.31091C68.1851 5.31091 68.2308 5.28541 68.2308 4.99835C68.2308 4.73442 68.2889 4.68578 68.6043 4.68578C68.8926 4.68578 68.9778 4.62977 68.9778 4.43998C68.9778 4.23956 69.0925 4.17905 69.6003 4.11141C70.1492 4.03827 70.2229 3.99325 70.2229 3.73195C70.2229 3.46464 70.277 3.43551 70.7744 3.43551C71.2518 3.43551 71.3315 3.39763 71.3659 3.1542C71.3998 2.91415 71.4925 2.86726 71.9971 2.83475C72.5311 2.80037 72.5885 2.76699 72.5885 2.49093C72.5885 2.24825 72.6526 2.18524 72.8998 2.18524C73.1488 2.18524 73.211 2.12272 73.211 1.87267C73.211 1.58636 73.1649 1.5601 72.6595 1.5601C72.1821 1.5601 72.1024 1.52222 72.0681 1.27879C72.0343 1.04099 71.9408 0.991728 71.4633 0.960472C71.1526 0.940092 70.8585 0.963598 70.8097 1.01261ZM75.2032 3.73195C75.2032 3.99325 75.1294 4.03827 74.5806 4.11141C74.0728 4.17905 73.9581 4.23956 73.9581 4.43998C73.9581 4.62977 73.8729 4.68578 73.5846 4.68578C73.2692 4.68578 73.211 4.73442 73.211 4.99835C73.211 5.29004 73.1696 5.31091 72.5885 5.31091C72.0074 5.31091 71.966 5.33179 71.966 5.62348C71.966 5.91055 71.9203 5.93605 71.4057 5.93605C70.8911 5.93605 70.8454 5.96156 70.8454 6.24862C70.8454 6.54031 70.804 6.56119 70.2229 6.56119C69.6418 6.56119 69.6003 6.58207 69.6003 6.87375C69.6003 7.12143 69.5375 7.18632 69.2978 7.18632C69.0787 7.18632 68.9842 7.26396 68.9554 7.46763C68.9214 7.70768 68.8288 7.75457 68.3242 7.78708C67.7901 7.82146 67.7327 7.85484 67.7327 8.1309C67.7327 8.41434 67.6875 8.43659 67.1102 8.43659C66.5291 8.43659 66.4877 8.45747 66.4877 8.74916C66.4877 9.01309 66.4295 9.06173 66.1142 9.06173C65.8275 9.06173 65.7406 9.11812 65.7406 9.30416C65.7406 9.49507 65.6232 9.56421 65.1873 9.62985C64.7486 9.69587 64.6261 9.76863 64.5959 9.9813C64.564 10.206 64.4618 10.2556 63.9664 10.2876C63.4324 10.322 63.375 10.3554 63.375 10.6314C63.375 10.9149 63.3298 10.9371 62.7525 10.9371C62.1714 10.9371 62.1299 10.958 62.1299 11.2497C62.1299 11.4998 62.0677 11.5623 61.8187 11.5623C61.5955 11.5623 61.5074 11.6298 61.5074 11.8006C61.5074 11.9917 61.3843 12.0559 60.8849 12.1249C60.3901 12.1933 60.2623 12.2589 60.2623 12.4448C60.2623 12.6313 60.1357 12.6958 59.6398 12.7618C59.091 12.8349 59.0173 12.8799 59.0173 13.1412C59.0173 13.4085 58.9631 13.4377 58.4657 13.4377C57.9883 13.4377 57.9086 13.4756 57.8743 13.719C57.8458 13.9204 57.7372 14.0116 57.4921 14.0398C57.2569 14.0671 57.1497 14.1515 57.1497 14.3095C57.1497 14.4907 57.0176 14.5577 56.5271 14.6254C56.0277 14.6944 55.9046 14.7586 55.9046 14.9498C55.9046 15.1047 55.8176 15.1881 55.6556 15.1881C55.4946 15.1881 55.4066 15.1047 55.4066 14.9524C55.4066 14.7606 55.2793 14.7008 54.7218 14.6308C54.1748 14.5622 54.037 14.4993 54.037 14.3181C54.037 14.1451 53.904 14.0712 53.4767 14.0068C53.042 13.9414 52.9164 13.87 52.9164 13.6884C52.9164 13.5259 52.8116 13.4422 52.574 13.4147C52.3316 13.3867 52.2203 13.2949 52.1927 13.1004C52.1599 12.8686 52.0624 12.8197 51.5701 12.7878C51.0735 12.7557 50.9806 12.7081 50.9467 12.4687C50.9124 12.2253 50.8327 12.1874 50.3553 12.1874C49.8557 12.1874 49.8037 12.159 49.8037 11.8866C49.8037 11.6204 49.732 11.5758 49.1812 11.4998C48.6908 11.432 48.5587 11.365 48.5587 11.1838C48.5587 11.0258 48.4515 10.9414 48.2163 10.9141C47.9711 10.8859 47.8626 10.7947 47.834 10.5933C47.7997 10.3499 47.72 10.312 47.2426 10.312C46.7373 10.312 46.6911 10.2857 46.6911 9.99943C46.6911 9.70774 46.6496 9.68686 46.0685 9.68686H45.446V10.6246C45.446 11.5414 45.453 11.5623 45.7573 11.5623C45.9818 11.5623 46.0685 11.6295 46.0685 11.8036C46.0685 11.9587 46.1686 12.0593 46.3487 12.0849C46.5249 12.11 46.643 12.2253 46.6672 12.3955C46.6987 12.617 46.8171 12.6815 47.3208 12.751C47.8008 12.8173 47.9361 12.8858 47.9361 13.0626C47.9361 13.2396 48.0721 13.308 48.5587 13.3752C49.0424 13.4419 49.1812 13.5112 49.1812 13.6852C49.1812 13.855 49.3171 13.9299 49.7415 13.9938C50.1761 14.0592 50.3018 14.1306 50.3018 14.3122C50.3018 14.4747 50.4066 14.5584 50.6442 14.5859C50.8847 14.6137 50.998 14.706 51.0249 14.896C51.0564 15.1175 51.1748 15.1821 51.6786 15.2516C52.1557 15.3175 52.2939 15.3869 52.2939 15.5606C52.2939 15.7304 52.4297 15.8053 52.8542 15.8692C53.2809 15.9335 53.4144 16.0075 53.4144 16.1798C53.4144 16.3569 53.5497 16.4241 54.037 16.4891C54.5448 16.5567 54.6595 16.6172 54.6595 16.8177C54.6595 17.04 54.7479 17.0635 55.5846 17.0635C56.4493 17.0635 56.5124 17.0451 56.5495 16.7822C56.5835 16.5421 56.6762 16.4952 57.1808 16.4627C57.7148 16.4283 57.7722 16.3949 57.7722 16.1189C57.7722 15.8626 57.8326 15.8132 58.1457 15.8132C58.4323 15.8132 58.5192 15.7568 58.5192 15.5708C58.5192 15.3793 58.637 15.3107 59.0795 15.2441C59.504 15.1802 59.6398 15.1053 59.6398 14.9355C59.6398 14.7615 59.7786 14.6922 60.2623 14.6254C60.7489 14.5583 60.8849 14.4899 60.8849 14.3129C60.8849 14.1358 61.0208 14.0674 61.5074 14.0003C62.0068 13.9313 62.1299 13.8671 62.1299 13.676C62.1299 13.5052 62.2181 13.4377 62.4412 13.4377C62.687 13.4377 62.7525 13.3744 62.7525 13.1369C62.7525 12.8707 62.8242 12.826 63.375 12.75C63.8616 12.6829 63.9975 12.6145 63.9975 12.4375C63.9975 12.2604 64.1335 12.192 64.6201 12.1249C65.1066 12.0578 65.2426 11.9894 65.2426 11.8123C65.2426 11.6353 65.3786 11.5669 65.8651 11.4998C66.3645 11.4307 66.4877 11.3666 66.4877 11.1754C66.4877 11.0047 66.5758 10.9371 66.7989 10.9371C67.0461 10.9371 67.1102 10.8741 67.1102 10.6314C67.1102 10.3554 67.1676 10.322 67.7016 10.2876C68.197 10.2556 68.2993 10.206 68.3311 9.9813C68.3613 9.76863 68.4838 9.69587 68.9225 9.62985C69.3429 9.56659 69.4758 9.4922 69.4758 9.32028C69.4758 9.14312 69.6111 9.07598 70.0984 9.01097C70.6062 8.94333 70.7209 8.88281 70.7209 8.6824C70.7209 8.49261 70.8061 8.43659 71.0944 8.43659C71.4076 8.43659 71.4679 8.38721 71.4679 8.1309C71.4679 7.85484 71.5253 7.82146 72.0594 7.78708C72.564 7.75457 72.6566 7.70768 72.6906 7.46763C72.725 7.22421 72.8047 7.18632 73.282 7.18632C73.7794 7.18632 73.8336 7.15719 73.8336 6.88988C73.8336 6.62858 73.9073 6.58357 74.4561 6.51042C74.964 6.44278 75.0787 6.38227 75.0787 6.18185C75.0787 5.99206 75.1638 5.93605 75.4522 5.93605C75.7675 5.93605 75.8257 5.88741 75.8257 5.62348C75.8257 5.33642 75.8714 5.31091 76.386 5.31091H76.9463V4.68578C76.9463 4.10228 76.9255 4.06064 76.635 4.06064C76.386 4.06064 76.3237 3.99813 76.3237 3.74808C76.3237 3.46101 76.278 3.43551 75.7634 3.43551C75.2569 3.43551 75.2032 3.46402 75.2032 3.73195ZM78.8139 6.87375C78.8139 7.16544 78.7724 7.18632 78.1913 7.18632C77.6103 7.18632 77.5688 7.2072 77.5688 7.49889C77.5688 7.78595 77.5231 7.81146 77.0085 7.81146C76.4939 7.81146 76.4482 7.83696 76.4482 8.12402C76.4482 8.38796 76.3901 8.43659 76.0747 8.43659C75.7863 8.43659 75.7012 8.49261 75.7012 8.6824C75.7012 8.88281 75.5865 8.94333 75.0787 9.01097C74.5298 9.08411 74.4561 9.12912 74.4561 9.39042C74.4561 9.65773 74.402 9.68686 73.9045 9.68686C73.4272 9.68686 73.3475 9.72475 73.3131 9.96817C73.2792 10.2082 73.1865 10.2551 72.6819 10.2876C72.1479 10.322 72.0905 10.3554 72.0905 10.6314C72.0905 10.8877 72.0301 10.9371 71.717 10.9371C71.4304 10.9371 71.3434 10.9935 71.3434 11.1796C71.3434 11.3705 71.226 11.4396 70.7901 11.5053C70.3514 11.5713 70.2289 11.644 70.1987 11.8567C70.1669 12.0814 70.0646 12.131 69.5692 12.163C69.0352 12.1974 68.9778 12.2308 68.9778 12.5068C68.9778 12.7903 68.9326 12.8125 68.3553 12.8125C67.7742 12.8125 67.7327 12.8334 67.7327 13.1251C67.7327 13.389 67.6746 13.4377 67.3592 13.4377C67.0726 13.4377 66.9857 13.4941 66.9857 13.6801C66.9857 13.8715 66.8679 13.9402 66.4254 14.0068C66.001 14.0707 65.8651 14.1456 65.8651 14.3154C65.8651 14.4892 65.7269 14.5585 65.2498 14.6244C64.7461 14.694 64.6277 14.7585 64.5962 14.98C64.5639 15.2074 64.4636 15.2567 63.9664 15.2887C63.4324 15.3231 63.375 15.3565 63.375 15.6325C63.375 15.8752 63.3109 15.9382 63.0637 15.9382C62.8406 15.9382 62.7525 16.0057 62.7525 16.1765C62.7525 16.3677 62.6293 16.4318 62.1299 16.5008C61.6434 16.568 61.5074 16.6364 61.5074 16.8134C61.5074 16.9904 61.3714 17.0588 60.8849 17.126C60.3949 17.1936 60.2623 17.2609 60.2623 17.4415C60.2623 17.5846 60.1566 17.6863 59.9822 17.7111C59.8045 17.7365 59.6879 17.8516 59.6631 18.0259C59.6303 18.2577 59.5328 18.3066 59.0405 18.3385C58.5514 18.3701 58.4508 18.42 58.4186 18.6468C58.3871 18.8684 58.2687 18.9329 57.765 19.0024C57.2879 19.0683 57.1497 19.1377 57.1497 19.3115C57.1497 19.4812 57.0138 19.5561 56.5894 19.62C56.1469 19.6867 56.0291 19.7553 56.0291 19.9467C56.0291 20.1538 55.9396 20.1891 55.4153 20.1891C54.8734 20.1891 54.7967 20.1561 54.7616 19.9078C54.7331 19.7064 54.6245 19.6153 54.3794 19.587C54.1442 19.5598 54.037 19.4754 54.037 19.3173C54.037 19.1362 53.9049 19.0691 53.4144 19.0014C52.9233 18.9335 52.7919 18.8667 52.7919 18.6847C52.7919 18.5073 52.6628 18.4346 52.2316 18.3697C51.8072 18.3059 51.6714 18.231 51.6714 18.0612C51.6714 17.8874 51.5331 17.818 51.056 17.7521C50.5523 17.6826 50.4339 17.6181 50.4024 17.3965C50.3755 17.2065 50.2622 17.1142 50.0216 17.0865C49.7841 17.059 49.6792 16.9752 49.6792 16.8128C49.6792 16.6311 49.5536 16.5597 49.119 16.4943C48.6945 16.4305 48.5587 16.3556 48.5587 16.1858C48.5587 16.0117 48.4199 15.9425 47.9361 15.8757C47.4496 15.8086 47.3136 15.7402 47.3136 15.5631C47.3136 15.3861 47.1777 15.3177 46.6911 15.2506C46.1917 15.1816 46.0685 15.1174 46.0685 14.9263C46.0685 14.7555 45.9804 14.6879 45.7573 14.6879C45.5129 14.6879 45.446 14.6243 45.446 14.3918C45.446 14.1466 45.3656 14.0822 44.9791 14.0181C44.2423 13.8958 44.2009 13.9114 44.2009 14.3129C44.2009 14.5963 44.1439 14.6879 43.9675 14.6879C43.8056 14.6879 43.7101 14.8077 43.6562 15.0787C43.5289 15.7184 43.559 15.8132 43.8897 15.8132C44.1387 15.8132 44.2009 15.8757 44.2009 16.1258C44.2009 16.4174 44.2424 16.4383 44.8235 16.4383C45.4008 16.4383 45.446 16.4606 45.446 16.744C45.446 17.0201 45.5034 17.0535 46.0374 17.0878C46.5346 17.1199 46.6349 17.1691 46.6672 17.3965C46.6987 17.6181 46.8171 17.6826 47.3208 17.7521C47.8135 17.8201 47.9361 17.8846 47.9361 18.0754C47.9361 18.2462 48.0243 18.3137 48.2474 18.3137C48.4964 18.3137 48.5587 18.3762 48.5587 18.6263C48.5587 18.918 48.6001 18.9389 49.1812 18.9389C49.7586 18.9389 49.8037 18.9611 49.8037 19.2446C49.8037 19.5206 49.8611 19.554 50.3952 19.5884C50.8906 19.6204 50.9928 19.67 51.0247 19.8947C51.0548 20.1074 51.1773 20.1801 51.6161 20.2462C52.052 20.3118 52.1694 20.3809 52.1694 20.5718C52.1694 20.7579 52.2563 20.8143 52.5429 20.8143C52.8583 20.8143 52.9164 20.8629 52.9164 21.1268C52.9164 21.4185 52.9579 21.4394 53.539 21.4394C54.1163 21.4394 54.1615 21.4617 54.1615 21.7451C54.1615 22.0212 54.2189 22.0545 54.7529 22.0889C55.2575 22.1214 55.3502 22.1683 55.3841 22.4084C55.4424 22.8203 55.9046 22.7926 55.9046 22.3771C55.9046 22.1132 55.9627 22.0645 56.2781 22.0645C56.5647 22.0645 56.6516 22.0082 56.6516 21.8221C56.6516 21.6312 56.769 21.5621 57.2049 21.4964C57.6437 21.4304 57.7662 21.3576 57.7963 21.145C57.8282 20.9203 57.9304 20.8707 58.4258 20.8387C58.9599 20.8043 59.0173 20.7709 59.0173 20.4948C59.0173 20.2114 59.0625 20.1891 59.6398 20.1891C60.2209 20.1891 60.2623 20.1683 60.2623 19.8766C60.2623 19.6126 60.3205 19.564 60.6358 19.564C60.9225 19.564 61.0094 19.5076 61.0094 19.3216C61.0094 19.1307 61.1268 19.0615 61.5627 18.9959C62.0014 18.9299 62.124 18.8571 62.1541 18.6444C62.186 18.4198 62.2882 18.3701 62.7836 18.3381C63.3176 18.3037 63.375 18.2704 63.375 17.9943C63.375 17.7109 63.4202 17.6886 63.9975 17.6886C64.5786 17.6886 64.6201 17.6677 64.6201 17.376C64.6201 17.126 64.6823 17.0635 64.9313 17.0635C65.1545 17.0635 65.2426 16.9959 65.2426 16.8252C65.2426 16.634 65.3657 16.5699 65.8651 16.5008C66.3599 16.4325 66.4877 16.3668 66.4877 16.1809C66.4877 15.9945 66.6143 15.93 67.1102 15.864C67.5975 15.7989 67.7327 15.7318 67.7327 15.5546C67.7327 15.3827 67.8657 15.3083 68.286 15.2451C68.7248 15.1791 68.8473 15.1063 68.8775 14.8936C68.9041 14.7061 69.0185 14.6136 69.2579 14.5859C69.4931 14.5587 69.6003 14.4743 69.6003 14.3162C69.6003 14.1351 69.7324 14.0681 70.2229 14.0003C70.7066 13.9335 70.8454 13.8643 70.8454 13.6902C70.8454 13.5204 70.9813 13.4456 71.4057 13.3817C71.8369 13.3168 71.966 13.2441 71.966 13.0667C71.966 12.8851 72.0968 12.8179 72.5813 12.751C73.085 12.6815 73.2035 12.617 73.235 12.3955C73.2618 12.2054 73.3751 12.1131 73.6157 12.0854C73.8494 12.0584 73.9581 11.9735 73.9581 11.8182C73.9581 11.6444 74.0903 11.5708 74.5184 11.5063C74.9451 11.442 75.0787 11.368 75.0787 11.1957C75.0787 11.0185 75.2139 10.9514 75.7012 10.8864C76.1971 10.8204 76.3237 10.7558 76.3237 10.5694C76.3237 10.3835 76.4515 10.3179 76.9463 10.2495C77.4456 10.1805 77.5688 10.1163 77.5688 9.92517C77.5688 9.75438 77.6569 9.68686 77.8801 9.68686C78.1246 9.68686 78.1913 9.62323 78.1913 9.39042C78.1913 9.12912 78.265 9.08411 78.8139 9.01097C79.3217 8.94333 79.4364 8.88281 79.4364 8.6824C79.4364 8.50361 79.5212 8.43659 79.7477 8.43659C80.0381 8.43659 80.0589 8.39496 80.0589 7.81146C80.0589 7.22796 80.0381 7.18632 79.7477 7.18632C79.4986 7.18632 79.4364 7.12381 79.4364 6.87375C79.4364 6.6237 79.3741 6.56119 79.1251 6.56119C78.8761 6.56119 78.8139 6.6237 78.8139 6.87375ZM80.7126 10.9043C80.1146 10.9463 80.0589 10.9763 80.0589 11.2562C80.0589 11.5401 80.0139 11.5623 79.4364 11.5623C78.8553 11.5623 78.8139 11.5832 78.8139 11.8748C78.8139 12.1249 78.7516 12.1874 78.5026 12.1874C78.2795 12.1874 78.1913 12.2549 78.1913 12.4257C78.1913 12.6169 78.0682 12.681 77.5688 12.75C77.0776 12.8179 76.9463 12.8847 76.9463 13.0667C76.9463 13.2441 76.8171 13.3168 76.386 13.3817C75.9615 13.4456 75.8257 13.5204 75.8257 13.6902C75.8257 13.864 75.6875 13.9334 75.2104 13.9993C74.7066 14.0688 74.5882 14.1333 74.5567 14.3549C74.5298 14.5449 74.4165 14.6372 74.176 14.6649C73.9364 14.6927 73.8336 14.776 73.8336 14.942C73.8336 15.1325 73.7106 15.1958 73.211 15.2623C72.7237 15.3273 72.5885 15.3945 72.5885 15.5716C72.5885 15.7439 72.4549 15.8179 72.0282 15.8822C71.6038 15.9461 71.4679 16.021 71.4679 16.1908C71.4679 16.3646 71.3297 16.434 70.8526 16.4998C70.3489 16.5694 70.2305 16.6339 70.199 16.8554C70.1721 17.0455 70.0588 17.1377 69.8182 17.1655C69.5807 17.193 69.4758 17.2768 69.4758 17.4392C69.4758 17.6208 69.3502 17.6922 68.9156 17.7576C68.4911 17.8215 68.3553 17.8964 68.3553 18.0662C68.3553 18.2402 68.2165 18.3095 67.7327 18.3762C67.2462 18.4434 67.1102 18.5118 67.1102 18.6888C67.1102 18.8659 66.9742 18.9342 66.4877 19.0014C65.9883 19.0704 65.8651 19.1345 65.8651 19.3257C65.8651 19.4965 65.777 19.564 65.5539 19.564C65.3049 19.564 65.2426 19.6265 65.2426 19.8766C65.2426 20.1683 65.2011 20.1891 64.6201 20.1891C64.039 20.1891 63.9975 20.21 63.9975 20.5017C63.9975 20.7934 63.9561 20.8143 63.375 20.8143C62.8019 20.8143 62.7525 20.8379 62.7525 21.1126C62.7525 21.3704 62.6763 21.4225 62.1922 21.4954C61.7497 21.5621 61.6319 21.6307 61.6319 21.8221C61.6319 22.0082 61.545 22.0645 61.2584 22.0645C60.9452 22.0645 60.8849 22.1139 60.8849 22.3702C60.8849 22.6463 60.8275 22.6797 60.2935 22.7141C59.7888 22.7466 59.6962 22.7935 59.6622 23.0335C59.6278 23.2769 59.5482 23.3148 59.0708 23.3148C58.5654 23.3148 58.5192 23.3411 58.5192 23.6274C58.5192 23.8913 58.4611 23.94 58.1457 23.94C57.8303 23.94 57.7722 23.9886 57.7722 24.2525C57.7722 24.5442 57.7307 24.5651 57.1497 24.5651C56.5686 24.5651 56.5271 24.586 56.5271 24.8777C56.5271 25.1832 56.5063 25.1902 55.5933 25.1902C54.6803 25.1902 54.6595 25.1832 54.6595 24.8777C54.6595 24.5906 54.6138 24.5651 54.0992 24.5651C53.5846 24.5651 53.539 24.5396 53.539 24.2525C53.539 23.9608 53.4975 23.94 52.9164 23.94C52.3353 23.94 52.2939 23.9191 52.2939 23.6274C52.2939 23.3635 52.2357 23.3148 51.9204 23.3148C51.6338 23.3148 51.5468 23.2584 51.5468 23.0724C51.5468 22.8815 51.4294 22.8123 50.9935 22.7467C50.5548 22.6807 50.4323 22.6079 50.4021 22.3952C50.3703 22.1706 50.268 22.1209 49.7726 22.0889C49.2386 22.0545 49.1812 22.0212 49.1812 21.7451C49.1812 21.4617 49.136 21.4394 48.5587 21.4394C47.9776 21.4394 47.9361 21.4185 47.9361 21.1268C47.9361 20.8768 47.8739 20.8143 47.6249 20.8143C47.4018 20.8143 47.3136 20.7468 47.3136 20.576C47.3136 20.3848 47.1905 20.3207 46.6911 20.2517C46.2045 20.1845 46.0685 20.1161 46.0685 19.9391C46.0685 19.762 45.9326 19.6937 45.446 19.6265C44.8952 19.5505 44.8235 19.5059 44.8235 19.2397C44.8235 18.962 44.7755 18.9389 44.2009 18.9389H43.5784L43.5798 21.2831C43.5814 24.0637 43.6408 24.5651 43.9682 24.5651C44.1748 24.5651 44.2009 24.6704 44.2009 25.5028C44.2009 26.4196 44.2079 26.4405 44.5122 26.4405C44.8027 26.4405 44.8235 26.4821 44.8235 27.0656C44.8235 27.6491 44.8443 27.6908 45.1347 27.6908C45.4252 27.6908 45.446 27.7324 45.446 28.3159C45.446 28.854 45.4801 28.941 45.6908 28.941C45.8904 28.941 45.9506 29.0562 46.018 29.5662C46.0908 30.1173 46.1357 30.1913 46.3959 30.1913C46.6627 30.1913 46.6911 30.2453 46.6911 30.7539C46.6911 31.2707 46.7165 31.3166 47.0023 31.3166C47.2652 31.3166 47.3136 31.3749 47.3136 31.6916C47.3136 32.0083 47.362 32.0667 47.6249 32.0667C47.8739 32.0667 47.9361 32.1292 47.9361 32.3793C47.9361 32.6293 47.9984 32.6919 48.2474 32.6919C48.4964 32.6919 48.5587 32.7544 48.5587 33.0044C48.5587 33.2545 48.6209 33.317 48.8699 33.317C49.119 33.317 49.1812 33.3795 49.1812 33.6296C49.1812 33.8796 49.2435 33.9421 49.4925 33.9421C49.7415 33.9421 49.8037 34.0046 49.8037 34.2547C49.8037 34.5047 49.866 34.5673 50.115 34.5673C50.3395 34.5673 50.4263 34.6345 50.4263 34.8086C50.4263 34.9637 50.5264 35.0642 50.7064 35.0899C50.8865 35.1156 51.0008 35.2304 51.0264 35.4112C51.0552 35.6149 51.1497 35.6925 51.3688 35.6925C51.6054 35.6925 51.6714 35.7581 51.6714 35.9933C51.6714 36.2595 51.7431 36.3041 52.2939 36.3801C52.7776 36.4469 52.9164 36.5162 52.9164 36.6902C52.9164 36.86 53.0523 36.9349 53.4767 36.9988C53.9192 37.0654 54.037 37.1341 54.037 37.3255C54.037 37.5115 54.1239 37.5679 54.4105 37.5679C54.7259 37.5679 54.784 37.6165 54.784 37.8805C54.784 38.1842 54.8089 38.193 55.6556 38.193C56.5022 38.193 56.5271 38.2019 56.5271 38.5056C56.5271 38.8112 56.5479 38.8182 57.4609 38.8182C58.3581 38.8182 58.3947 38.8297 58.3947 39.1121V39.4059L60.916 39.4734C62.3027 39.5107 64.5439 39.5108 65.8963 39.4739C68.118 39.4133 68.3553 39.3859 68.3553 39.1906C68.3553 38.9277 68.8174 38.8182 69.9272 38.8182C70.6908 38.8182 70.7209 38.8063 70.7209 38.5056C70.7209 38.2144 70.763 38.193 71.3347 38.193C71.8766 38.193 71.9533 38.16 71.9884 37.9117C72.0223 37.6723 72.1151 37.6248 72.6118 37.5927C73.1041 37.5608 73.2016 37.5119 73.2343 37.2801C73.2673 37.0477 73.3646 36.9994 73.8647 36.9672C74.3987 36.9328 74.4561 36.8994 74.4561 36.6233C74.4561 36.3829 74.5207 36.3176 74.7587 36.3176C74.9778 36.3176 75.0723 36.24 75.1011 36.0363C75.1296 35.8349 75.2381 35.7438 75.4833 35.7155C75.7209 35.688 75.8257 35.6042 75.8257 35.4418C75.8257 35.2602 75.9513 35.1888 76.386 35.1234C76.8701 35.0505 76.9463 34.9983 76.9463 34.7405C76.9463 34.5057 77.0125 34.4422 77.2575 34.4422C77.5065 34.4422 77.5688 34.3797 77.5688 34.1297C77.5688 33.8796 77.631 33.8171 77.8801 33.8171C78.1291 33.8171 78.1913 33.7546 78.1913 33.5045C78.1913 33.2545 78.2536 33.192 78.5026 33.192C78.7516 33.192 78.8139 33.1294 78.8139 32.8794C78.8139 32.6293 78.8761 32.5668 79.1251 32.5668C79.411 32.5668 79.4364 32.5209 79.4364 32.0042C79.4364 31.4875 79.4618 31.4416 79.7477 31.4416C80.0105 31.4416 80.0589 31.3832 80.0589 31.0665C80.0589 30.7498 80.1074 30.6914 80.3702 30.6914C80.6561 30.6914 80.6815 30.6455 80.6815 30.1288C80.6815 29.6121 80.7069 29.5662 80.9927 29.5662C81.2832 29.5662 81.304 29.5245 81.304 28.941C81.304 28.3575 81.3248 28.3159 81.6153 28.3159C81.9057 28.3159 81.9265 28.2743 81.9265 27.6908C81.9265 27.1073 81.9473 27.0656 82.2378 27.0656C82.5421 27.0656 82.5491 27.0448 82.5491 26.1279C82.5491 25.2111 82.556 25.1902 82.8603 25.1902H83.1716V23.94C83.1716 22.8022 83.1925 22.6897 83.4043 22.6897C83.7262 22.6897 83.7911 22.186 83.7928 19.6753C83.7945 17.08 83.7182 16.4383 83.4082 16.4383C83.2057 16.4383 83.1767 16.3037 83.145 15.2193C83.1112 14.0629 83.0949 13.9983 82.8292 13.9603C82.5674 13.923 82.5491 13.8596 82.5491 12.9913C82.5491 12.0838 82.5418 12.0624 82.2378 12.0624C81.9473 12.0624 81.9265 12.0207 81.9265 11.4372C81.9265 10.8655 81.9026 10.8141 81.6464 10.8352C81.4924 10.848 81.0722 10.879 80.7126 10.9043ZM20.7936 50.3037C20.7936 50.5636 20.1823 50.6958 18.9796 50.6958C18.3912 50.6958 18.3166 50.7258 18.2811 50.9771C18.2526 51.1785 18.144 51.2696 17.8989 51.2979C17.6619 51.3253 17.5565 51.4093 17.5565 51.5706C17.5565 51.7171 17.4524 51.8185 17.2763 51.8435C17.0963 51.8693 16.982 51.984 16.9563 52.1648C16.9317 52.34 16.8303 52.4461 16.6879 52.4461C16.508 52.4461 16.441 52.5793 16.3736 53.0713C16.3079 53.5511 16.2373 53.6964 16.0697 53.6964C15.8776 53.6964 15.8413 53.8853 15.7677 55.2685C15.7216 56.1331 15.7217 57.6803 15.7678 58.7067C15.851 60.5574 15.8541 60.5729 16.1438 60.5729C16.4114 60.5729 16.4359 60.6255 16.4359 61.198C16.4359 61.7815 16.4567 61.8232 16.7472 61.8232C16.9721 61.8232 17.0584 61.8903 17.0584 62.0656C17.0584 62.257 17.1762 62.3257 17.6187 62.3923C18.1028 62.4652 18.179 62.5173 18.179 62.7751C18.179 63.0628 18.2121 63.0734 19.1041 63.0734C19.9688 63.0734 20.0319 63.0918 20.069 63.3547C20.106 63.6158 20.1804 63.6388 21.1049 63.6749C22.5284 63.7306 23.1593 63.6203 23.1593 63.3159C23.1593 63.0976 23.2522 63.0734 24.0931 63.0734C25.0061 63.0734 25.0269 63.0664 25.0269 62.7609C25.0269 62.5108 25.0891 62.4483 25.3381 62.4483C25.5872 62.4483 25.6494 62.3858 25.6494 62.1357C25.6494 61.8857 25.5872 61.8232 25.3381 61.8232C25.0891 61.8232 25.0269 61.8857 25.0269 62.1357V62.4483H22.599H20.1711V62.1357C20.1711 61.8718 20.113 61.8232 19.7976 61.8232C19.4822 61.8232 19.4241 61.7745 19.4241 61.5106C19.4241 61.2887 19.3566 61.198 19.1914 61.198C18.9417 61.198 18.8055 60.7052 18.8029 59.7915C18.8018 59.4174 18.7545 59.3226 18.5688 59.3226C18.2515 59.3226 18.1817 58.8156 18.1817 56.5095C18.1817 54.2034 18.2515 53.6964 18.5688 53.6964C18.7561 53.6964 18.8015 53.6018 18.8015 53.2119C18.8015 52.3594 18.9301 51.9632 19.2204 51.9216C19.3814 51.8985 19.5013 51.7781 19.5243 51.6165C19.5656 51.325 19.9602 51.1959 20.8092 51.1959C21.2086 51.1959 21.2917 51.1529 21.2917 50.9458C21.2917 50.7291 21.3747 50.6958 21.9142 50.6958C22.4537 50.6958 22.5367 50.7291 22.5367 50.9458C22.5367 51.1625 22.6198 51.1959 23.1593 51.1959C23.7403 51.1959 23.7818 51.2167 23.7818 51.5084C23.7818 51.754 23.8452 51.821 24.077 51.821C24.3372 51.821 24.3821 51.895 24.4549 52.4461L24.5374 53.0713H25.0934H25.6494V51.8835V50.6958L24.9957 50.6949C24.6363 50.6944 23.9638 50.6581 23.5017 50.6142C22.7946 50.5472 22.6612 50.4977 22.6612 50.3025C22.6612 50.0972 22.5539 50.0706 21.7274 50.0706C20.8993 50.0706 20.7936 50.097 20.7936 50.3037ZM27.517 50.9458C27.517 51.1292 27.6001 51.1959 27.8283 51.1959H28.1395V56.8221V62.4483H27.8283C27.6069 62.4483 27.517 62.5161 27.517 62.6827C27.517 63.0075 27.9498 63.0734 30.085 63.0734H31.8748V62.7609C31.8748 62.4692 31.8333 62.4483 31.2522 62.4483H30.6297V59.0101V55.5718H31.8125C32.9912 55.5718 32.9953 55.5729 32.9953 55.8844C32.9953 56.1483 33.0535 56.1969 33.3688 56.1969C33.6842 56.1969 33.7424 56.2456 33.7424 56.5095C33.7424 56.7596 33.8046 56.8221 34.0536 56.8221C34.3441 56.8221 34.3649 56.8637 34.3649 57.4472C34.3649 57.989 34.3981 58.0724 34.6139 58.0724C34.8464 58.0724 34.8629 58.1557 34.8629 59.3226C34.8629 60.4895 34.8464 60.5729 34.6139 60.5729C34.3981 60.5729 34.3649 60.6563 34.3649 61.198C34.3649 61.7815 34.3441 61.8232 34.0536 61.8232C33.8046 61.8232 33.7424 61.8857 33.7424 62.1357C33.7424 62.4313 33.705 62.4483 33.0576 62.4483C32.4101 62.4483 32.3728 62.4653 32.3728 62.7609V63.0734H33.9291H35.4855V62.7609C35.4855 62.4969 35.5436 62.4483 35.859 62.4483C36.1744 62.4483 36.2325 62.3997 36.2325 62.1357C36.2325 61.9066 36.2989 61.8232 36.4815 61.8232C36.6642 61.8232 36.7305 61.7398 36.7305 61.5106C36.7305 61.2605 36.7928 61.198 37.0418 61.198H37.3531V59.3226C37.3531 57.5504 37.3397 57.4472 37.1116 57.4472C36.9215 57.4472 36.8527 57.3293 36.7873 56.8916C36.7216 56.451 36.6491 56.328 36.4373 56.2977C36.2756 56.2746 36.1553 56.1544 36.1324 55.9934C36.0886 55.6848 35.6364 55.5754 34.396 55.5732C33.7013 55.5719 33.6179 55.5449 33.6179 55.3218C33.6179 55.0856 33.5348 55.0717 32.1238 55.0717H30.6297V53.1338V51.1959H32.6685C35.0943 51.1959 35.4577 51.2496 35.5097 51.6165C35.5331 51.7809 35.6529 51.8985 35.8214 51.9226C36.0408 51.9539 36.1115 52.0718 36.178 52.5165C36.2423 52.9474 36.3132 53.0713 36.4957 53.0713C36.7094 53.0713 36.7305 52.9641 36.7305 51.8835V50.6958H32.1238C27.6001 50.6958 27.517 50.7003 27.517 50.9458ZM39.3452 50.9458C39.3452 51.1125 39.4282 51.1959 39.5942 51.1959C39.8397 51.1959 39.8432 51.2793 39.8432 57.1347V63.0734H42.0221H44.2009V62.7609C44.2009 62.4553 44.1801 62.4483 43.2671 62.4483H42.3333V59.6352V56.8221H44.45H46.5666V56.5095C46.5666 56.2803 46.5002 56.1969 46.3176 56.1969C46.1516 56.1969 46.0685 56.1136 46.0685 55.9469C46.0685 55.7635 45.9855 55.6968 45.7573 55.6968C45.5291 55.6968 45.446 55.7635 45.446 55.9469C45.446 56.1803 45.363 56.1969 44.2009 56.1969C43.0389 56.1969 42.9559 56.1803 42.9559 55.9469C42.9559 55.7629 42.8728 55.6968 42.6417 55.6968H42.3276L42.3616 53.4776L42.3956 51.2584H44.5122H46.6288L46.6682 51.6022C46.6992 51.8723 46.7726 51.946 47.0106 51.946C47.2867 51.946 47.3136 51.9959 47.3136 52.5086C47.3136 53.0254 47.339 53.0713 47.6249 53.0713C47.935 53.0713 47.9361 53.0671 47.9361 51.8835V50.6958H43.6407C39.4282 50.6958 39.3452 50.7006 39.3452 50.9458ZM50.4263 50.9371C50.4263 51.0922 50.5264 51.1927 50.7064 51.2184L50.9866 51.2584L51.0189 56.8533L51.0514 62.4483H50.7388C50.4884 62.4483 50.4263 62.5104 50.4263 62.7609V63.0734H51.959H53.4918L53.4376 61.2692C53.408 60.2768 53.4225 59.1516 53.4702 58.7686L53.5569 58.0724H55.6645H57.7722V57.7598C57.7722 57.4959 57.8303 57.4472 58.1457 57.4472C58.4362 57.4472 58.5192 57.3917 58.5192 57.1972C58.5192 57.0305 58.6023 56.9471 58.7682 56.9471C58.962 56.9471 59.0173 56.8637 59.0173 56.572C59.0173 56.2553 59.0657 56.1969 59.3285 56.1969H59.6398V54.0715V51.946H59.3285C59.0835 51.946 59.0173 51.8825 59.0173 51.6477C59.0173 51.3899 58.9411 51.3378 58.457 51.2649C58.0145 51.1982 57.8967 51.1296 57.8967 50.9382C57.8967 50.7038 57.7743 50.6958 54.1615 50.6958C50.5542 50.6958 50.4263 50.704 50.4263 50.9371ZM61.5074 50.9458C61.5074 51.1292 61.5904 51.1959 61.8187 51.1959H62.1299V56.8221C62.1299 62.3649 62.1262 62.4483 61.8809 62.4483C61.6983 62.4483 61.6319 62.5317 61.6319 62.7609V63.0734H63.7485H65.8651V62.7609C65.8651 62.4692 65.8237 62.4483 65.2426 62.4483H64.6201V59.0101V55.5718H65.8029C66.9816 55.5718 66.9857 55.5729 66.9857 55.8844C66.9857 56.1483 67.0438 56.1969 67.3592 56.1969C67.6746 56.1969 67.7327 56.2456 67.7327 56.5095C67.7327 56.7596 67.795 56.8221 68.044 56.8221C68.3483 56.8221 68.3553 56.843 68.3553 57.7598C68.3553 58.6141 68.3774 58.6975 68.6043 58.6975C68.8201 58.6975 68.8533 58.7809 68.8533 59.3226C68.8533 59.8644 68.8201 59.9478 68.6043 59.9478C68.3774 59.9478 68.3553 60.0312 68.3553 60.8855C68.3553 61.8023 68.3483 61.8232 68.044 61.8232C67.795 61.8232 67.7327 61.8857 67.7327 62.1357C67.7327 62.4317 67.696 62.4483 67.0392 62.4483C66.3914 62.4483 66.3485 62.4668 66.3856 62.7296C66.424 63.0017 66.4758 63.0121 67.9506 63.0461L69.4758 63.0812V62.7647C69.4758 62.4964 69.5327 62.4483 69.8494 62.4483C70.1647 62.4483 70.2229 62.3997 70.2229 62.1357C70.2229 61.8857 70.2851 61.8232 70.5341 61.8232C70.8246 61.8232 70.8454 61.7815 70.8454 61.198C70.8454 60.6563 70.8787 60.5729 71.0944 60.5729C71.3301 60.5729 71.3434 60.4895 71.3434 59.0101C71.3434 57.5619 71.3263 57.4472 71.1086 57.4472C70.9261 57.4472 70.8551 57.3232 70.7906 56.8912C70.7095 56.3474 70.6958 56.3335 70.1609 56.253C69.7286 56.1878 69.6063 56.1146 69.5762 55.9025C69.5415 55.6585 69.4514 55.6311 68.5732 55.5978C67.7106 55.5652 67.6082 55.5353 67.6082 55.3165C67.6082 55.0871 67.5145 55.0717 66.1142 55.0717H64.6201V53.1338V51.1959L66.6433 51.1972C67.7561 51.198 68.8767 51.2335 69.1334 51.2761C69.59 51.3519 69.6003 51.3658 69.6003 51.8999C69.6003 52.3992 69.6271 52.4461 69.9116 52.4461C70.1606 52.4461 70.2229 52.5086 70.2229 52.7587C70.2229 52.9879 70.2892 53.0713 70.4719 53.0713C70.7035 53.0713 70.7209 52.9879 70.7209 51.8835V50.6958H66.1142C61.5904 50.6958 61.5074 50.7003 61.5074 50.9458ZM76.3461 50.9771C76.3718 51.1579 76.4861 51.2726 76.6661 51.2984C76.9085 51.3329 76.9463 51.4129 76.9463 51.8923C76.9463 52.3559 76.9072 52.4461 76.7062 52.4461C76.5086 52.4461 76.451 52.5678 76.3806 53.1338C76.3135 53.6733 76.248 53.8214 76.0767 53.8214C75.8484 53.8214 75.7053 54.3354 75.7026 55.1655C75.7014 55.4829 75.6486 55.5718 75.4611 55.5718C75.2635 55.5718 75.2059 55.6935 75.1355 56.2595C75.0684 56.799 75.003 56.9471 74.8316 56.9471C74.6033 56.9471 74.4602 57.4611 74.4575 58.2912C74.4564 58.607 74.4032 58.6975 74.2188 58.6975C74.0284 58.6975 73.9646 58.8211 73.8958 59.3226C73.8271 59.8241 73.7632 59.9478 73.5729 59.9478C73.371 59.9478 73.3356 60.0414 73.3356 60.5729C73.3356 61.1564 73.3148 61.198 73.0243 61.198C72.7338 61.198 72.713 61.2397 72.713 61.8232C72.713 62.4067 72.6922 62.4483 72.4017 62.4483C72.1804 62.4483 72.0905 62.5161 72.0905 62.6827C72.0905 62.9469 72.519 63.0734 73.4134 63.0734C73.9114 63.0734 73.9581 63.0467 73.9581 62.7609C73.9581 62.5317 74.0245 62.4483 74.2071 62.4483C74.4293 62.4483 74.4562 62.3645 74.4575 61.6669C74.4596 60.4489 74.5729 59.9478 74.8459 59.9478C75.0423 59.9478 75.0787 59.8497 75.0787 59.3197V58.6917L77.2887 58.7259C79.474 58.7596 79.4991 58.7631 79.5385 59.0413C79.564 59.2221 79.6641 59.3226 79.8186 59.3226C80.0131 59.3226 80.0592 59.4121 80.0603 59.7915C80.0629 60.6962 80.1996 61.198 80.4433 61.198C80.639 61.198 80.6756 61.3237 80.7071 62.1045L80.7437 63.0109L82.2859 63.0462L83.828 63.0814L83.7502 62.6086C83.7074 62.3485 83.6717 62.0655 83.671 61.9795C83.6702 61.8936 83.5576 61.8232 83.4206 61.8232C83.2048 61.8232 83.1716 61.7398 83.1716 61.198C83.1716 60.6145 83.1508 60.5729 82.8603 60.5729C82.556 60.5729 82.5491 60.552 82.5491 59.6352C82.5491 58.7184 82.5421 58.6975 82.2378 58.6975C81.9354 58.6975 81.9265 58.6725 81.9265 57.8223C81.9265 56.9721 81.9177 56.9471 81.6153 56.9471C81.311 56.9471 81.304 56.9262 81.304 56.0094C81.304 55.0926 81.297 55.0717 80.9927 55.0717C80.6984 55.0717 80.6815 55.0342 80.6815 54.3841C80.6815 53.7951 80.648 53.6964 80.448 53.6964C80.1849 53.6964 80.0589 53.2661 80.0589 52.368C80.0589 51.9101 80.0196 51.821 79.8175 51.821C79.6269 51.821 79.5585 51.7027 79.4922 51.2584L79.4081 50.6958H77.8573C76.3202 50.6958 76.3068 50.6983 76.3461 50.9771ZM85.6617 50.9371C85.6617 51.0922 85.7618 51.1927 85.9419 51.2184L86.222 51.2584L86.2544 56.8533L86.2869 62.4483H85.9743C85.7239 62.4483 85.6617 62.5104 85.6617 62.7609V63.0734L87.187 63.0736H88.7122V59.9791V56.8846L91.2334 56.8507L93.7547 56.817V59.9451V63.0734H95.2488H96.7429V56.8846V50.6958H95.2176H93.6924L93.7366 52.7693C93.7609 53.9098 93.7429 55.1477 93.6965 55.5201L93.6123 56.1969H91.4423C89.3815 56.1969 89.2724 56.1848 89.2724 55.9556C89.2724 55.8005 89.1723 55.7 88.9923 55.6743C88.7125 55.6343 88.7122 55.6306 88.7122 53.165V50.6956L87.187 50.6958C85.7631 50.6958 85.6617 50.7118 85.6617 50.9371ZM99.8555 51.0083C99.8555 51.2584 99.9178 51.3209 100.167 51.3209H100.478V56.8846V62.4483H100.167C99.9178 62.4483 99.8555 62.5108 99.8555 62.7609V63.0734H101.412H102.968V56.8846V50.6958H101.412H99.8555V51.0083ZM107.27 51.2584C107.205 51.6948 107.134 51.821 106.953 51.821C106.791 51.821 106.708 51.9263 106.68 52.1648C106.653 52.4053 106.561 52.5202 106.374 52.5469C106.162 52.5772 106.09 52.7002 106.024 53.1408C105.959 53.5785 105.89 53.6964 105.7 53.6964C105.525 53.6964 105.458 53.7831 105.458 54.009C105.458 54.2568 105.396 54.3215 105.155 54.3215C104.917 54.3215 104.844 54.3953 104.813 54.6654C104.785 54.9115 104.694 55.0206 104.493 55.0492C104.291 55.0781 104.213 55.173 104.213 55.393C104.213 55.6337 104.149 55.6968 103.902 55.6968C103.6 55.6968 103.591 55.7218 103.591 56.572C103.591 57.4222 103.6 57.4472 103.902 57.4472C104.165 57.4472 104.213 57.5056 104.213 57.8223C104.213 58.1101 104.269 58.1974 104.455 58.1974C104.645 58.1974 104.714 58.3157 104.78 58.76C104.853 59.2461 104.905 59.3226 105.161 59.3226C105.435 59.3226 105.458 59.3723 105.458 59.9478C105.458 60.5313 105.479 60.5729 105.77 60.5729C106.019 60.5729 106.081 60.6354 106.081 60.8855C106.081 61.1095 106.148 61.198 106.318 61.198C106.509 61.198 106.572 61.3217 106.641 61.8232C106.709 62.3151 106.775 62.4483 106.955 62.4483C107.098 62.4483 107.199 62.5545 107.224 62.7296C107.263 63.005 107.302 63.0117 109.1 63.0456L110.937 63.0801V62.7642C110.937 62.5106 110.875 62.4483 110.625 62.4483C110.376 62.4483 110.314 62.3858 110.314 62.1357C110.314 61.8857 110.252 61.8232 110.003 61.8232C109.754 61.8232 109.692 61.7607 109.692 61.5106C109.692 61.2814 109.625 61.198 109.443 61.198C109.26 61.198 109.194 61.1146 109.194 60.8855C109.194 60.6387 109.131 60.5729 108.894 60.5729C108.629 60.5729 108.584 60.5009 108.509 59.9478C108.433 59.3946 108.389 59.3226 108.124 59.3226C107.887 59.3226 107.824 59.2569 107.824 59.0101C107.824 58.7809 107.758 58.6975 107.575 58.6975C107.392 58.6975 107.326 58.6141 107.326 58.3849C107.326 58.1381 107.263 58.0724 107.026 58.0724C106.761 58.0724 106.717 58.0003 106.641 57.4472C106.572 56.9457 106.509 56.8221 106.318 56.8221C106.148 56.8221 106.081 56.7336 106.081 56.5095C106.081 56.2595 106.019 56.1969 105.77 56.1969C105.479 56.1969 105.458 56.1553 105.458 55.5718C105.458 55.0376 105.493 54.9467 105.699 54.9467C105.853 54.9467 105.953 54.8462 105.979 54.6654C106.004 54.4895 106.119 54.3697 106.286 54.3458C106.497 54.3157 106.57 54.1928 106.635 53.7598C106.7 53.322 106.771 53.2042 106.99 53.1729C107.161 53.1484 107.278 53.031 107.302 52.8601C107.327 52.6897 107.444 52.5719 107.614 52.5475C107.784 52.5233 107.901 52.4055 107.925 52.2338C107.956 52.0135 108.074 51.9425 108.517 51.8758C108.993 51.8041 109.069 51.7514 109.069 51.4942C109.069 51.2594 109.135 51.1959 109.38 51.1959C109.609 51.1959 109.692 51.1292 109.692 50.9458C109.692 50.7135 109.609 50.6958 108.523 50.6958H107.354L107.27 51.2584ZM56.0056 51.5321C56.0298 51.7025 56.1471 51.8203 56.3168 51.8446C56.4893 51.8693 56.6039 51.9868 56.6292 52.1648C56.6547 52.3456 56.7548 52.4461 56.9094 52.4461C57.1361 52.4461 57.1497 52.552 57.1497 54.3215C57.1497 56.0922 57.1362 56.1969 56.9089 56.1969C56.7388 56.1969 56.6566 56.2978 56.6287 56.5408C56.6006 56.7869 56.5098 56.896 56.3092 56.9246C56.1292 56.9502 56.0291 57.0508 56.0291 57.2059C56.0291 57.429 55.9304 57.4472 54.7218 57.4472H53.4144V54.4049C53.4144 52.7316 53.4537 51.3231 53.5016 51.275C53.5497 51.2269 54.1239 51.2034 54.7778 51.2229C55.8934 51.2561 55.9692 51.2753 56.0056 51.5321ZM77.6709 53.4151C77.6964 53.5959 77.7965 53.6964 77.951 53.6964C78.1455 53.6964 78.1916 53.7859 78.1927 54.1653C78.1953 55.079 78.3315 55.5718 78.5812 55.5718C78.7424 55.5718 78.8139 55.662 78.8139 55.8655C78.8139 56.027 78.8501 56.5897 78.8944 57.1158L78.9748 58.0724H77.3381H75.7012L75.7026 57.6035C75.7052 56.6898 75.8414 56.1969 76.091 56.1969C76.2783 56.1969 76.3237 56.1023 76.3237 55.7125C76.3237 54.8754 76.4556 54.4466 76.7128 54.4466C76.9131 54.4466 76.9463 54.3478 76.9463 53.7507C76.9463 53.0651 76.9514 53.0553 77.2887 53.0943C77.5338 53.1225 77.6424 53.2137 77.6709 53.4151ZM47.288 61.4793L47.2514 62.3858L46.3487 62.4225C45.4831 62.4578 45.446 62.4718 45.446 62.7664C45.446 63.0719 45.452 63.0734 46.6911 63.0734H47.9361V61.8232C47.9361 60.5789 47.9347 60.5729 47.6304 60.5729C47.337 60.5729 47.3231 60.6102 47.288 61.4793ZM0.374507 67.3869V67.9495H63.4373H126.5V67.3869V66.8242H63.4373H0.374507V67.3869ZM0.310013 71.8067C0.277018 71.8398 0.25 72.3921 0.25 73.034C0.25 74.1883 0.253237 74.2008 0.554419 74.2008C0.829331 74.2008 0.862574 74.1432 0.896813 73.607C0.928936 73.1055 0.977245 73.0071 1.20733 72.9742C1.37704 72.9498 1.49432 72.8321 1.5186 72.6616C1.5557 72.3993 1.62082 72.3865 3.08253 72.3528L4.60774 72.3177V78.2604V84.203H6.16408H7.72041V83.8904C7.72041 83.6404 7.65816 83.5779 7.40915 83.5779H7.09788V78.2642V72.9506H7.40915C7.65816 72.9506 7.72041 72.8881 7.72041 72.638C7.72041 72.3281 7.72975 72.3254 8.82541 72.3254C10.5456 72.3254 10.6819 72.3745 10.7795 73.0276C10.8499 73.4989 10.9029 73.5757 11.1585 73.5757C11.3924 73.5757 11.4556 73.6422 11.4556 73.8883C11.4556 74.1175 11.522 74.2008 11.7046 74.2008C11.9362 74.2008 11.9536 74.1175 11.9536 73.0131C11.9536 71.869 11.9433 71.8248 11.6735 71.8111C10.7027 71.7617 0.358819 71.7578 0.310013 71.8067ZM38.0966 71.7316C38.0946 71.7488 38.0807 74.5619 38.0655 77.9829L38.0378 84.203H39.5631H41.0883V83.8904C41.0883 83.6404 41.026 83.5779 40.777 83.5779H40.4657V80.7648V77.9517H43.2671H46.0685V80.7648V83.5779H45.7573C45.5083 83.5779 45.446 83.6404 45.446 83.8904V84.203H46.9712L48.4964 84.2029V78.0254V71.8478L48.0607 71.7754C47.4913 71.6808 46.4993 71.6832 45.9129 71.7806C45.3743 71.87 45.2397 72.2787 45.7261 72.3479C46.0028 72.3875 46.0067 72.4151 46.0404 74.5447L46.0744 76.7014H45.7603C45.508 76.7014 45.446 76.7632 45.446 77.014V77.3265H43.2671H41.0883V77.014C41.0883 76.7632 41.0263 76.7014 40.774 76.7014H40.4599L40.4939 74.5447C40.5276 72.4151 40.5315 72.3875 40.8081 72.3479C41.2946 72.2787 41.16 71.87 40.6214 71.7806C40.1754 71.7066 38.104 71.6663 38.0966 71.7316ZM54.1926 71.7924C53.6519 71.8305 53.539 71.8791 53.539 72.0736C53.539 72.2373 53.4347 72.3208 53.1966 72.3484C52.9546 72.3763 52.8428 72.4682 52.8154 72.6616C52.7912 72.8321 52.6739 72.9498 52.5042 72.9742C52.3317 72.9988 52.2171 73.1164 52.1918 73.2944C52.1671 73.4696 52.0658 73.5757 51.9234 73.5757C51.7434 73.5757 51.6765 73.7089 51.6091 74.2008C51.5427 74.6855 51.4735 74.826 51.3012 74.826C51.1024 74.826 51.0733 74.9921 51.0267 76.4029C50.9979 77.2703 50.998 78.8175 51.027 79.8412L51.0797 81.7025H51.3755C51.6476 81.7025 51.6714 81.7529 51.6714 82.3276C51.6714 82.9111 51.6921 82.9527 51.9826 82.9527C52.2316 82.9527 52.2939 83.0153 52.2939 83.2653C52.2939 83.5154 52.3561 83.5779 52.6052 83.5779C52.8262 83.5779 52.9164 83.6456 52.9164 83.8116C52.9164 84.0622 53.4072 84.199 54.3171 84.2016C54.7006 84.2028 54.784 84.2478 54.784 84.4531C54.784 84.6916 54.8671 84.7031 56.5894 84.7031C58.3117 84.7031 58.3947 84.6916 58.3947 84.4531C58.3947 84.2478 58.4781 84.2028 58.8616 84.2016C59.7715 84.199 60.2623 84.0622 60.2623 83.8116C60.2623 83.6456 60.3526 83.5779 60.5736 83.5779C60.8226 83.5779 60.8849 83.5154 60.8849 83.2653C60.8849 83.0153 60.9471 82.9527 61.1961 82.9527C61.459 82.9527 61.5074 82.8944 61.5074 82.5777C61.5074 82.261 61.5558 82.2026 61.8187 82.2026C62.1255 82.2026 62.1299 82.1876 62.1313 81.1711C62.1333 79.7064 62.2328 79.2019 62.5198 79.2019C62.7315 79.2019 62.7525 79.0894 62.7525 77.9517V76.7014H62.4412H62.1299V75.4511V74.2008H61.8187C61.5328 74.2008 61.5074 74.155 61.5074 73.6382C61.5074 73.1215 61.482 73.0756 61.1961 73.0756C60.9504 73.0756 60.8849 73.0123 60.8849 72.7748C60.8849 72.5086 60.8131 72.464 60.2623 72.388C59.7834 72.3218 59.6398 72.2512 59.6398 72.0818C59.6398 71.9011 59.4889 71.8472 58.7994 71.7818C57.9526 71.7014 55.4038 71.7074 54.1926 71.7924ZM66.4877 72.0041C66.4877 72.2237 66.5651 72.3192 66.7666 72.3479C67.1024 72.3961 67.1616 72.6425 67.0513 73.5297C66.9828 74.0802 66.9246 74.2008 66.7277 74.2008C66.5014 74.2008 66.4877 74.3075 66.4877 76.0763V77.9517H66.1764H65.8651V79.2019C65.8651 80.4447 65.8633 80.4522 65.5607 80.4522C65.2858 80.4522 65.2526 80.5098 65.2183 81.0461L65.1804 81.64L64.5889 81.6781C64.0549 81.7125 63.9975 81.7459 63.9975 82.0219C63.9975 82.3054 63.9523 82.3276 63.375 82.3276H62.7525V82.9527C62.7525 83.5362 62.7733 83.5779 63.0637 83.5779C63.3496 83.5779 63.375 83.6238 63.375 84.1405C63.375 84.6572 63.4004 84.7031 63.6863 84.7031C63.9083 84.7031 63.9975 84.6355 63.9975 84.4673C63.9975 84.284 64.1209 84.2129 64.55 84.1483C64.9928 84.0815 65.1103 84.0105 65.1414 83.7902C65.1658 83.6181 65.2827 83.5007 65.454 83.4762C65.6734 83.445 65.7441 83.3271 65.8106 82.8824C65.882 82.4043 65.9345 82.3276 66.1906 82.3276C66.4773 82.3276 66.4877 82.2949 66.4877 81.3899C66.4877 80.5575 66.5138 80.4522 66.7204 80.4522C67.0314 80.4522 67.1071 79.9461 67.1088 77.8579C67.1101 76.3158 67.1265 76.2013 67.3462 76.2013C67.5637 76.2013 67.5891 76.0501 67.6725 74.2634L67.7629 72.3254H69.1641C69.9348 72.3254 70.7403 72.3606 70.9544 72.4036L71.3434 72.4817V77.9673C71.3434 83.3695 71.3397 83.4529 71.0944 83.4529C70.9007 83.4529 70.8454 83.5362 70.8454 83.8279V84.203H72.3395H73.8336V77.9517V71.7003H70.1606H66.4877V72.0041ZM79.2185 71.7907C78.9265 71.8271 78.8139 71.9053 78.8139 72.0716C78.8139 72.2533 78.6821 72.3202 78.1913 72.388C77.7014 72.4556 77.5688 72.5229 77.5688 72.7035C77.5688 72.8465 77.4631 72.9483 77.2887 72.9731C77.0881 73.0017 76.9973 73.1107 76.9692 73.3569C76.9423 73.5907 76.8576 73.7007 76.7046 73.7007C76.4563 73.7007 76.3237 74.1413 76.3237 74.9666C76.3237 75.3677 76.2809 75.4511 76.0747 75.4511C75.834 75.4511 75.8257 75.5345 75.8257 77.9517C75.8257 80.3688 75.834 80.4522 76.0747 80.4522C76.2791 80.4522 76.324 80.536 76.3251 80.9211C76.3277 81.8348 76.4639 82.3276 76.7135 82.3276C76.8788 82.3276 76.9463 82.4183 76.9463 82.6402C76.9463 82.8902 77.0085 82.9527 77.2575 82.9527C77.5065 82.9527 77.5688 83.0153 77.5688 83.2653C77.5688 83.513 77.6317 83.5779 77.8713 83.5779C78.0905 83.5779 78.185 83.6555 78.2137 83.8592C78.2503 84.1174 78.3279 84.1435 79.1562 84.1773C79.9567 84.2098 80.0589 84.2416 80.0589 84.4586C80.0589 84.6882 80.1535 84.7031 81.6153 84.7031C83.077 84.7031 83.1716 84.6882 83.1716 84.4586C83.1716 84.2416 83.2738 84.2098 84.0743 84.1773C84.8888 84.1441 84.9807 84.1144 85.0151 83.8723C85.0452 83.6603 85.1674 83.587 85.5997 83.5219C86.1346 83.4414 86.1483 83.4275 86.2295 82.8836C86.3011 82.4043 86.3535 82.3276 86.6097 82.3276C86.8833 82.3276 86.9068 82.278 86.9068 81.7025C86.9068 81.1772 86.9437 81.0773 87.1375 81.0773C87.3351 81.0773 87.3799 80.9397 87.4488 80.1208C87.5518 78.8985 87.5524 76.7803 87.4502 76.0312C87.3882 75.577 87.3207 75.4511 87.1389 75.4511C86.9524 75.4511 86.9068 75.356 86.9068 74.9666C86.9068 74.1413 86.7742 73.7007 86.5259 73.7007C86.3729 73.7007 86.2883 73.5907 86.2614 73.3569C86.2332 73.1107 86.1425 73.0017 85.9419 72.9731C85.7674 72.9483 85.6617 72.8465 85.6617 72.7035C85.6617 72.5229 85.5291 72.4556 85.0392 72.388C84.5581 72.3216 84.4167 72.2515 84.4167 72.08C84.4167 71.9206 84.2849 71.8362 83.9498 71.7806C83.4536 71.6982 79.8997 71.7058 79.2185 71.7907ZM89.7393 71.8006C89.3057 71.853 89.2562 72.2879 89.6771 72.3479L89.9572 72.388V78.2996V84.2111L91.1819 84.1759L92.4066 84.1405L92.4269 78.2642L92.4474 72.388L94.5951 72.3537L96.7429 72.3196V72.635C96.7429 72.8883 96.8044 72.9506 97.0541 72.9506C97.3446 72.9506 97.3654 72.9922 97.3654 73.5757C97.3654 74.1592 97.3862 74.2008 97.6767 74.2008C97.9874 74.2008 97.9879 74.1987 97.9879 72.9818V71.7628L94.0348 71.7609C91.8606 71.7599 89.9277 71.7778 89.7393 71.8006ZM100.82 71.7898C100.555 71.8302 100.478 71.9102 100.478 72.1461C100.478 72.3875 100.543 72.4505 100.789 72.4505H101.101V78.0142V83.5779H100.789C100.54 83.5779 100.478 83.6404 100.478 83.8904V84.203H102.034H103.591V82.3276V80.4522H103.902C104.151 80.4522 104.213 80.3897 104.213 80.1396C104.213 79.8896 104.276 79.8271 104.525 79.8271C104.774 79.8271 104.836 79.7645 104.836 79.5145C104.836 79.2644 104.898 79.2019 105.147 79.2019C105.396 79.2019 105.458 79.1394 105.458 78.8894C105.458 78.6393 105.521 78.5768 105.77 78.5768C106.019 78.5768 106.081 78.5143 106.081 78.2642C106.081 78.0142 106.143 77.9517 106.392 77.9517C106.641 77.9517 106.703 77.8891 106.703 77.6391C106.703 77.389 106.766 77.3265 107.015 77.3265C107.264 77.3265 107.326 77.264 107.326 77.014C107.326 76.7103 107.351 76.7014 108.197 76.7014H109.069V80.0771C109.069 83.3695 109.063 83.4529 108.82 83.4529C108.626 83.4529 108.571 83.5362 108.571 83.8279V84.203H110.065H111.559V78.0305V71.8581L111.092 71.7806C110.836 71.7379 110.373 71.703 110.065 71.703C109.757 71.703 109.295 71.7379 109.038 71.7806C108.573 71.8577 108.571 71.8605 108.571 72.4668C108.571 72.9922 108.605 73.0756 108.82 73.0756C109.036 73.0756 109.069 73.159 109.069 73.7007C109.069 74.2425 109.036 74.3259 108.82 74.3259C108.608 74.3259 108.571 74.4093 108.571 74.8885C108.571 75.4052 108.546 75.4511 108.26 75.4511C108.011 75.4511 107.948 75.5136 107.948 75.7637C107.948 76.0137 107.886 76.0763 107.637 76.0763C107.39 76.0763 107.326 76.1393 107.326 76.3806C107.326 76.6195 107.252 76.6933 106.984 76.7244C106.742 76.7523 106.63 76.8442 106.602 77.0376C106.578 77.208 106.461 77.3258 106.291 77.3502C106.121 77.3744 106.004 77.4922 105.98 77.6638C105.949 77.8835 105.831 77.9552 105.395 78.0208C104.964 78.0858 104.842 78.1592 104.812 78.3711C104.788 78.5389 104.669 78.6543 104.493 78.6793C104.313 78.7049 104.213 78.8055 104.213 78.9606C104.213 79.1347 104.126 79.2019 103.902 79.2019H103.591V75.53V71.8581L103.124 71.7806C102.628 71.6982 101.39 71.7032 100.82 71.7898ZM115.623 71.7912C115.3 71.8397 115.274 71.8796 115.343 72.2257C115.385 72.4352 115.419 72.6841 115.419 72.7787C115.419 72.8732 115.531 72.9506 115.668 72.9506C115.913 72.9506 115.917 73.034 115.917 78.193V83.4355L115.637 83.4754C115.432 83.5047 115.357 83.599 115.357 83.8279V84.1405L116.882 84.1756L118.407 84.2108V82.3315V80.4522H118.718C118.967 80.4522 119.03 80.3897 119.03 80.1396C119.03 79.8896 119.092 79.8271 119.341 79.8271C119.59 79.8271 119.652 79.7645 119.652 79.5145C119.652 79.2644 119.714 79.2019 119.963 79.2019C120.212 79.2019 120.275 79.1394 120.275 78.8894C120.275 78.6393 120.337 78.5768 120.586 78.5768C120.835 78.5768 120.897 78.5143 120.897 78.2642C120.897 78.0142 120.959 77.9517 121.208 77.9517C121.457 77.9517 121.52 77.8891 121.52 77.6391C121.52 77.389 121.582 77.3265 121.831 77.3265C122.08 77.3265 122.142 77.264 122.142 77.014C122.142 76.7639 122.205 76.7014 122.454 76.7014C122.682 76.7014 122.765 76.6348 122.765 76.4513C122.765 76.2902 122.848 76.2013 122.998 76.2013C123.351 76.2013 123.387 76.6115 123.387 80.5929V84.203H124.881H126.375V83.8279C126.375 83.5362 126.32 83.4529 126.126 83.4529C125.881 83.4529 125.877 83.3695 125.877 77.9604V72.4678L126.158 72.428C126.331 72.4032 126.452 72.2876 126.475 72.1245C126.507 71.8977 126.432 71.8498 125.929 71.7807C125.199 71.6802 124.459 71.6802 123.854 71.7806L123.387 71.8581V73.6546V75.4511H123.076C122.827 75.4511 122.765 75.5136 122.765 75.7637C122.765 76.0137 122.703 76.0763 122.454 76.0763C122.205 76.0763 122.142 76.1388 122.142 76.3888C122.142 76.6389 122.08 76.7014 121.831 76.7014C121.585 76.7014 121.52 76.7647 121.52 77.0022C121.52 77.2679 121.448 77.313 120.904 77.388C120.401 77.4576 120.282 77.5221 120.251 77.7436C120.227 77.9138 120.108 78.0291 119.932 78.0542C119.752 78.0798 119.652 78.1803 119.652 78.3355C119.652 78.5095 119.565 78.5768 119.341 78.5768C119.092 78.5768 119.03 78.6393 119.03 78.8894C119.03 79.1394 118.967 79.2019 118.718 79.2019H118.407V75.53V71.8581L117.94 71.7806C117.441 71.6977 116.209 71.7033 115.623 71.7912ZM13.9458 72.0754C13.9458 72.2602 14.0288 72.3254 14.2638 72.3254H14.5817L14.5439 78.2642L14.506 84.2031L16.2647 84.203C18.3686 84.203 18.8015 84.1363 18.8015 83.8123C18.8015 83.6059 18.6996 83.5779 17.9463 83.5779H17.0911L17.0139 83.109C16.9714 82.8512 16.936 81.5853 16.9353 80.2959L16.9339 77.9517H18.8638H20.7936V77.6391V77.3265H18.9423H17.0911L17.0139 76.8577C16.9714 76.5999 16.9367 75.6855 16.9367 74.826C16.9367 73.9664 16.9714 73.0522 17.0139 72.7943L17.0911 72.3254L18.7245 72.3268C19.6228 72.3276 20.5655 72.3627 20.8194 72.4048C21.2529 72.4769 21.2859 72.5147 21.3628 73.0286C21.426 73.4524 21.4974 73.5757 21.6794 73.5757C21.8468 73.5757 21.9142 73.6654 21.9142 73.8883C21.9142 74.1383 21.9765 74.2008 22.2255 74.2008C22.5356 74.2008 22.5367 74.1967 22.5367 73.0131V71.8253H18.2412C14.0288 71.8253 13.9458 71.8302 13.9458 72.0754ZM24.5288 72.0754C24.5288 72.2421 24.6119 72.3254 24.7779 72.3254C24.9605 72.3254 25.0269 72.4088 25.0269 72.638C25.0269 72.8881 25.0891 72.9506 25.3381 72.9506C25.5872 72.9506 25.6494 73.0131 25.6494 73.2631C25.6494 73.5132 25.7117 73.5757 25.9607 73.5757C26.2512 73.5757 26.2719 73.6173 26.2719 74.2008C26.2719 74.7843 26.2927 74.826 26.5832 74.826C26.8322 74.826 26.8945 74.8885 26.8945 75.1385C26.8945 75.3886 26.9567 75.4511 27.2057 75.4511C27.4962 75.4511 27.517 75.4928 27.517 76.0763C27.517 76.6598 27.5378 76.7014 27.8283 76.7014C28.0911 76.7014 28.1395 76.7598 28.1395 77.0765C28.1395 77.3599 28.1966 77.4516 28.373 77.4516C28.6302 77.4516 28.7621 77.8804 28.7621 78.7175C28.7621 79.1509 28.7293 79.2019 28.4508 79.2019C28.2018 79.2019 28.1395 79.2644 28.1395 79.5145C28.1395 79.7645 28.0773 79.8271 27.8283 79.8271C27.5378 79.8271 27.517 79.8687 27.517 80.4522C27.517 81.0357 27.4962 81.0773 27.2057 81.0773C26.9567 81.0773 26.8945 81.1399 26.8945 81.3899C26.8945 81.64 26.8322 81.7025 26.5832 81.7025C26.3342 81.7025 26.2719 81.765 26.2719 82.015C26.2719 82.2651 26.2097 82.3276 25.9607 82.3276C25.6702 82.3276 25.6494 82.3692 25.6494 82.9527C25.6494 83.5362 25.6286 83.5779 25.3381 83.5779C25.0891 83.5779 25.0269 83.6404 25.0269 83.8904C25.0269 84.196 25.0477 84.203 25.9607 84.203C26.8737 84.203 26.8945 84.196 26.8945 83.8904C26.8945 83.6404 26.9567 83.5779 27.2057 83.5779C27.4957 83.5779 27.517 83.5356 27.517 82.9615C27.517 82.4174 27.5499 82.3404 27.7972 82.3051C28.0356 82.2711 28.0829 82.1778 28.1149 81.6791C28.1466 81.1847 28.1953 81.0868 28.4262 81.054C28.6576 81.0208 28.7057 80.9232 28.7378 80.4209L28.7758 79.8271H29.3175H29.8592L29.9449 80.4522C30.011 80.9353 30.0807 81.0773 30.2516 81.0773C30.4819 81.0773 30.6255 81.5863 30.6283 82.4126C30.6294 82.7293 30.6867 82.8185 30.9098 82.8502C31.1478 82.8842 31.1956 82.9776 31.2273 83.4697C31.2619 84.0056 31.2936 84.055 31.6475 84.1261C31.8581 84.1684 32.6995 84.203 33.5171 84.203H35.004L34.9645 83.8592C34.9366 83.6158 34.8452 83.504 34.6515 83.4762C34.4321 83.445 34.3614 83.3271 34.2949 82.8824C34.2305 82.4515 34.1597 82.3276 33.9772 82.3276C33.8097 82.3276 33.7424 82.238 33.7424 82.015C33.7424 81.7682 33.6794 81.7025 33.4428 81.7025C33.1777 81.7025 33.1333 81.6305 33.0576 81.0773C32.9907 80.5887 32.9226 80.4522 32.7463 80.4522C32.57 80.4522 32.5019 80.3157 32.435 79.8271C32.3663 79.3256 32.3024 79.2019 32.1121 79.2019C31.942 79.2019 31.8748 79.1134 31.8748 78.8894C31.8748 78.6393 31.8125 78.5768 31.5635 78.5768C31.2592 78.5768 31.2522 78.5559 31.2522 77.6391C31.2522 76.7223 31.2592 76.7014 31.5635 76.7014C31.8125 76.7014 31.8748 76.6389 31.8748 76.3888C31.8748 76.1648 31.942 76.0763 32.1121 76.0763C32.3024 76.0763 32.3663 75.9526 32.435 75.4511C32.5024 74.9591 32.5694 74.826 32.7493 74.826C32.8917 74.826 32.9931 74.7198 33.0177 74.5447C33.0428 74.3678 33.1575 74.2491 33.327 74.2249C33.5476 74.1932 33.6119 74.0743 33.6811 73.5685C33.7558 73.0227 33.8008 72.9506 34.0653 72.9506C34.3019 72.9506 34.3649 72.8848 34.3649 72.638C34.3649 72.4088 34.4313 72.3254 34.6139 72.3254C34.7799 72.3254 34.8629 72.2421 34.8629 72.0754C34.8629 71.8428 34.7799 71.8253 33.6801 71.8253H32.4973L32.4959 72.2317C32.4931 73.0854 32.3514 73.5757 32.1075 73.5757C31.9112 73.5757 31.8748 73.6736 31.8748 74.2008C31.8748 74.7843 31.854 74.826 31.5635 74.826C31.273 74.826 31.2522 74.8676 31.2522 75.4511V76.0763H30.6439H30.0354L29.9514 75.5136C29.886 75.0754 29.8154 74.951 29.6325 74.951C29.4369 74.951 29.3913 74.8411 29.36 74.2946C29.3272 73.7227 29.2863 73.6331 29.0422 73.5982C28.795 73.563 28.7621 73.4859 28.7621 72.9418C28.7621 72.3677 28.7408 72.3254 28.4508 72.3254C28.2226 72.3254 28.1395 72.2588 28.1395 72.0754C28.1395 71.8368 28.0565 71.8253 26.3342 71.8253C24.6119 71.8253 24.5288 71.8368 24.5288 72.0754ZM58.0056 72.4036C58.2754 72.4577 58.3947 72.5536 58.3947 72.7161C58.3947 72.8794 58.4842 72.9506 58.6899 72.9506C58.9501 72.9506 58.995 73.0246 59.0678 73.5757C59.1352 74.0857 59.1954 74.2008 59.395 74.2008C59.6333 74.2008 59.6398 74.308 59.6398 78.2642V82.3276H59.3285C59.0795 82.3276 59.0173 82.3901 59.0173 82.6402C59.0173 82.8694 58.9509 82.9527 58.7682 82.9527C58.5856 82.9527 58.5192 83.0361 58.5192 83.2653C58.5192 83.5292 58.4611 83.5779 58.1457 83.5779C57.8303 83.5779 57.7722 83.6265 57.7722 83.8904C57.7722 84.1911 57.7421 84.203 56.9785 84.203C55.8523 84.203 55.4066 84.0946 55.4066 83.8206C55.4066 83.6669 55.297 83.5819 55.0642 83.5549C54.819 83.5266 54.7104 83.4355 54.6819 83.2341C54.6575 83.0614 54.5557 82.9527 54.4181 82.9527C54.1779 82.9527 54.041 82.4455 54.0384 81.5462C54.0372 81.1736 53.9897 81.0773 53.8063 81.0773C53.6087 81.0773 53.5639 80.9397 53.495 80.1208C53.4507 79.5946 53.4144 78.6186 53.4144 77.9517C53.4144 77.2848 53.4507 76.3087 53.495 75.7826C53.5639 74.9636 53.6087 74.826 53.8063 74.826C53.9912 74.826 54.037 74.7298 54.037 74.3415C54.037 73.4889 54.1656 73.0927 54.4558 73.0512C54.6192 73.0278 54.7367 72.9076 54.7605 72.7394C54.7839 72.575 54.908 72.4446 55.0718 72.4127C55.5176 72.3257 57.5858 72.3193 58.0056 72.4036ZM83.1716 72.638C83.1716 72.8881 83.2339 72.9506 83.4829 72.9506C83.7295 72.9506 83.7941 73.0137 83.7941 73.2544C83.7941 73.4744 83.8715 73.5693 84.0743 73.5982C84.3452 73.6368 84.3555 73.6889 84.3894 75.1698C84.4212 76.5605 84.4454 76.7014 84.6532 76.7014C84.9118 76.7014 85.0365 77.2095 85.0365 78.2642C85.0365 79.3255 84.9122 79.8271 84.6494 79.8271C84.4396 79.8271 84.4167 79.9363 84.4167 80.9367C84.4167 82.391 84.3268 82.8277 84.0276 82.8277C83.8512 82.8277 83.7941 82.9194 83.7941 83.2028C83.7941 83.5695 83.7803 83.5779 83.1716 83.5779C82.5905 83.5779 82.5491 83.5988 82.5491 83.8904C82.5491 84.196 82.5283 84.203 81.6153 84.203C80.712 84.203 80.6815 84.1933 80.6815 83.9022C80.6815 83.636 80.6097 83.5914 80.0589 83.5154L79.4364 83.4294V82.8785C79.4364 82.3742 79.41 82.3276 79.1251 82.3276H78.8139V80.5147C78.8139 78.7852 78.8024 78.7018 78.5648 78.7018C78.346 78.7018 78.3158 78.6184 78.3158 78.0142C78.3158 77.4099 78.346 77.3265 78.5648 77.3265C78.8028 77.3265 78.8139 77.2431 78.8139 75.4511V73.5757H79.1251C79.3741 73.5757 79.4364 73.5132 79.4364 73.2631C79.4364 73.0131 79.4986 72.9506 79.7477 72.9506C79.9967 72.9506 80.0589 72.8881 80.0589 72.638V72.3254H81.6153H83.1716V72.638ZM21.9765 82.3276C21.9077 82.8291 21.8439 82.9527 21.6535 82.9527C21.4834 82.9527 21.4162 83.0413 21.4162 83.2653C21.4162 83.5612 21.3794 83.5779 20.7227 83.5779C20.0749 83.5779 20.0319 83.5964 20.069 83.8592C20.1069 84.126 20.1712 84.1424 21.3228 84.1763L22.5367 84.212V82.9572C22.5367 81.8064 22.5171 81.7025 22.2994 81.7025C22.1091 81.7025 22.0452 81.8261 21.9765 82.3276Z" fill="#727181"/>
</svg>
