<svg width="24" height="24" viewBox="0 0 24 24" fill="none" xmlns="http://www.w3.org/2000/svg">
<path d="M12.067 18.874C8.04403 18.874 6.24703 16.895 6.24703 15.41C6.24703 14.645 6.80803 14.114 7.58003 14.114C9.30303 14.114 8.85303 16.591 12.067 16.591C13.708 16.591 14.617 15.696 14.617 14.78C14.617 14.229 14.348 13.62 13.263 13.351L9.68703 12.456C6.80703 11.732 6.28403 10.17 6.28403 8.705C6.28403 5.658 9.14503 4.514 11.833 4.514C14.304 4.514 17.226 5.887 17.226 7.713C17.226 8.497 16.538 8.953 15.773 8.953C14.304 8.953 14.575 6.916 11.609 6.916C10.14 6.916 9.31703 7.58 9.31703 8.533C9.31703 9.486 10.47 9.791 11.474 10.02L14.111 10.607C17.002 11.256 17.735 12.953 17.735 14.551C17.735 17.027 15.833 18.875 12.013 18.875L12.067 18.874ZM23.097 13.993L23.068 14.128L23.024 13.888C23.039 13.933 23.068 13.962 23.083 14.008C23.203 13.333 23.264 12.645 23.264 11.956C23.264 10.427 22.963 8.944 22.366 7.536C21.797 6.188 20.971 4.974 19.939 3.94C18.89 2.907 17.692 2.084 16.344 1.514C15.026 0.883 13.543 0.584 12.016 0.584C11.296 0.584 10.572 0.654 9.87303 0.788L9.99203 0.848L9.75303 0.815L9.87203 0.79C8.90803 0.274 7.82703 0 6.72903 0C4.94003 0 3.25903 0.698 1.99303 1.967C0.727029 3.235 0.0300293 4.923 0.0300293 6.716C0.0300293 7.859 0.322029 8.981 0.874029 9.974L0.894029 9.85L0.935029 10.089L0.875029 9.974C0.761029 10.619 0.703029 11.273 0.703029 11.929C0.703029 13.459 1.00303 14.946 1.58703 16.345C2.15503 17.707 2.96503 18.921 4.01403 19.954C5.04803 21.004 6.26103 21.811 7.60903 22.396C9.00303 22.996 10.486 23.294 12.013 23.294C12.672 23.294 13.347 23.234 13.99 23.115L13.871 23.053L14.111 23.099L13.976 23.129C14.978 23.698 16.102 24 17.27 24C19.053 24 20.729 23.31 22.003 22.037C23.262 20.778 23.965 19.086 23.965 17.288C23.965 16.15 23.666 15.026 23.112 14.022" fill="#0489DB"/>
</svg>
