<svg width="300" height="328" viewBox="0 0 300 328" fill="none" xmlns="http://www.w3.org/2000/svg">
<rect y="318" width="191" height="10" rx="5" fill="url(#paint0_linear)"/>
<path d="M9.25586 308.604H8.14844L8.14844 306H1.20312L1.20312 308.604H0.0957031L0.0957031 304.947H0.868164C1.56999 303.767 2.16927 302.331 2.66602 300.641C3.16732 298.95 3.44531 297.405 3.5 296.006H7.99121L7.99121 304.947H9.25586L9.25586 308.604ZM6.8291 304.947L6.8291 297.052H4.55273C4.4707 298.155 4.19499 299.481 3.72559 301.03C3.25618 302.575 2.70931 303.881 2.08496 304.947H6.8291ZM14.1198 306.137C13.6321 306.137 13.1855 306.048 12.7799 305.87C12.3789 305.688 12.0416 305.41 11.7682 305.036H11.6862C11.7409 305.474 11.7682 305.888 11.7682 306.28L11.7682 309.363H10.6334L10.6334 298.508H11.5563L11.7135 299.533H11.7682C12.0599 299.123 12.3994 298.827 12.7868 298.645C13.1741 298.462 13.6185 298.371 14.1198 298.371C15.1133 298.371 15.8789 298.711 16.4166 299.39C16.959 300.069 17.2301 301.021 17.2301 302.247C17.2301 303.478 16.9544 304.435 16.403 305.118C15.8561 305.797 15.095 306.137 14.1198 306.137ZM13.9557 299.335C13.1901 299.335 12.6364 299.547 12.2946 299.971C11.9528 300.395 11.7773 301.069 11.7682 301.994V302.247C11.7682 303.3 11.9437 304.054 12.2946 304.51C12.6455 304.961 13.2083 305.187 13.983 305.187C14.6302 305.187 15.136 304.924 15.5006 304.4C15.8698 303.876 16.0543 303.154 16.0543 302.233C16.0543 301.299 15.8698 300.584 15.5006 300.087C15.136 299.586 14.6211 299.335 13.9557 299.335ZM17.8899 298.508H19.1067L20.7473 302.78C21.1074 303.756 21.3307 304.46 21.4173 304.893H21.472C21.5312 304.66 21.6542 304.264 21.8411 303.703C22.0325 303.138 22.6523 301.406 23.7005 298.508H24.9173L21.6975 307.039C21.3785 307.882 21.0048 308.479 20.5764 308.83C20.1526 309.186 19.6308 309.363 19.011 309.363C18.6647 309.363 18.3229 309.325 17.9856 309.247V308.338C18.2363 308.393 18.5165 308.42 18.8264 308.42C19.6057 308.42 20.1617 307.982 20.4944 307.107L20.9114 306.041L17.8899 298.508ZM30.5058 299.479H27.1288L27.1288 306H25.9941L25.9941 298.508H30.5058V299.479ZM32.9224 298.508V303.259L32.8746 304.503L32.8541 304.893L36.9078 298.508H38.3228V306H37.2632V301.42L37.2838 300.518L37.3179 299.629L33.2711 306H31.856L31.856 298.508H32.9224ZM43.7541 306.137C42.6467 306.137 41.7717 305.799 41.1291 305.125C40.4911 304.451 40.1721 303.514 40.1721 302.315C40.1721 301.108 40.4683 300.148 41.0607 299.438C41.6577 298.727 42.4576 298.371 43.4602 298.371C44.399 298.371 45.1418 298.681 45.6887 299.301C46.2355 299.916 46.509 300.729 46.509 301.741V302.459H41.3479C41.3706 303.339 41.5917 304.006 42.0109 304.462C42.4348 304.918 43.0295 305.146 43.7951 305.146C44.6018 305.146 45.3993 304.977 46.1877 304.64V305.651C45.7867 305.825 45.4061 305.948 45.0461 306.021C44.6906 306.098 44.26 306.137 43.7541 306.137ZM43.4465 299.321C42.8449 299.321 42.3641 299.517 42.0041 299.909C41.6486 300.301 41.439 300.843 41.3752 301.536H45.2922C45.2922 300.821 45.1327 300.274 44.8137 299.896C44.4947 299.513 44.0389 299.321 43.4465 299.321ZM57.8843 300.388C57.8843 300.875 57.743 301.247 57.4604 301.502C57.1824 301.753 56.7905 301.921 56.2846 302.008V302.069C56.9227 302.156 57.3875 302.343 57.6792 302.63C57.9754 302.917 58.1235 303.313 58.1235 303.819C58.1235 304.517 57.866 305.054 57.3511 305.433C56.8406 305.811 56.0932 306 55.1089 306H51.8071V298.508H55.0952C56.9546 298.508 57.8843 299.134 57.8843 300.388ZM56.9888 303.744C56.9888 303.339 56.8338 303.045 56.5239 302.862C56.2186 302.675 55.7104 302.582 54.9995 302.582H52.9419V305.05H55.0268C56.3348 305.05 56.9888 304.615 56.9888 303.744ZM56.7768 300.497C56.7768 300.132 56.6356 299.875 56.353 299.725C56.075 299.57 55.6512 299.492 55.0815 299.492H52.9419V301.604H54.8628C55.5646 301.604 56.0591 301.518 56.3462 301.345C56.6333 301.172 56.7768 300.889 56.7768 300.497ZM64.2452 306L64.0196 304.934H63.965C63.5913 305.403 63.2176 305.722 62.8439 305.891C62.4747 306.055 62.0122 306.137 61.4562 306.137C60.7133 306.137 60.13 305.945 59.7062 305.562C59.2869 305.18 59.0773 304.635 59.0773 303.929C59.0773 302.416 60.2872 301.623 62.7071 301.55L63.9786 301.509V301.044C63.9786 300.456 63.851 300.023 63.5958 299.745C63.3452 299.463 62.9419 299.321 62.3859 299.321C61.7615 299.321 61.0551 299.513 60.2667 299.896L59.9181 299.027C60.2872 298.827 60.6905 298.67 61.128 298.556C61.5701 298.442 62.0122 298.385 62.4542 298.385C63.3474 298.385 64.0083 298.583 64.4366 298.979C64.8696 299.376 65.0861 300.012 65.0861 300.887V306H64.2452ZM61.6818 305.2C62.3881 305.2 62.9419 305.007 63.3429 304.619C63.7485 304.232 63.9513 303.689 63.9513 302.992V302.315L62.8165 302.363C61.9142 302.395 61.2625 302.536 60.8614 302.787C60.465 303.033 60.2667 303.418 60.2667 303.942C60.2667 304.353 60.3898 304.665 60.6359 304.879C60.8865 305.093 61.2351 305.2 61.6818 305.2ZM71.6589 298.508H72.9031L69.6697 302.124L73.1697 306H71.8435L68.4255 302.206V306H67.2908V298.508H68.4255V302.151L71.6589 298.508ZM79.0316 306L78.8061 304.934H78.7514C78.3777 305.403 78.004 305.722 77.6303 305.891C77.2611 306.055 76.7986 306.137 76.2426 306.137C75.4997 306.137 74.9164 305.945 74.4926 305.562C74.0733 305.18 73.8637 304.635 73.8637 303.929C73.8637 302.416 75.0736 301.623 77.4936 301.55L78.765 301.509V301.044C78.765 300.456 78.6374 300.023 78.3822 299.745C78.1316 299.463 77.7283 299.321 77.1723 299.321C76.5479 299.321 75.8415 299.513 75.0531 299.896L74.7045 299.027C75.0736 298.827 75.477 298.67 75.9145 298.556C76.3565 298.442 76.7986 298.385 77.2406 298.385C78.1339 298.385 78.7947 298.583 79.223 298.979C79.656 299.376 79.8725 300.012 79.8725 300.887V306H79.0316ZM76.4682 305.2C77.1745 305.2 77.7283 305.007 78.1293 304.619C78.5349 304.232 78.7377 303.689 78.7377 302.992V302.315L77.6029 302.363C76.7006 302.395 76.0489 302.536 75.6479 302.787C75.2514 303.033 75.0531 303.418 75.0531 303.942C75.0531 304.353 75.1762 304.665 75.4223 304.879C75.6729 305.093 76.0215 305.2 76.4682 305.2ZM83.212 298.508V301.646H87.4092V298.508H88.544V306H87.4092V302.623H83.212V306H82.0772V298.508H83.212ZM93.8044 306.137C92.7197 306.137 91.8789 305.804 91.2819 305.139C90.6895 304.469 90.3932 303.523 90.3932 302.302C90.3932 301.049 90.694 300.08 91.2956 299.396C91.9017 298.713 92.763 298.371 93.8796 298.371C94.2396 298.371 94.5996 298.41 94.9596 298.487C95.3197 298.565 95.6022 298.656 95.8073 298.761L95.4587 299.725C95.208 299.624 94.9346 299.542 94.6384 299.479C94.3421 299.41 94.0801 299.376 93.8522 299.376C92.3301 299.376 91.569 300.347 91.569 302.288C91.569 303.209 91.7536 303.915 92.1227 304.407C92.4964 304.899 93.0479 305.146 93.777 305.146C94.4014 305.146 95.0417 305.011 95.6979 304.742V305.747C95.1966 306.007 94.5654 306.137 93.8044 306.137ZM98.4085 298.508V303.259L98.3607 304.503L98.3402 304.893L102.394 298.508H103.809V306H102.749V301.42L102.77 300.518L102.804 299.629L98.7571 306H97.3421V298.508H98.4085ZM107.142 298.508V303.259L107.094 304.503L107.073 304.893L111.127 298.508H112.542V306H111.482V301.42L111.503 300.518L111.537 299.629L107.49 306H106.075V298.508H107.142Z" fill="#727181"/>
<path d="M180.004 306H178.897V298.877C178.897 298.285 178.915 297.724 178.952 297.195C178.856 297.291 178.749 297.391 178.63 297.496C178.512 297.601 177.969 298.045 177.003 298.829L176.402 298.05L179.047 296.006H180.004V306ZM184.937 306L189.079 297.052H183.631V296.006H190.282V296.915L186.194 306H184.937Z" fill="#727181"/>
<rect y="260" width="133" height="10" rx="5" fill="url(#paint1_linear)"/>
<path d="M4.4502 248H3.28809L3.28809 239.038H0.123047L0.123047 238.006H7.61523V239.038H4.4502L4.4502 248ZM11.9801 248.137C10.8727 248.137 9.9977 247.799 9.35512 247.125C8.7171 246.451 8.39809 245.514 8.39809 244.315C8.39809 243.108 8.69431 242.148 9.28676 241.438C9.88376 240.727 10.6836 240.371 11.6862 240.371C12.625 240.371 13.3678 240.681 13.9147 241.301C14.4616 241.916 14.735 242.729 14.735 243.741V244.459H9.57387C9.59665 245.339 9.81768 246.006 10.237 246.462C10.6608 246.918 11.2555 247.146 12.0211 247.146C12.8278 247.146 13.6253 246.977 14.4137 246.64V247.651C14.0127 247.825 13.6321 247.948 13.2721 248.021C12.9166 248.098 12.486 248.137 11.9801 248.137ZM11.6725 241.321C11.0709 241.321 10.5901 241.517 10.2301 241.909C9.87465 242.301 9.66501 242.843 9.60121 243.536H13.5182C13.5182 242.821 13.3587 242.274 13.0397 241.896C12.7207 241.513 12.2649 241.321 11.6725 241.321ZM21.1438 248L20.9182 246.934H20.8636C20.4899 247.403 20.1162 247.722 19.7425 247.891C19.3733 248.055 18.9108 248.137 18.3548 248.137C17.6119 248.137 17.0286 247.945 16.6048 247.562C16.1855 247.18 15.9759 246.635 15.9759 245.929C15.9759 244.416 17.1858 243.623 19.6057 243.55L20.8772 243.509L20.8772 243.044C20.8772 242.456 20.7496 242.023 20.4944 241.745C20.2438 241.463 19.8404 241.321 19.2845 241.321C18.6601 241.321 17.9537 241.513 17.1653 241.896L16.8167 241.027C17.1858 240.827 17.5891 240.67 18.0266 240.556C18.4687 240.442 18.9108 240.385 19.3528 240.385C20.246 240.385 20.9068 240.583 21.3352 240.979C21.7682 241.376 21.9846 242.012 21.9846 242.887L21.9846 248H21.1438ZM18.5804 247.2C19.2867 247.2 19.8404 247.007 20.2415 246.619C20.6471 246.232 20.8499 245.689 20.8499 244.992V244.315L19.7151 244.363C18.8128 244.395 18.1611 244.536 17.76 244.787C17.3636 245.033 17.1653 245.418 17.1653 245.942C17.1653 246.353 17.2884 246.665 17.5345 246.879C17.7851 247.093 18.1337 247.2 18.5804 247.2ZM33.7392 248V243.126C33.7392 242.529 33.6116 242.082 33.3564 241.786C33.1012 241.485 32.7047 241.335 32.1669 241.335C31.4605 241.335 30.9387 241.538 30.6015 241.943C30.2642 242.349 30.0956 242.973 30.0956 243.816V248H28.9609V243.126C28.9609 242.529 28.8333 242.082 28.578 241.786C28.3228 241.485 27.9241 241.335 27.3818 241.335C26.6708 241.335 26.149 241.549 25.8163 241.978C25.4882 242.401 25.3241 243.099 25.3241 244.069V248H24.1894L24.1894 240.508H25.1122L25.2968 241.533H25.3515C25.5657 241.169 25.8665 240.884 26.2538 240.679C26.6458 240.474 27.0833 240.371 27.5663 240.371C28.7376 240.371 29.5032 240.795 29.8632 241.643H29.9179C30.1412 241.251 30.4648 240.941 30.8886 240.713C31.3124 240.485 31.7955 240.371 32.3378 240.371C33.1855 240.371 33.8189 240.59 34.2382 241.027C34.662 241.46 34.8739 242.155 34.8739 243.112V248H33.7392ZM40.7463 248V238.006H41.9084V246.947H46.3176V248H40.7463ZM50.8739 248.137C49.7664 248.137 48.8914 247.799 48.2489 247.125C47.6108 246.451 47.2918 245.514 47.2918 244.315C47.2918 243.108 47.5881 242.148 48.1805 241.438C48.7775 240.727 49.5773 240.371 50.5799 240.371C51.5187 240.371 52.2616 240.681 52.8084 241.301C53.3553 241.916 53.6287 242.729 53.6287 243.741V244.459H48.4676C48.4904 245.339 48.7114 246.006 49.1307 246.462C49.5545 246.918 50.1493 247.146 50.9149 247.146C51.7215 247.146 52.519 246.977 53.3075 246.64V247.651C52.9064 247.825 52.5259 247.948 52.1659 248.021C51.8104 248.098 51.3797 248.137 50.8739 248.137ZM50.5662 241.321C49.9647 241.321 49.4839 241.517 49.1239 241.909C48.7684 242.301 48.5588 242.843 48.495 243.536H52.412C52.412 242.821 52.2524 242.274 51.9334 241.896C51.6144 241.513 51.1587 241.321 50.5662 241.321ZM60.0376 248L59.812 246.934H59.7573C59.3836 247.403 59.0099 247.722 58.6362 247.891C58.2671 248.055 57.8045 248.137 57.2485 248.137C56.5057 248.137 55.9223 247.945 55.4985 247.562C55.0792 247.18 54.8696 246.635 54.8696 245.929C54.8696 244.416 56.0796 243.623 58.4995 243.55L59.771 243.509V243.044C59.771 242.456 59.6434 242.023 59.3882 241.745C59.1375 241.463 58.7342 241.321 58.1782 241.321C57.5539 241.321 56.8475 241.513 56.0591 241.896L55.7104 241.027C56.0796 240.827 56.4829 240.67 56.9204 240.556C57.3624 240.442 57.8045 240.385 58.2466 240.385C59.1398 240.385 59.8006 240.583 60.229 240.979C60.6619 241.376 60.8784 242.012 60.8784 242.887V248H60.0376ZM57.4741 247.2C58.1805 247.2 58.7342 247.007 59.1352 246.619C59.5408 246.232 59.7436 245.689 59.7436 244.992V244.315L58.6089 244.363C57.7065 244.395 57.0548 244.536 56.6538 244.787C56.2573 245.033 56.0591 245.418 56.0591 245.942C56.0591 246.353 56.1821 246.665 56.4282 246.879C56.6789 247.093 57.0275 247.2 57.4741 247.2ZM68.1827 246.995H68.1212C67.5971 247.756 66.8133 248.137 65.7696 248.137C64.7898 248.137 64.0265 247.802 63.4796 247.132C62.9373 246.462 62.6661 245.509 62.6661 244.274C62.6661 243.039 62.9396 242.08 63.4864 241.396C64.0333 240.713 64.7944 240.371 65.7696 240.371C66.7859 240.371 67.5652 240.74 68.1075 241.479H68.1964L68.1486 240.938L68.1212 240.412V237.363H69.256V248H68.3331L68.1827 246.995ZM65.9132 247.187C66.6879 247.187 67.2485 246.977 67.5948 246.558C67.9458 246.134 68.1212 245.452 68.1212 244.514V244.274C68.1212 243.213 67.9435 242.456 67.588 242.005C67.2371 241.549 66.6743 241.321 65.8995 241.321C65.2342 241.321 64.7238 241.581 64.3683 242.101C64.0174 242.616 63.8419 243.345 63.8419 244.288C63.8419 245.245 64.0174 245.967 64.3683 246.455C64.7192 246.943 65.2342 247.187 65.9132 247.187ZM72.7185 246.373L72.8211 246.53C72.7026 246.986 72.5317 247.515 72.3084 248.116C72.085 248.722 71.8526 249.285 71.6111 249.805H70.7566C70.8796 249.331 71.0141 248.745 71.1599 248.048C71.3103 247.351 71.4151 246.792 71.4744 246.373H72.7185ZM82.7676 238.901C81.6693 238.901 80.8011 239.268 80.1631 240.002C79.5297 240.731 79.2129 241.731 79.2129 243.003C79.2129 244.311 79.5183 245.323 80.1289 246.038C80.7442 246.749 81.6192 247.104 82.7539 247.104C83.4512 247.104 84.2465 246.979 85.1397 246.729V247.747C84.447 248.007 83.5925 248.137 82.5762 248.137C81.1042 248.137 79.9672 247.69 79.1651 246.797C78.3676 245.904 77.9688 244.634 77.9688 242.989C77.9688 241.959 78.1602 241.057 78.543 240.282C78.9304 239.507 79.4864 238.91 80.211 238.491C80.9401 238.072 81.7969 237.862 82.7813 237.862C83.8295 237.862 84.7455 238.054 85.5293 238.437L85.0371 239.435C84.2806 239.079 83.5241 238.901 82.7676 238.901ZM90.2565 248H89.0944V239.038H85.9294V238.006L93.4216 238.006V239.038L90.2565 239.038V248ZM103.467 242.989C103.467 244.589 103.062 245.847 102.25 246.763C101.444 247.679 100.32 248.137 98.8802 248.137C97.4082 248.137 96.2711 247.688 95.4691 246.79C94.6715 245.888 94.2728 244.616 94.2728 242.976C94.2728 241.349 94.6738 240.089 95.4759 239.195C96.278 238.298 97.4173 237.849 98.8939 237.849C100.329 237.849 101.451 238.304 102.257 239.216C103.064 240.127 103.467 241.385 103.467 242.989ZM95.5032 242.989C95.5032 244.343 95.7904 245.37 96.3646 246.072C96.9433 246.77 97.7819 247.118 98.8802 247.118C99.9876 247.118 100.824 246.77 101.389 246.072C101.954 245.375 102.237 244.347 102.237 242.989C102.237 241.645 101.954 240.626 101.389 239.934C100.828 239.236 99.9967 238.888 98.8939 238.888C97.7864 238.888 96.9433 239.239 96.3646 239.94C95.7904 240.638 95.5032 241.654 95.5032 242.989Z" fill="#727181"/>
<path d="M125.788 243.728C125.788 241.763 126.169 240.296 126.93 239.325C127.695 238.35 128.826 237.862 130.32 237.862C130.835 237.862 131.241 237.906 131.537 237.992V238.97C131.186 238.856 130.785 238.799 130.334 238.799C129.263 238.799 128.445 239.134 127.88 239.804C127.315 240.469 127.005 241.517 126.95 242.948H127.032C127.534 242.164 128.326 241.772 129.411 241.772C130.309 241.772 131.015 242.044 131.53 242.586C132.05 243.128 132.31 243.864 132.31 244.794C132.31 245.833 132.025 246.651 131.455 247.248C130.89 247.84 130.124 248.137 129.158 248.137C128.124 248.137 127.303 247.749 126.697 246.975C126.091 246.195 125.788 245.113 125.788 243.728ZM129.145 247.173C129.792 247.173 130.293 246.97 130.648 246.564C131.008 246.154 131.188 245.564 131.188 244.794C131.188 244.133 131.022 243.614 130.689 243.235C130.357 242.857 129.86 242.668 129.199 242.668C128.789 242.668 128.413 242.752 128.071 242.921C127.729 243.09 127.456 243.322 127.251 243.618C127.05 243.914 126.95 244.222 126.95 244.541C126.95 245.01 127.041 245.448 127.224 245.854C127.406 246.259 127.663 246.58 127.996 246.817C128.333 247.054 128.716 247.173 129.145 247.173Z" fill="#727181"/>
<rect y="202" width="133" height="10" rx="5" fill="url(#paint2_linear)"/>
<path d="M9.35156 184.907C9.35156 186.557 8.90267 187.819 8.00488 188.694C7.11165 189.565 5.82422 190 4.14258 190H1.37402L1.37402 180.006H4.43652C5.99056 180.006 7.19824 180.437 8.05957 181.298C8.9209 182.159 9.35156 183.362 9.35156 184.907ZM8.12109 184.948C8.12109 183.645 7.79297 182.663 7.13672 182.002C6.48503 181.341 5.51432 181.011 4.22461 181.011H2.53613L2.53613 188.995H3.95117C5.33659 188.995 6.37793 188.656 7.0752 187.977C7.77246 187.293 8.12109 186.284 8.12109 184.948ZM14.4411 190.137C13.3336 190.137 12.4586 189.799 11.8161 189.125C11.178 188.451 10.859 187.514 10.859 186.315C10.859 185.108 11.1552 184.148 11.7477 183.438C12.3447 182.727 13.1445 182.371 14.1471 182.371C15.0859 182.371 15.8287 182.681 16.3756 183.301C16.9225 183.916 17.1959 184.729 17.1959 185.741V186.459H12.0348C12.0576 187.339 12.2786 188.006 12.6979 188.462C13.1217 188.918 13.7164 189.146 14.4821 189.146C15.2887 189.146 16.0862 188.977 16.8746 188.64V189.651C16.4736 189.825 16.0931 189.948 15.733 190.021C15.3776 190.098 14.9469 190.137 14.4411 190.137ZM14.1334 183.321C13.5319 183.321 13.0511 183.517 12.6911 183.909C12.3356 184.301 12.126 184.843 12.0621 185.536H15.9791C15.9791 184.821 15.8196 184.274 15.5006 183.896C15.1816 183.513 14.7259 183.321 14.1334 183.321ZM20.638 190L17.7942 182.508H19.011L20.6243 186.951C20.9889 187.99 21.2031 188.665 21.2669 188.975H21.3216C21.3717 188.733 21.5289 188.234 21.7932 187.478C22.0621 186.716 22.6614 185.06 23.5911 182.508H24.8079L21.9641 190H20.638ZM34.7167 184.989C34.7167 186.589 34.3111 187.847 33.4999 188.763C32.6933 189.679 31.5699 190.137 30.1298 190.137C28.6578 190.137 27.5208 189.688 26.7187 188.79C25.9211 187.888 25.5224 186.616 25.5224 184.976C25.5224 183.349 25.9234 182.089 26.7255 181.195C27.5276 180.298 28.6669 179.849 30.1435 179.849C31.579 179.849 32.7001 180.304 33.5068 181.216C34.3134 182.127 34.7167 183.385 34.7167 184.989ZM26.7529 184.989C26.7529 186.343 27.04 187.37 27.6142 188.072C28.193 188.77 29.0315 189.118 30.1298 189.118C31.2372 189.118 32.0735 188.77 32.6386 188.072C33.2037 187.375 33.4862 186.347 33.4862 184.989C33.4862 183.645 33.2037 182.626 32.6386 181.934C32.078 181.236 31.2463 180.888 30.1435 180.888C29.0361 180.888 28.193 181.239 27.6142 181.94C27.04 182.638 26.7529 183.654 26.7529 184.989ZM40.1275 190.137C39.6399 190.137 39.1933 190.048 38.7877 189.87C38.3866 189.688 38.0494 189.41 37.7759 189.036H37.6939C37.7486 189.474 37.7759 189.888 37.7759 190.28V193.363H36.6412V182.508H37.564L37.7212 183.533H37.7759C38.0676 183.123 38.4071 182.827 38.7945 182.645C39.1819 182.462 39.6262 182.371 40.1275 182.371C41.121 182.371 41.8866 182.711 42.4244 183.39C42.9667 184.069 43.2379 185.021 43.2379 186.247C43.2379 187.478 42.9621 188.435 42.4107 189.118C41.8638 189.797 41.1028 190.137 40.1275 190.137ZM39.9634 183.335C39.1978 183.335 38.6441 183.547 38.3023 183.971C37.9605 184.395 37.7851 185.069 37.7759 185.994V186.247C37.7759 187.3 37.9514 188.054 38.3023 188.51C38.6532 188.961 39.216 189.187 39.9908 189.187C40.6379 189.187 41.1438 188.924 41.5084 188.4C41.8775 187.876 42.0621 187.154 42.0621 186.233C42.0621 185.299 41.8775 184.584 41.5084 184.087C41.1438 183.586 40.6288 183.335 39.9634 183.335ZM49.9201 187.956C49.9201 188.653 49.6604 189.191 49.1408 189.569C48.6213 189.948 47.8921 190.137 46.9533 190.137C45.9598 190.137 45.1851 189.979 44.6291 189.665V188.612C44.9891 188.795 45.3742 188.938 45.7844 189.043C46.1991 189.148 46.5979 189.2 46.9807 189.2C47.5731 189.2 48.0288 189.107 48.3479 188.92C48.6669 188.729 48.8264 188.439 48.8264 188.052C48.8264 187.76 48.6988 187.512 48.4436 187.307C48.1929 187.097 47.7007 186.851 46.967 186.568C46.2697 186.309 45.773 186.083 45.4768 185.892C45.1851 185.696 44.9663 185.475 44.8205 185.229C44.6792 184.982 44.6086 184.688 44.6086 184.347C44.6086 183.736 44.857 183.255 45.3537 182.904C45.8505 182.549 46.5318 182.371 47.3977 182.371C48.2043 182.371 48.9927 182.535 49.7629 182.863L49.3596 183.786C48.6076 183.476 47.9263 183.321 47.3156 183.321C46.7779 183.321 46.3723 183.406 46.0988 183.574C45.8254 183.743 45.6887 183.975 45.6887 184.271C45.6887 184.472 45.7388 184.643 45.8391 184.784C45.9439 184.925 46.1102 185.06 46.3381 185.188C46.5659 185.315 47.0034 185.5 47.6506 185.741C48.5393 186.065 49.1385 186.391 49.4484 186.719C49.7629 187.047 49.9201 187.459 49.9201 187.956Z" fill="#727181"/>
<path d="M125.788 185.728C125.788 183.763 126.169 182.296 126.93 181.325C127.695 180.35 128.826 179.862 130.32 179.862C130.835 179.862 131.241 179.906 131.537 179.992V180.97C131.186 180.856 130.785 180.799 130.334 180.799C129.263 180.799 128.445 181.134 127.88 181.804C127.315 182.469 127.005 183.517 126.95 184.948H127.032C127.534 184.164 128.326 183.772 129.411 183.772C130.309 183.772 131.015 184.044 131.53 184.586C132.05 185.128 132.31 185.864 132.31 186.794C132.31 187.833 132.025 188.651 131.455 189.248C130.89 189.84 130.124 190.137 129.158 190.137C128.124 190.137 127.303 189.749 126.697 188.975C126.091 188.195 125.788 187.113 125.788 185.728ZM129.145 189.173C129.792 189.173 130.293 188.97 130.648 188.564C131.008 188.154 131.188 187.564 131.188 186.794C131.188 186.133 131.022 185.614 130.689 185.235C130.357 184.857 129.86 184.668 129.199 184.668C128.789 184.668 128.413 184.752 128.071 184.921C127.729 185.09 127.456 185.322 127.251 185.618C127.05 185.914 126.95 186.222 126.95 186.541C126.95 187.01 127.041 187.448 127.224 187.854C127.406 188.259 127.663 188.58 127.996 188.817C128.333 189.054 128.716 189.173 129.145 189.173Z" fill="#727181"/>
<rect y="144" width="152" height="10" rx="5" fill="url(#paint3_linear)"/>
<path d="M7.01367 129.341C7.01367 130.22 6.69466 130.906 6.05664 131.398C5.41862 131.891 4.55273 132.137 3.45898 132.137C2.27409 132.137 1.36263 131.984 0.724609 131.679L0.724609 130.558C1.13477 130.731 1.58138 130.868 2.06445 130.968C2.54753 131.068 3.02604 131.118 3.5 131.118C4.27474 131.118 4.85807 130.972 5.25 130.681C5.64193 130.384 5.83789 129.974 5.83789 129.45C5.83789 129.104 5.76725 128.821 5.62598 128.603C5.48926 128.379 5.25684 128.174 4.92871 127.987C4.60514 127.8 4.11068 127.589 3.44531 127.352C2.51562 127.019 1.85026 126.625 1.44922 126.169C1.05273 125.713 0.854492 125.118 0.854492 124.385C0.854492 123.615 1.14388 123.002 1.72266 122.546C2.30143 122.09 3.06706 121.862 4.01953 121.862C5.01302 121.862 5.92676 122.045 6.76074 122.409L6.39844 123.421C5.57357 123.075 4.77148 122.901 3.99219 122.901C3.37695 122.901 2.89616 123.034 2.5498 123.298C2.20345 123.562 2.03027 123.929 2.03027 124.398C2.03027 124.745 2.09408 125.03 2.22168 125.253C2.34928 125.472 2.56348 125.674 2.86426 125.861C3.1696 126.044 3.63444 126.246 4.25879 126.47C5.30697 126.843 6.02702 127.244 6.41895 127.673C6.81543 128.101 7.01367 128.657 7.01367 129.341ZM11.9118 132.137C10.8043 132.137 9.92934 131.799 9.28676 131.125C8.64874 130.451 8.32973 129.514 8.32973 128.315C8.32973 127.108 8.62595 126.148 9.2184 125.438C9.8154 124.727 10.6152 124.371 11.6178 124.371C12.5566 124.371 13.2995 124.681 13.8463 125.301C14.3932 125.916 14.6666 126.729 14.6666 127.741V128.459H9.50551C9.52829 129.339 9.74932 130.006 10.1686 130.462C10.5924 130.918 11.1871 131.146 11.9528 131.146C12.7594 131.146 13.5569 130.977 14.3454 130.64V131.651C13.9443 131.825 13.5638 131.948 13.2038 132.021C12.8483 132.098 12.4176 132.137 11.9118 132.137ZM11.6041 125.321C11.0026 125.321 10.5218 125.517 10.1618 125.909C9.80629 126.301 9.59665 126.843 9.53285 127.536H13.4498C13.4498 126.821 13.2903 126.274 12.9713 125.896C12.6523 125.513 12.1966 125.321 11.6041 125.321ZM21.595 132V127.153C21.595 126.543 21.456 126.087 21.178 125.786C20.9 125.485 20.4648 125.335 19.8723 125.335C19.0885 125.335 18.5143 125.547 18.1497 125.971C17.7851 126.395 17.6028 127.094 17.6028 128.069V132H16.468L16.468 124.508H17.3909L17.5755 125.533H17.6302C17.8626 125.164 18.1884 124.879 18.6077 124.679C19.027 124.474 19.4941 124.371 20.0091 124.371C20.9114 124.371 21.5904 124.59 22.0462 125.027C22.5019 125.46 22.7298 126.155 22.7298 127.112V132H21.595ZM26.0624 132H24.9277L24.9277 124.508H26.0624L26.0624 132ZM24.832 122.478C24.832 122.218 24.8958 122.029 25.0234 121.91C25.151 121.787 25.3105 121.726 25.5019 121.726C25.6842 121.726 25.8414 121.787 25.9736 121.91C26.1057 122.033 26.1718 122.222 26.1718 122.478C26.1718 122.733 26.1057 122.924 25.9736 123.052C25.8414 123.175 25.6842 123.236 25.5019 123.236C25.3105 123.236 25.151 123.175 25.0234 123.052C24.8958 122.924 24.832 122.733 24.832 122.478ZM34.7955 128.247C34.7955 129.468 34.4879 130.423 33.8726 131.111C33.2574 131.795 32.4074 132.137 31.3228 132.137C30.6529 132.137 30.0582 131.979 29.5386 131.665C29.0191 131.351 28.6181 130.899 28.3355 130.312C28.053 129.724 27.9117 129.035 27.9117 128.247C27.9117 127.026 28.217 126.076 28.8277 125.396C29.4384 124.713 30.286 124.371 31.3707 124.371C32.4188 124.371 33.2505 124.72 33.8658 125.417C34.4856 126.114 34.7955 127.058 34.7955 128.247ZM29.0875 128.247C29.0875 129.204 29.2789 129.933 29.6617 130.435C30.0445 130.936 30.6073 131.187 31.3502 131.187C32.093 131.187 32.6558 130.938 33.0386 130.441C33.426 129.94 33.6197 129.209 33.6197 128.247C33.6197 127.295 33.426 126.572 33.0386 126.08C32.6558 125.583 32.0884 125.335 31.3365 125.335C30.5936 125.335 30.0331 125.579 29.6548 126.066C29.2766 126.554 29.0875 127.281 29.0875 128.247ZM40.0695 124.371C40.4022 124.371 40.7007 124.398 40.965 124.453L40.8078 125.506C40.4979 125.438 40.2245 125.403 39.9875 125.403C39.3814 125.403 38.8618 125.649 38.4289 126.142C38.0005 126.634 37.7863 127.247 37.7863 127.98V132H36.6516V124.508H37.5881L37.718 125.896H37.7727C38.0507 125.408 38.3856 125.032 38.7775 124.768C39.1695 124.503 39.6001 124.371 40.0695 124.371ZM54.5688 126.989C54.5688 128.27 54.3113 129.334 53.7964 130.182C53.2814 131.029 52.5545 131.604 51.6157 131.904L53.9946 134.379H52.3061L50.3579 132.123L49.9819 132.137C48.5099 132.137 47.3729 131.688 46.5708 130.79C45.7733 129.888 45.3745 128.616 45.3745 126.976C45.3745 125.349 45.7755 124.089 46.5776 123.195C47.3797 122.298 48.519 121.849 49.9956 121.849C51.4311 121.849 52.5522 122.304 53.3589 123.216C54.1655 124.127 54.5688 125.385 54.5688 126.989ZM46.605 126.989C46.605 128.343 46.8921 129.37 47.4663 130.072C48.0451 130.77 48.8836 131.118 49.9819 131.118C51.0893 131.118 51.9256 130.77 52.4907 130.072C53.0558 129.375 53.3384 128.347 53.3384 126.989C53.3384 125.645 53.0558 124.626 52.4907 123.934C51.9302 123.236 51.0985 122.888 49.9956 122.888C48.8882 122.888 48.0451 123.239 47.4663 123.94C46.8921 124.638 46.605 125.654 46.605 126.989ZM62.9464 132L61.7023 128.821H57.6964L56.4659 132H55.2902L59.2413 121.965H60.2189L64.1495 132H62.9464ZM61.34 127.775L60.1779 124.679C60.0275 124.287 59.8725 123.806 59.713 123.236C59.6127 123.674 59.4692 124.155 59.2823 124.679L58.1066 127.775H61.34Z" fill="#727181"/>
<path d="M148.228 121.862C149.139 121.862 149.861 122.074 150.395 122.498C150.928 122.922 151.194 123.507 151.194 124.255C151.194 124.747 151.042 125.196 150.736 125.602C150.431 126.007 149.943 126.376 149.273 126.709C150.085 127.096 150.661 127.504 151.003 127.933C151.345 128.356 151.516 128.849 151.516 129.409C151.516 130.239 151.226 130.902 150.647 131.398C150.069 131.891 149.276 132.137 148.269 132.137C147.202 132.137 146.382 131.904 145.808 131.439C145.233 130.97 144.946 130.307 144.946 129.45C144.946 128.306 145.644 127.415 147.038 126.777C146.409 126.422 145.958 126.039 145.685 125.629C145.411 125.214 145.274 124.752 145.274 124.241C145.274 123.517 145.541 122.94 146.074 122.512C146.612 122.079 147.33 121.862 148.228 121.862ZM146.067 129.478C146.067 130.024 146.257 130.451 146.635 130.756C147.018 131.061 147.553 131.214 148.241 131.214C148.92 131.214 149.449 131.054 149.827 130.735C150.205 130.416 150.395 129.979 150.395 129.423C150.395 128.981 150.217 128.589 149.861 128.247C149.506 127.901 148.886 127.566 148.002 127.242C147.323 127.534 146.831 127.857 146.525 128.213C146.22 128.564 146.067 128.985 146.067 129.478ZM148.214 122.785C147.644 122.785 147.198 122.922 146.874 123.195C146.55 123.469 146.389 123.833 146.389 124.289C146.389 124.708 146.523 125.068 146.792 125.369C147.061 125.67 147.558 125.971 148.282 126.271C148.934 125.998 149.394 125.704 149.663 125.39C149.937 125.075 150.073 124.708 150.073 124.289C150.073 123.829 149.907 123.464 149.574 123.195C149.246 122.922 148.793 122.785 148.214 122.785Z" fill="#727181"/>
<rect y="86" width="219" height="10" rx="5" fill="url(#paint4_linear)"/>
<path d="M7.71094 66.918C7.71094 67.9297 7.36458 68.709 6.67187 69.2559C5.98372 69.7982 4.99707 70.0693 3.71191 70.0693H2.53613L2.53613 74H1.37402L1.37402 64.0059H3.96484C6.46224 64.0059 7.71094 64.9766 7.71094 66.918ZM2.53613 69.0713H3.58203C4.61198 69.0713 5.3571 68.9049 5.81738 68.5723C6.27767 68.2396 6.50781 67.7064 6.50781 66.9727C6.50781 66.3118 6.29134 65.8197 5.8584 65.4961C5.42546 65.1725 4.75098 65.0107 3.83496 65.0107H2.53613L2.53613 69.0713ZM14.0924 74L10.7018 65.1406H10.6471C10.7109 65.8424 10.7428 66.6764 10.7428 67.6426V74H9.66957V64.0059H11.4196L14.5846 72.25H14.6393L17.8317 64.0059H19.568L19.568 74H18.4059L18.4059 67.5605C18.4059 66.8223 18.4378 66.0202 18.5016 65.1543H18.4469L15.0289 74H14.0924ZM23.1946 72.373L23.2971 72.5303C23.1787 72.986 23.0078 73.5146 22.7845 74.1162C22.5611 74.7223 22.3287 75.2852 22.0872 75.8047H21.2327C21.3557 75.3307 21.4902 74.7451 21.636 74.0479C21.7864 73.3506 21.8912 72.7923 21.9505 72.373H23.1946ZM33.4009 74L33.1754 72.9336H33.1207C32.747 73.403 32.3733 73.722 31.9996 73.8906C31.6304 74.0547 31.1679 74.1367 30.6119 74.1367C29.869 74.1367 29.2857 73.9453 28.8619 73.5625C28.4426 73.1797 28.233 72.6351 28.233 71.9287C28.233 70.4157 29.4429 69.6227 31.8629 69.5498L33.1343 69.5088V69.0439C33.1343 68.4561 33.0067 68.0231 32.7515 67.7451C32.5009 67.4626 32.0976 67.3213 31.5416 67.3213C30.9172 67.3213 30.2108 67.5127 29.4224 67.8955L29.0738 67.0273C29.4429 66.8268 29.8463 66.6696 30.2838 66.5557C30.7258 66.4417 31.1679 66.3848 31.6099 66.3848C32.5032 66.3848 33.164 66.583 33.5923 66.9795C34.0253 67.376 34.2418 68.0117 34.2418 68.8867V74H33.4009ZM30.8375 73.2002C31.5438 73.2002 32.0976 73.0065 32.4986 72.6191C32.9042 72.2318 33.107 71.6895 33.107 70.9922V70.3154L31.9722 70.3633C31.0699 70.3952 30.4182 70.5365 30.0171 70.7871C29.6207 71.0332 29.4224 71.4183 29.4224 71.9424C29.4224 72.3525 29.5455 72.6647 29.7916 72.8789C30.0422 73.0931 30.3908 73.2002 30.8375 73.2002ZM37.5812 66.5078V69.6455H41.7785V66.5078H42.9133V74H41.7785V70.623H37.5812V74H36.4465V66.5078H37.5812ZM49.787 74L49.5614 72.9336H49.5067C49.133 73.403 48.7593 73.722 48.3856 73.8906C48.0164 74.0547 47.5539 74.1367 46.9979 74.1367C46.2551 74.1367 45.6717 73.9453 45.2479 73.5625C44.8286 73.1797 44.619 72.6351 44.619 71.9287C44.619 70.4157 45.8289 69.6227 48.2489 69.5498L49.5204 69.5088V69.0439C49.5204 68.4561 49.3927 68.0231 49.1375 67.7451C48.8869 67.4626 48.4836 67.3213 47.9276 67.3213C47.3032 67.3213 46.5968 67.5127 45.8084 67.8955L45.4598 67.0273C45.8289 66.8268 46.2323 66.6696 46.6698 66.5557C47.1118 66.4417 47.5539 66.3848 47.9959 66.3848C48.8892 66.3848 49.55 66.583 49.9784 66.9795C50.4113 67.376 50.6278 68.0117 50.6278 68.8867V74H49.787ZM47.2235 73.2002C47.9299 73.2002 48.4836 73.0065 48.8846 72.6191C49.2902 72.2318 49.493 71.6895 49.493 70.9922V70.3154L48.3582 70.3633C47.4559 70.3952 46.8042 70.5365 46.4032 70.7871C46.0067 71.0332 45.8084 71.4183 45.8084 71.9424C45.8084 72.3525 45.9315 72.6647 46.1776 72.8789C46.4282 73.0931 46.7769 73.2002 47.2235 73.2002ZM58.4175 74H57.269V67.4785H55.02C54.897 69.1009 54.7261 70.3883 54.5073 71.3408C54.2886 72.2933 54.0037 72.9906 53.6528 73.4326C53.3065 73.8747 52.8644 74.0957 52.3266 74.0957C52.0805 74.0957 51.8846 74.0684 51.7388 74.0137V73.1729C51.839 73.2002 51.9529 73.2139 52.0805 73.2139C52.6046 73.2139 53.0216 72.6602 53.3315 71.5527C53.6414 70.4453 53.8761 68.7637 54.0356 66.5078H58.4175V74ZM61.757 66.5078V71.2588L61.7091 72.5029L61.6886 72.8926L65.7423 66.5078H67.1573V74H66.0978V69.4199L66.1183 68.5176L66.1525 67.6289L62.1056 74H60.6905V66.5078H61.757ZM74.4753 67.4785H72.0418V74H70.907V67.4785H68.5007V66.5078H74.4753V67.4785ZM76.8852 66.5078V71.2588L76.8373 72.5029L76.8168 72.8926L80.8705 66.5078H82.2855V74H81.226V69.4199L81.2465 68.5176L81.2807 67.6289L77.2338 74H75.8187V66.5078H76.8852ZM88.92 66.5078H90.1641L86.9307 70.124L90.4307 74H89.1045L85.6866 70.2061V74H84.5518V66.5078H85.6866V70.1514L88.92 66.5078ZM92.7516 66.5078V71.2588L92.7038 72.5029L92.6833 72.8926L96.737 66.5078H98.152V74H97.0925V69.4199L97.113 68.5176L97.1471 67.6289L93.1003 74H91.6852V66.5078H92.7516Z" fill="#727181"/>
<path d="M210.369 74H203.8V73.0225L206.432 70.377C207.234 69.5658 207.763 68.987 208.018 68.6406C208.273 68.2943 208.465 67.957 208.592 67.6289C208.72 67.3008 208.784 66.9476 208.784 66.5693C208.784 66.0361 208.622 65.6146 208.298 65.3047C207.975 64.9902 207.526 64.833 206.952 64.833C206.537 64.833 206.143 64.9014 205.769 65.0381C205.4 65.1748 204.987 65.4232 204.532 65.7832L203.93 65.0107C204.851 64.2451 205.853 63.8623 206.938 63.8623C207.877 63.8623 208.613 64.1038 209.146 64.5869C209.679 65.0654 209.946 65.7103 209.946 66.5215C209.946 67.1549 209.768 67.7816 209.412 68.4014C209.057 69.0212 208.392 69.805 207.416 70.7529L205.229 72.8926V72.9473H210.369V74ZM218.296 68.9893C218.296 70.7165 218.022 72.0062 217.476 72.8584C216.933 73.7106 216.102 74.1367 214.98 74.1367C213.905 74.1367 213.087 73.7015 212.526 72.8311C211.966 71.9561 211.686 70.6755 211.686 68.9893C211.686 67.2484 211.957 65.9564 212.499 65.1133C213.041 64.2702 213.868 63.8486 214.98 63.8486C216.065 63.8486 216.888 64.2884 217.448 65.168C218.013 66.0475 218.296 67.3213 218.296 68.9893ZM212.834 68.9893C212.834 70.443 213.005 71.5026 213.347 72.168C213.688 72.8288 214.233 73.1592 214.98 73.1592C215.737 73.1592 216.284 72.8242 216.621 72.1543C216.963 71.4798 217.134 70.4248 217.134 68.9893C217.134 67.5537 216.963 66.5033 216.621 65.8379C216.284 65.168 215.737 64.833 214.98 64.833C214.233 64.833 213.688 65.1634 213.347 65.8242C213.005 66.4805 212.834 67.5355 212.834 68.9893Z" fill="#727181"/>
<rect y="28" width="300" height="10" rx="5" fill="url(#paint5_linear)"/>
<path d="M1.37402 6.00586L4.19727 6.00586C5.52344 6.00586 6.48275 6.2041 7.0752 6.60059C7.66764 6.99707 7.96387 7.6237 7.96387 8.48047C7.96387 9.07292 7.79753 9.56283 7.46484 9.9502C7.13672 10.333 6.65592 10.5814 6.02246 10.6953V10.7637C7.54004 11.0234 8.29883 11.821 8.29883 13.1563C8.29883 14.0495 7.99577 14.7467 7.38965 15.248C6.78809 15.7493 5.94499 16 4.86035 16H1.37402L1.37402 6.00586ZM2.53613 10.2852H4.4502C5.27051 10.2852 5.86068 10.1576 6.2207 9.90234C6.58073 9.64258 6.76074 9.20736 6.76074 8.59668C6.76074 8.03613 6.56022 7.63281 6.15918 7.38672C5.75814 7.13607 5.12012 7.01074 4.24512 7.01074L2.53613 7.01074L2.53613 10.2852ZM2.53613 11.2695L2.53613 15.0088H4.62109C5.42773 15.0088 6.03385 14.8538 6.43945 14.5439C6.84961 14.2295 7.05469 13.7396 7.05469 13.0742C7.05469 12.4544 6.84505 11.9987 6.42578 11.707C6.01107 11.4154 5.3776 11.2695 4.52539 11.2695H2.53613ZM14.7487 16L14.5231 14.9336H14.4684C14.0947 15.403 13.721 15.722 13.3473 15.8906C12.9782 16.0547 12.5156 16.1367 11.9596 16.1367C11.2168 16.1367 10.6334 15.9453 10.2096 15.5625C9.79034 15.1797 9.5807 14.6351 9.5807 13.9287C9.5807 12.4157 10.7907 11.6227 13.2106 11.5498L14.4821 11.5088V11.0439C14.4821 10.4561 14.3545 10.0231 14.0993 9.74512C13.8486 9.46257 13.4453 9.32129 12.8893 9.32129C12.2649 9.32129 11.5586 9.5127 10.7702 9.89551L10.4215 9.02734C10.7907 8.82682 11.194 8.6696 11.6315 8.55566C12.0735 8.44173 12.5156 8.38477 12.9577 8.38477C13.8509 8.38477 14.5117 8.58301 14.9401 8.97949C15.373 9.37598 15.5895 10.0117 15.5895 10.8867V16H14.7487ZM12.1852 15.2002C12.8916 15.2002 13.4453 15.0065 13.8463 14.6191C14.2519 14.2318 14.4547 13.6895 14.4547 12.9922V12.3154L13.32 12.3633C12.4176 12.3952 11.7659 12.5365 11.3649 12.7871C10.9684 13.0332 10.7702 13.4183 10.7702 13.9424C10.7702 14.3525 10.8932 14.6647 11.1393 14.8789C11.3899 15.0931 11.7386 15.2002 12.1852 15.2002ZM20.7884 16.1367C19.7037 16.1367 18.8629 15.804 18.2659 15.1387C17.6734 14.4688 17.3772 13.5231 17.3772 12.3018C17.3772 11.0485 17.678 10.0801 18.2796 9.39648C18.8857 8.71289 19.747 8.37109 20.8636 8.37109C21.2236 8.37109 21.5836 8.40983 21.9436 8.4873C22.3037 8.56478 22.5862 8.65592 22.7913 8.76074L22.4427 9.72461C22.192 9.62435 21.9186 9.54232 21.6223 9.47852C21.3261 9.41016 21.0641 9.37598 20.8362 9.37598C19.3141 9.37598 18.553 10.3467 18.553 12.2881C18.553 13.2087 18.7376 13.915 19.1067 14.4072C19.4804 14.8994 20.0318 15.1455 20.761 15.1455C21.3854 15.1455 22.0257 15.0111 22.6819 14.7422V15.7471C22.1806 16.0068 21.5494 16.1367 20.7884 16.1367ZM25.4472 12.165C25.6432 11.887 25.9417 11.5225 26.3427 11.0713L28.7626 8.50781H30.1093L27.0741 11.7002L30.3212 16H28.9472L26.3017 12.459L25.4472 13.1973V16H24.3261L24.3261 5.36328L25.4472 5.36328V11.0029C25.4472 11.2536 25.429 11.641 25.3925 12.165H25.4472ZM34.7066 16.1367C33.5992 16.1367 32.7242 15.7995 32.0816 15.125C31.4436 14.4505 31.1246 13.514 31.1246 12.3154C31.1246 11.1077 31.4208 10.1484 32.0132 9.4375C32.6102 8.72656 33.4101 8.37109 34.4127 8.37109C35.3515 8.37109 36.0943 8.68099 36.6412 9.30078C37.188 9.91602 37.4615 10.7295 37.4615 11.7412V12.459H32.3004C32.3231 13.3385 32.5442 14.0062 32.9634 14.4619C33.3873 14.9176 33.982 15.1455 34.7476 15.1455C35.5543 15.1455 36.3518 14.9769 37.1402 14.6396V15.6514C36.7392 15.8245 36.3586 15.9476 35.9986 16.0205C35.6431 16.098 35.2125 16.1367 34.7066 16.1367ZM34.399 9.32129C33.7974 9.32129 33.3166 9.51725 32.9566 9.90918C32.6011 10.3011 32.3915 10.8434 32.3277 11.5361H36.2447C36.2447 10.8206 36.0852 10.2738 35.7662 9.89551C35.4472 9.5127 34.9914 9.32129 34.399 9.32129ZM44.3898 16V11.1533C44.3898 10.5426 44.2508 10.0869 43.9729 9.78613C43.6949 9.48535 43.2596 9.33496 42.6672 9.33496C41.8833 9.33496 41.3091 9.54688 40.9445 9.9707C40.5799 10.3945 40.3977 11.0941 40.3977 12.0693V16H39.2629V8.50781H40.1857L40.3703 9.5332H40.425C40.6574 9.16406 40.9833 8.87923 41.4025 8.67871C41.8218 8.47363 42.2889 8.37109 42.8039 8.37109C43.7062 8.37109 44.3853 8.58984 44.841 9.02734C45.2967 9.46029 45.5246 10.1553 45.5246 11.1123V16H44.3898ZM52.8221 14.9951H52.7606C52.2365 15.7562 51.4526 16.1367 50.409 16.1367C49.4292 16.1367 48.6659 15.8018 48.119 15.1318C47.5767 14.4619 47.3055 13.5094 47.3055 12.2744C47.3055 11.0394 47.5789 10.0801 48.1258 9.39648C48.6727 8.71289 49.4338 8.37109 50.409 8.37109C51.4253 8.37109 52.2046 8.74023 52.7469 9.47852H52.8358L52.7879 8.93848L52.7606 8.41211V5.36328H53.8954V16H52.9725L52.8221 14.9951ZM50.5526 15.1865C51.3273 15.1865 51.8879 14.9769 52.2342 14.5576C52.5851 14.1338 52.7606 13.4525 52.7606 12.5137V12.2744C52.7606 11.2126 52.5829 10.4561 52.2274 10.0049C51.8765 9.54915 51.3136 9.32129 50.5389 9.32129C49.8735 9.32129 49.3631 9.58105 49.0077 10.1006C48.6567 10.6156 48.4813 11.3447 48.4813 12.2881C48.4813 13.2451 48.6567 13.9674 49.0077 14.4551C49.3586 14.9427 49.8735 15.1865 50.5526 15.1865ZM61.2921 7.99512C61.2921 8.30957 61.3741 8.61035 61.5382 8.89746C61.7023 9.18001 61.9825 9.52181 62.379 9.92285C62.9669 9.58105 63.3748 9.2666 63.6027 8.97949C63.8351 8.68783 63.9513 8.35286 63.9513 7.97461C63.9513 7.6237 63.8328 7.33887 63.5958 7.12012C63.3634 6.89681 63.0512 6.78516 62.6593 6.78516C62.2537 6.78516 61.9233 6.89453 61.6681 7.11328C61.4174 7.33203 61.2921 7.62598 61.2921 7.99512ZM62.3517 15.1182C63.45 15.1182 64.3614 14.7673 65.0861 14.0654L62.0988 11.167C61.5929 11.4769 61.2351 11.7344 61.0255 11.9395C60.8159 12.14 60.6609 12.3564 60.5607 12.5889C60.4604 12.8213 60.4103 13.0856 60.4103 13.3818C60.4103 13.915 60.5857 14.3389 60.9366 14.6533C61.2921 14.9632 61.7638 15.1182 62.3517 15.1182ZM59.2345 13.4092C59.2345 12.8167 59.3917 12.2926 59.7062 11.8369C60.0252 11.3812 60.5948 10.9209 61.4152 10.4561C61.0278 10.0231 60.7635 9.69499 60.6222 9.47168C60.4855 9.24837 60.3761 9.01595 60.2941 8.77441C60.212 8.53288 60.171 8.28223 60.171 8.02246C60.171 7.33887 60.3943 6.80566 60.8409 6.42285C61.2876 6.04004 61.9096 5.84863 62.7071 5.84863C63.4454 5.84863 64.0265 6.04004 64.4503 6.42285C64.8741 6.80111 65.0861 7.32975 65.0861 8.00879C65.0861 8.49642 64.9311 8.94759 64.6212 9.3623C64.3113 9.77246 63.7986 10.1895 63.0831 10.6133L65.8654 13.2861C66.1206 13.0036 66.3234 12.6732 66.4738 12.2949C66.6287 11.9121 66.7586 11.4951 66.8634 11.0439H68.0118C67.7019 12.3473 67.2348 13.3363 66.6105 14.0107L68.6544 16H67.089L65.8243 14.7832C65.2866 15.2663 64.7397 15.6126 64.1837 15.8223C63.6277 16.0319 63.0079 16.1367 62.3243 16.1367C61.3445 16.1367 60.5835 15.8952 60.0411 15.4121C59.5034 14.929 59.2345 14.2614 59.2345 13.4092ZM74.5814 16H73.4193V6.00586L78.9906 6.00586V7.03809H74.5814V10.6953H78.724V11.7275H74.5814V16ZM83.7588 8.37109C84.0915 8.37109 84.39 8.39844 84.6543 8.45313L84.4971 9.50586C84.1872 9.4375 83.9138 9.40332 83.6768 9.40332C83.0707 9.40332 82.5511 9.64941 82.1182 10.1416C81.6898 10.6338 81.4756 11.2467 81.4756 11.9805V16H80.3409V8.50781H81.2774L81.4073 9.89551H81.462C81.7399 9.40788 82.0749 9.0319 82.4668 8.76758C82.8588 8.50326 83.2894 8.37109 83.7588 8.37109ZM92.3825 12.2471C92.3825 13.4684 92.0749 14.4232 91.4596 15.1113C90.8444 15.7949 89.9945 16.1367 88.9098 16.1367C88.2399 16.1367 87.6452 15.9795 87.1257 15.665C86.6061 15.3506 86.2051 14.8994 85.9225 14.3115C85.64 13.7236 85.4987 13.0355 85.4987 12.2471C85.4987 11.0257 85.804 10.0755 86.4147 9.39648C87.0254 8.71289 87.8731 8.37109 88.9577 8.37109C90.0059 8.37109 90.8376 8.71973 91.4528 9.41699C92.0726 10.1143 92.3825 11.0576 92.3825 12.2471ZM86.6745 12.2471C86.6745 13.2041 86.8659 13.9333 87.2487 14.4346C87.6315 14.9359 88.1943 15.1865 88.9372 15.1865C89.68 15.1865 90.2429 14.9382 90.6257 14.4414C91.013 13.9401 91.2067 13.2087 91.2067 12.2471C91.2067 11.2946 91.013 10.5723 90.6257 10.0801C90.2429 9.58333 89.6755 9.33496 88.9235 9.33496C88.1807 9.33496 87.6201 9.57878 87.2419 10.0664C86.8636 10.554 86.6745 11.2809 86.6745 12.2471ZM99.3655 16V11.1533C99.3655 10.5426 99.2265 10.0869 98.9486 9.78613C98.6706 9.48535 98.2353 9.33496 97.6429 9.33496C96.859 9.33496 96.2848 9.54688 95.9202 9.9707C95.5557 10.3945 95.3734 11.0941 95.3734 12.0693V16H94.2386V8.50781H95.1614L95.346 9.5332H95.4007C95.6331 9.16406 95.959 8.87923 96.3782 8.67871C96.7975 8.47363 97.2646 8.37109 97.7796 8.37109C98.682 8.37109 99.361 8.58984 99.8167 9.02734C100.272 9.46029 100.5 10.1553 100.5 11.1123V16L99.3655 16ZM105.118 15.2002C105.319 15.2002 105.512 15.1865 105.699 15.1592C105.886 15.1273 106.034 15.0954 106.144 15.0635V15.9316C106.02 15.9909 105.838 16.0387 105.597 16.0752C105.36 16.1162 105.145 16.1367 104.954 16.1367C103.505 16.1367 102.78 15.3734 102.78 13.8467V9.38965H101.707V8.84277L102.78 8.37109L103.259 6.77148H103.915V8.50781L106.089 8.50781V9.38965L103.915 9.38965V13.7988C103.915 14.25 104.022 14.5964 104.236 14.8379C104.45 15.0794 104.744 15.2002 105.118 15.2002ZM110.672 16.1367C109.565 16.1367 108.69 15.7995 108.047 15.125C107.409 14.4505 107.09 13.514 107.09 12.3154C107.09 11.1077 107.387 10.1484 107.979 9.4375C108.576 8.72656 109.376 8.37109 110.379 8.37109C111.317 8.37109 112.06 8.68099 112.607 9.30078C113.154 9.91602 113.427 10.7295 113.427 11.7412V12.459H108.266C108.289 13.3385 108.51 14.0062 108.929 14.4619C109.353 14.9176 109.948 15.1455 110.713 15.1455C111.52 15.1455 112.318 14.9769 113.106 14.6396V15.6514C112.705 15.8245 112.324 15.9476 111.964 16.0205C111.609 16.098 111.178 16.1367 110.672 16.1367ZM110.365 9.32129C109.763 9.32129 109.282 9.51725 108.922 9.90918C108.567 10.3011 108.357 10.8434 108.294 11.5361H112.211C112.211 10.8206 112.051 10.2738 111.732 9.89551C111.413 9.5127 110.957 9.32129 110.365 9.32129ZM120.356 16V11.1533C120.356 10.5426 120.217 10.0869 119.939 9.78613C119.661 9.48535 119.225 9.33496 118.633 9.33496C117.849 9.33496 117.275 9.54688 116.91 9.9707C116.546 10.3945 116.364 11.0941 116.364 12.0693V16H115.229V8.50781L116.152 8.50781L116.336 9.5332H116.391C116.623 9.16406 116.949 8.87923 117.368 8.67871C117.788 8.47363 118.255 8.37109 118.77 8.37109C119.672 8.37109 120.351 8.58984 120.807 9.02734C121.263 9.46029 121.49 10.1553 121.49 11.1123V16H120.356ZM128.788 14.9951H128.726C128.202 15.7562 127.419 16.1367 126.375 16.1367C125.395 16.1367 124.632 15.8018 124.085 15.1318C123.543 14.4619 123.271 13.5094 123.271 12.2744C123.271 11.0394 123.545 10.0801 124.092 9.39648C124.639 8.71289 125.4 8.37109 126.375 8.37109C127.391 8.37109 128.17 8.74023 128.713 9.47852H128.802L128.754 8.93848L128.726 8.41211V5.36328L129.861 5.36328V16H128.938L128.788 14.9951ZM126.518 15.1865C127.293 15.1865 127.854 14.9769 128.2 14.5576C128.551 14.1338 128.726 13.4525 128.726 12.5137V12.2744C128.726 11.2126 128.549 10.4561 128.193 10.0049C127.842 9.54915 127.28 9.32129 126.505 9.32129C125.839 9.32129 125.329 9.58105 124.974 10.1006C124.623 10.6156 124.447 11.3447 124.447 12.2881C124.447 13.2451 124.623 13.9674 124.974 14.4551C125.324 14.9427 125.839 15.1865 126.518 15.1865ZM143.779 10.9072C143.779 12.557 143.331 13.8193 142.433 14.6943C141.54 15.5648 140.252 16 138.57 16H135.802V6.00586H138.864C140.418 6.00586 141.626 6.43652 142.487 7.29785C143.349 8.15918 143.779 9.3623 143.779 10.9072ZM142.549 10.9482C142.549 9.64486 142.221 8.66276 141.565 8.00195C140.913 7.34115 139.942 7.01074 138.652 7.01074H136.964V14.9951L138.379 14.9951C139.764 14.9951 140.806 14.6556 141.503 13.9766C142.2 13.293 142.549 12.2835 142.549 10.9482ZM148.869 16.1367C147.762 16.1367 146.887 15.7995 146.244 15.125C145.606 14.4505 145.287 13.514 145.287 12.3154C145.287 11.1077 145.583 10.1484 146.176 9.4375C146.773 8.72656 147.572 8.37109 148.575 8.37109C149.514 8.37109 150.257 8.68099 150.804 9.30078C151.35 9.91602 151.624 10.7295 151.624 11.7412V12.459L146.463 12.459C146.485 13.3385 146.707 14.0062 147.126 14.4619C147.55 14.9176 148.144 15.1455 148.91 15.1455C149.717 15.1455 150.514 14.9769 151.303 14.6396V15.6514C150.901 15.8245 150.521 15.9476 150.161 16.0205C149.805 16.098 149.375 16.1367 148.869 16.1367ZM148.561 9.32129C147.96 9.32129 147.479 9.51725 147.119 9.90918C146.763 10.3011 146.554 10.8434 146.49 11.5361L150.407 11.5361C150.407 10.8206 150.248 10.2738 149.929 9.89551C149.61 9.5127 149.154 9.32129 148.561 9.32129ZM155.066 16L152.222 8.50781H153.439L155.052 12.9512C155.417 13.9902 155.631 14.6647 155.695 14.9746H155.749C155.8 14.7331 155.957 14.234 156.221 13.4775C156.49 12.7165 157.089 11.0599 158.019 8.50781H159.236L156.392 16H155.066ZM163.464 16.1367C162.357 16.1367 161.482 15.7995 160.839 15.125C160.201 14.4505 159.882 13.514 159.882 12.3154C159.882 11.1077 160.178 10.1484 160.771 9.4375C161.368 8.72656 162.167 8.37109 163.17 8.37109C164.109 8.37109 164.852 8.68099 165.399 9.30078C165.945 9.91602 166.219 10.7295 166.219 11.7412V12.459H161.058C161.08 13.3385 161.302 14.0062 161.721 14.4619C162.145 14.9176 162.739 15.1455 163.505 15.1455C164.312 15.1455 165.109 14.9769 165.898 14.6396V15.6514C165.496 15.8245 165.116 15.9476 164.756 16.0205C164.4 16.098 163.97 16.1367 163.464 16.1367ZM163.156 9.32129C162.555 9.32129 162.074 9.51725 161.714 9.90918C161.358 10.3011 161.149 10.8434 161.085 11.5361H165.002C165.002 10.8206 164.843 10.2738 164.524 9.89551C164.205 9.5127 163.749 9.32129 163.156 9.32129ZM169.155 16H168.02V5.36328L169.155 5.36328V16ZM177.888 12.2471C177.888 13.4684 177.58 14.4232 176.965 15.1113C176.35 15.7949 175.5 16.1367 174.415 16.1367C173.745 16.1367 173.151 15.9795 172.631 15.665C172.112 15.3506 171.711 14.8994 171.428 14.3115C171.146 13.7236 171.004 13.0355 171.004 12.2471C171.004 11.0257 171.31 10.0755 171.92 9.39648C172.531 8.71289 173.379 8.37109 174.463 8.37109C175.511 8.37109 176.343 8.71973 176.958 9.41699C177.578 10.1143 177.888 11.0576 177.888 12.2471ZM172.18 12.2471C172.18 13.2041 172.371 13.9333 172.754 14.4346C173.137 14.9359 173.7 15.1865 174.443 15.1865C175.186 15.1865 175.748 14.9382 176.131 14.4414C176.519 13.9401 176.712 13.2087 176.712 12.2471C176.712 11.2946 176.519 10.5723 176.131 10.0801C175.748 9.58333 175.181 9.33496 174.429 9.33496C173.686 9.33496 173.126 9.57878 172.747 10.0664C172.369 10.554 172.18 11.2809 172.18 12.2471ZM183.23 16.1367C182.743 16.1367 182.296 16.0479 181.891 15.8701C181.49 15.6878 181.152 15.4098 180.879 15.0361H180.797C180.852 15.4736 180.879 15.8883 180.879 16.2803V19.3633H179.744V8.50781H180.667L180.824 9.5332H180.879C181.171 9.12305 181.51 8.82682 181.897 8.64453C182.285 8.46224 182.729 8.37109 183.23 8.37109C184.224 8.37109 184.99 8.71061 185.527 9.38965C186.07 10.0687 186.341 11.0212 186.341 12.2471C186.341 13.4775 186.065 14.4346 185.514 15.1182C184.967 15.7972 184.206 16.1367 183.23 16.1367ZM183.066 9.33496C182.301 9.33496 181.747 9.54688 181.405 9.9707C181.063 10.3945 180.888 11.069 180.879 11.9941V12.2471C180.879 13.2998 181.054 14.054 181.405 14.5098C181.756 14.9609 182.319 15.1865 183.094 15.1865C183.741 15.1865 184.247 14.9245 184.611 14.4004C184.98 13.8763 185.165 13.154 185.165 12.2334C185.165 11.2992 184.98 10.5837 184.611 10.0869C184.247 9.58561 183.732 9.33496 183.066 9.33496ZM191.355 16.1367C190.248 16.1367 189.373 15.7995 188.73 15.125C188.092 14.4505 187.773 13.514 187.773 12.3154C187.773 11.1077 188.069 10.1484 188.662 9.4375C189.259 8.72656 190.059 8.37109 191.061 8.37109C192 8.37109 192.743 8.68099 193.29 9.30078C193.837 9.91602 194.11 10.7295 194.11 11.7412V12.459L188.949 12.459C188.972 13.3385 189.193 14.0062 189.612 14.4619C190.036 14.9176 190.631 15.1455 191.396 15.1455C192.203 15.1455 193 14.9769 193.789 14.6396V15.6514C193.388 15.8245 193.007 15.9476 192.647 16.0205C192.292 16.098 191.861 16.1367 191.355 16.1367ZM191.048 9.32129C190.446 9.32129 189.965 9.51725 189.605 9.90918C189.25 10.3011 189.04 10.8434 188.976 11.5361H192.893C192.893 10.8206 192.734 10.2738 192.415 9.89551C192.096 9.5127 191.64 9.32129 191.048 9.32129ZM199.329 8.37109C199.662 8.37109 199.961 8.39844 200.225 8.45313L200.068 9.50586C199.758 9.4375 199.484 9.40332 199.247 9.40332C198.641 9.40332 198.122 9.64941 197.689 10.1416C197.26 10.6338 197.046 11.2467 197.046 11.9805V16H195.911V8.50781H196.848L196.978 9.89551H197.033C197.31 9.40788 197.645 9.0319 198.037 8.76758C198.429 8.50326 198.86 8.37109 199.329 8.37109ZM206.319 13.9561C206.319 14.6533 206.059 15.1911 205.54 15.5693C205.02 15.9476 204.291 16.1367 203.352 16.1367C202.359 16.1367 201.584 15.9795 201.028 15.665V14.6123C201.388 14.7946 201.773 14.9382 202.184 15.043C202.598 15.1478 202.997 15.2002 203.38 15.2002C203.972 15.2002 204.428 15.1068 204.747 14.9199C205.066 14.7285 205.226 14.4391 205.226 14.0518C205.226 13.7601 205.098 13.5117 204.843 13.3066C204.592 13.097 204.1 12.8509 203.366 12.5684C202.669 12.3086 202.172 12.083 201.876 11.8916C201.584 11.6956 201.365 11.4746 201.22 11.2285C201.078 10.9824 201.008 10.6885 201.008 10.3467C201.008 9.736 201.256 9.25521 201.753 8.9043C202.25 8.54883 202.931 8.37109 203.797 8.37109C204.603 8.37109 205.392 8.53516 206.162 8.86328L205.759 9.78613C205.007 9.47624 204.325 9.32129 203.715 9.32129C203.177 9.32129 202.771 9.4056 202.498 9.57422C202.225 9.74284 202.088 9.97526 202.088 10.2715C202.088 10.472 202.138 10.6429 202.238 10.7842C202.343 10.9255 202.509 11.0599 202.737 11.1875C202.965 11.3151 203.403 11.4997 204.05 11.7412C204.938 12.0648 205.538 12.3906 205.848 12.7188C206.162 13.0469 206.319 13.4593 206.319 13.9561Z" fill="#727181"/>
<path d="M291.134 8.35742C291.134 8.99544 290.954 9.51725 290.593 9.92285C290.238 10.3285 289.732 10.5996 289.076 10.7363V10.791C289.878 10.8913 290.473 11.1465 290.86 11.5566C291.247 11.9668 291.441 12.5046 291.441 13.1699C291.441 14.1224 291.111 14.8561 290.45 15.3711C289.789 15.8815 288.85 16.1367 287.634 16.1367C287.105 16.1367 286.62 16.0957 286.177 16.0137C285.74 15.9362 285.314 15.7972 284.899 15.5967V14.5166C285.332 14.7308 285.792 14.8949 286.28 15.0088C286.772 15.1182 287.237 15.1729 287.675 15.1729C289.402 15.1729 290.265 14.4961 290.265 13.1426C290.265 11.9303 289.313 11.3242 287.408 11.3242H286.424V10.3467H287.422C288.201 10.3467 288.818 10.1758 289.274 9.83398C289.73 9.48763 289.958 9.00911 289.958 8.39844C289.958 7.91081 289.789 7.52799 289.452 7.25C289.119 6.97201 288.666 6.83301 288.092 6.83301C287.654 6.83301 287.242 6.89225 286.854 7.01074C286.467 7.12923 286.025 7.34798 285.528 7.66699L284.954 6.90137C285.364 6.5778 285.836 6.32487 286.369 6.14258C286.907 5.95573 287.472 5.8623 288.064 5.8623C289.035 5.8623 289.789 6.08561 290.327 6.53223C290.865 6.97428 291.134 7.58268 291.134 8.35742ZM299.005 8.35742C299.005 8.99544 298.825 9.51725 298.465 9.92285C298.11 10.3285 297.604 10.5996 296.948 10.7363V10.791C297.75 10.8913 298.344 11.1465 298.732 11.5566C299.119 11.9668 299.313 12.5046 299.313 13.1699C299.313 14.1224 298.982 14.8561 298.322 15.3711C297.661 15.8815 296.722 16.1367 295.505 16.1367C294.977 16.1367 294.491 16.0957 294.049 16.0137C293.612 15.9362 293.186 15.7972 292.771 15.5967V14.5166C293.204 14.7308 293.664 14.8949 294.152 15.0088C294.644 15.1182 295.109 15.1729 295.546 15.1729C297.273 15.1729 298.137 14.4961 298.137 13.1426C298.137 11.9303 297.185 11.3242 295.28 11.3242H294.295V10.3467H295.293C296.073 10.3467 296.69 10.1758 297.146 9.83398C297.602 9.48763 297.829 9.00911 297.829 8.39844C297.829 7.91081 297.661 7.52799 297.324 7.25C296.991 6.97201 296.537 6.83301 295.963 6.83301C295.526 6.83301 295.113 6.89225 294.726 7.01074C294.339 7.12923 293.897 7.34798 293.4 7.66699L292.826 6.90137C293.236 6.5778 293.707 6.32487 294.241 6.14258C294.778 5.95573 295.343 5.8623 295.936 5.8623C296.907 5.8623 297.661 6.08561 298.199 6.53223C298.736 6.97428 299.005 7.58268 299.005 8.35742Z" fill="#727181"/>
<defs>
<linearGradient id="paint0_linear" x1="-9.04526e-07" y1="322.857" x2="228.269" y2="323.427" gradientUnits="userSpaceOnUse">
<stop stop-color="#1999E8"/>
<stop offset="1" stop-color="#FF5058"/>
</linearGradient>
<linearGradient id="paint1_linear" x1="-6.29853e-07" y1="264.857" x2="158.952" y2="265.133" gradientUnits="userSpaceOnUse">
<stop stop-color="#1999E8"/>
<stop offset="1" stop-color="#FF5058"/>
</linearGradient>
<linearGradient id="paint2_linear" x1="-6.29853e-07" y1="206.857" x2="158.952" y2="207.133" gradientUnits="userSpaceOnUse">
<stop stop-color="#1999E8"/>
<stop offset="1" stop-color="#FF5058"/>
</linearGradient>
<linearGradient id="paint3_linear" x1="-7.19832e-07" y1="148.857" x2="181.66" y2="149.218" gradientUnits="userSpaceOnUse">
<stop stop-color="#1999E8"/>
<stop offset="1" stop-color="#FF5058"/>
</linearGradient>
<linearGradient id="paint4_linear" x1="-1.03713e-06" y1="90.8571" x2="261.732" y2="91.6061" gradientUnits="userSpaceOnUse">
<stop stop-color="#1999E8"/>
<stop offset="1" stop-color="#FF5058"/>
</linearGradient>
<linearGradient id="paint5_linear" x1="-1.42072e-06" y1="32.8571" x2="358.534" y2="34.2625" gradientUnits="userSpaceOnUse">
<stop stop-color="#1999E8"/>
<stop offset="1" stop-color="#FF5058"/>
</linearGradient>
</defs>
</svg>
